<?xml version="1.0" standalone="no"?>
<!DOCTYPE svg PUBLIC "-//W3C//DTD SVG 1.1//EN" "http://www.w3.org/Graphics/SVG/1.1/DTD/svg11.dtd" >
<svg xmlns="http://www.w3.org/2000/svg">
<metadata></metadata>
<defs>
<font id="zeroheavy" horiz-adv-x="1204" >
<font-face units-per-em="2048" ascent="1536" descent="-512" />
<missing-glyph horiz-adv-x="425" />
<glyph horiz-adv-x="0" />
<glyph unicode="&#xd;" horiz-adv-x="0" />
<glyph horiz-adv-x="0" />
<glyph horiz-adv-x="0" />
<glyph unicode=" "  horiz-adv-x="425" />
<glyph unicode="&#x09;" horiz-adv-x="425" />
<glyph unicode="&#xa0;" horiz-adv-x="425" />
<glyph unicode="!" horiz-adv-x="680" d="M111 186q0 48 16.5 86t46.5 65t72 41t94 14t94 -14t72 -40.5t46 -64.5t16 -86t-16.5 -86.5t-46.5 -65t-72 -41t-93 -14.5q-52 0 -94 14t-72 41t-46.5 65t-16.5 86zM140 450v1012h400v-964z" />
<glyph unicode="&#x22;" horiz-adv-x="880" d="M37 1432l369 51l-49 -623h-271zM473 1432l370 51l-50 -623h-270z" />
<glyph unicode="#" horiz-adv-x="1391" d="M36 381l36 258h204l29 209h-203l38 257h200l51 357h293l-50 -357h224l50 357h295l-50 -357h201l-35 -257h-204l-28 -209h202l-38 -258h-200l-55 -381h-293l54 381h-224l-54 -381h-293l54 381h-204zM569 639h224l29 209h-224z" />
<glyph unicode="$" horiz-adv-x="1201" d="M58 164l136 311q101 -57 208.5 -87t208.5 -30q60 0 94 20t34 51q0 25 -12 42.5t-39 33t-70.5 31t-105.5 36.5q-109 37 -189.5 75t-134 86t-79.5 112t-26 154q0 81 25.5 149.5t73.5 122t117 90.5t155 54v233h291v-224q104 -13 197 -41t171 -72l-136 -312q-85 50 -182.5 77 t-192.5 27q-54 0 -83.5 -17t-29.5 -47q0 -23 11.5 -39.5t36.5 -31t62.5 -28.5t90.5 -31q113 -37 198 -75.5t141.5 -88.5t85 -116t28.5 -156q0 -88 -26.5 -160.5t-77.5 -127.5t-125 -91t-169 -52v-228h-291v226q-217 24 -396 124z" />
<glyph unicode="%" horiz-adv-x="1527" d="M58 1137q0 79 22.5 143t64 109t100.5 69.5t133 24.5t133.5 -24t101 -69t64 -108.5t22.5 -142.5t-22.5 -143t-64 -109t-101 -69.5t-133.5 -24.5t-133 24t-100.5 69t-64 108.5t-22.5 142.5zM64 0l1063 1462h336l-1064 -1462h-335zM294 1139q0 -59 20 -93.5t64 -34.5 q45 0 65.5 34.5t20.5 93.5q0 57 -20.5 91.5t-65.5 34.5q-44 0 -64 -34.5t-20 -91.5zM829 322q0 79 22.5 143t64 109t100.5 69.5t133 24.5q73 0 132.5 -24t101 -69t64 -108.5t22.5 -142.5q0 -78 -22.5 -141.5t-64 -108.5t-101 -69.5t-132.5 -24.5q-74 0 -133 24t-100.5 68.5 t-64 108t-22.5 141.5zM1063 324q0 -58 21 -92.5t65 -34.5t64 34.5t20 92.5q0 57 -20 91.5t-64 34.5t-65 -34.5t-21 -91.5z" />
<glyph unicode="&#x26;" horiz-adv-x="1414" d="M58 412q0 67 19.5 128.5t55 115t85.5 97.5t112 76q-45 59 -75.5 122.5t-30.5 141.5q0 86 30 158t89.5 123.5t148 80t205.5 28.5q91 0 180.5 -20.5t167.5 -55.5l-141 -296q-35 23 -81.5 39.5t-103.5 16.5t-87 -26.5t-30 -65.5q0 -21 7 -39.5t18.5 -35.5t26.5 -33t30 -33 l273 -297q32 60 61 124t61 129l280 -172q-44 -87 -87 -169t-91 -157l228 -250l-322 -162l-135 148q-85 -69 -188 -108.5t-231 -39.5q-115 0 -203.5 29.5t-149 85t-91.5 136t-31 181.5zM418 442q0 -32 11.5 -57.5t32.5 -44t50.5 -28.5t64.5 -10q49 0 90.5 14.5t79.5 41.5 l-233 260q-48 -33 -72 -78.5t-24 -97.5z" />
<glyph unicode="'" horiz-adv-x="503" d="M37 1432l429 51l-49 -623h-330z" />
<glyph unicode="(" horiz-adv-x="713" d="M90 672q0 328 90.5 585t264.5 445l262 -213q-141 -143 -214 -346.5t-73 -470.5t73 -471t214 -346l-262 -213q-174 188 -264.5 445t-90.5 585z" />
<glyph unicode=")" horiz-adv-x="713" d="M6 -145q139 142 212.5 346t73.5 471t-73.5 470.5t-212.5 346.5l259 213q176 -188 267 -445t91 -585t-91 -585t-267 -445z" />
<glyph unicode="*" horiz-adv-x="830" d="M36 1095l77 234l194 -81l-16 214h247l-17 -209l197 81l76 -237l-204 -48l137 -160l-198 -147l-111 181l-112 -183l-198 147l135 158z" />
<glyph unicode="+" horiz-adv-x="1213" d="M60 384v324h385v385h324v-385h384v-324h-384v-384h-324v384h-385z" />
<glyph unicode="," horiz-adv-x="615" d="M60 210q0 54 17.5 97t50 73t78 46t101.5 16t101.5 -19t78 -52t50.5 -79t18 -100q0 -51 -15 -98.5t-38 -92.5l-133 -253l-245 30l124 216q-87 14 -137.5 68t-50.5 148z" />
<glyph unicode="-" horiz-adv-x="719" d="M60 358v377h599v-377h-599z" />
<glyph unicode="." horiz-adv-x="615" d="M60 210q0 54 17.5 97t50 73t78 46t101.5 16t102 -16t78.5 -45.5t50 -72.5t17.5 -97t-18 -97t-50.5 -73t-78 -46t-101.5 -16t-101.5 16t-78 45.5t-50 72.5t-17.5 97z" />
<glyph unicode="/" horiz-adv-x="952" d="M-180 -325l891 1996h335l-893 -1996h-333z" />
<glyph unicode="0" horiz-adv-x="1319" d="M81 727q0 177 35.5 317t107.5 237.5t180.5 149t254.5 51.5q147 0 255.5 -51t180.5 -148t107.5 -236.5t35.5 -316.5t-35.5 -316.5t-107.5 -236t-181 -148t-256 -51.5q-146 0 -254.5 51t-180 147t-107 235t-35.5 316zM490 730q0 -95 6.5 -173.5t25 -134.5t51 -86.5 t85.5 -30.5t86.5 30t52 85.5t25 133.5t6.5 174q0 95 -6.5 173.5t-25 134t-52 86t-86.5 30.5t-86 -30t-51 -85t-24.5 -133t-6.5 -174z" />
<glyph unicode="1" horiz-adv-x="800" d="M16 1051v355l658 77v-1483h-417v1079z" />
<glyph unicode="2" horiz-adv-x="1104" d="M6 1364q114 64 228.5 91t240.5 27q128 0 230.5 -25.5t174 -78.5t110 -134.5t38.5 -192.5q0 -86 -29.5 -169t-90.5 -143l-403 -396l540 12l-44 -355h-958v353l490 492q34 35 56 74.5t22 84.5q0 65 -43.5 100t-132.5 35q-80 0 -147.5 -24t-130.5 -74z" />
<glyph unicode="3" horiz-adv-x="1110" d="M-5 87l136 290q63 -41 133.5 -61t145.5 -20q95 0 150 36t55 108q0 63 -51.5 94.5t-132.5 31.5h-201v355h201q38 0 70 8t55 23t35.5 37.5t12.5 52.5q0 64 -49.5 93t-144.5 29q-75 0 -143.5 -17.5t-123.5 -55.5l-136 289q104 57 218.5 79.5t232.5 22.5q129 0 231.5 -24.5 t173.5 -74.5t108.5 -127t37.5 -182q0 -106 -53 -187.5t-147 -127.5q103 -50 161 -141t58 -206q0 -112 -42.5 -193.5t-118 -135t-180.5 -79.5t-229 -26q-125 0 -242.5 26t-220.5 83z" />
<glyph unicode="4" horiz-adv-x="1254" d="M37 274v295l559 893h452v-874l190 3l-44 -317h-146v-274h-405l11 274h-617zM408 576l255 4l13 441z" />
<glyph unicode="5" horiz-adv-x="1150" d="M37 95l136 289q63 -43 135.5 -65.5t156.5 -22.5q97 0 154.5 42.5t57.5 117.5q0 67 -55.5 101.5t-158.5 34.5h-378l99 870h848v-353h-483l-26 -196h113q107 0 191 -30.5t142.5 -86.5t89.5 -136.5t31 -179.5q0 -117 -38 -210.5t-112.5 -158t-183 -99t-249.5 -34.5 q-126 0 -248 27.5t-222 89.5z" />
<glyph unicode="6" horiz-adv-x="1247" d="M81 687q0 167 39 312t117 252.5t195.5 169t275.5 61.5q110 0 217 -21t212 -71l-137 -291q-64 32 -129 49.5t-140 17.5q-59 0 -100.5 -16.5t-70 -48t-45 -78t-23.5 -105.5q48 20 103.5 30t114.5 10q230 0 353.5 -119.5t123.5 -350.5q0 -118 -39.5 -212.5t-110.5 -160.5 t-170 -101.5t-218 -35.5q-159 0 -267.5 55t-175 150.5t-96 225t-29.5 278.5zM489 626q3 -79 9.5 -139.5t23 -102t46 -63t76.5 -21.5q41 0 68 13t43.5 37t23.5 57t7 73q0 81 -37 122.5t-118 41.5q-36 0 -72.5 -4.5t-69.5 -13.5z" />
<glyph unicode="7" horiz-adv-x="1117" d="M16 1101v361h1063v-353l-553 -1109h-487l598 1107z" />
<glyph unicode="8" horiz-adv-x="1307" d="M81 416q0 57 16.5 107.5t45 94.5t66.5 80t81 65q-33 29 -62.5 61t-51.5 69t-34.5 80t-12.5 94q0 98 37 175t105.5 130.5t165 81.5t216.5 28t217 -28t165.5 -81t105.5 -130t37 -175q0 -48 -13 -91.5t-35.5 -82t-52 -71.5t-62.5 -60q45 -32 83.5 -67t67 -76.5t44.5 -91.5 t16 -111q0 -104 -40.5 -185.5t-115.5 -138t-181 -86t-237 -29.5t-236.5 29.5t-179.5 85.5t-114.5 137.5t-40.5 185.5zM466 447q0 -69 50.5 -110.5t135.5 -41.5q36 0 67 8t53.5 23.5t35.5 38.5t13 53q0 33 -16.5 55.5t-45 39.5t-65.5 31t-79 30l-48 18q-20 -14 -38 -30 t-32 -34t-22.5 -38.5t-8.5 -42.5zM519 1063q0 -24 16 -43.5t42 -35.5t58 -29t65 -24l40 -14q25 26 45 55t20 63q0 57 -41 91.5t-112 34.5q-62 0 -97.5 -26.5t-35.5 -71.5z" />
<glyph unicode="9" horiz-adv-x="1246" d="M60 972q0 118 39.5 212.5t110.5 160.5t169.5 101.5t217.5 35.5q159 0 267.5 -55t175 -150.5t96 -225t29.5 -277.5q0 -167 -39 -312.5t-117 -253t-195.5 -169t-275.5 -61.5q-109 0 -216.5 21.5t-212.5 70.5l138 292q63 -32 128.5 -49.5t140.5 -17.5q58 0 100 16.5t70 48 t44.5 78t23.5 105.5q-48 -20 -103.5 -30.5t-114.5 -10.5q-230 0 -353 120t-123 350zM461 981q0 -81 36.5 -122.5t117.5 -41.5q75 0 143 17q-3 79 -10 140t-23.5 102.5t-46 63t-76.5 21.5q-41 0 -68 -13t-43 -37t-23 -57t-7 -73z" />
<glyph unicode=":" horiz-adv-x="657" d="M81 210q0 54 17.5 97t50 73t78 46t101.5 16t102 -16t78.5 -45.5t50 -72.5t17.5 -97t-18 -97t-50.5 -73t-78 -46t-101.5 -16t-101.5 16t-78 45.5t-50 72.5t-17.5 97zM81 882q0 54 17.5 97t50 73.5t78 46.5t101.5 16t102 -16t78.5 -46t50 -73t17.5 -97t-18 -96.5 t-50.5 -72.5t-78 -46t-101.5 -16t-101.5 16t-78 45.5t-50 72t-17.5 96.5z" />
<glyph unicode=";" horiz-adv-x="657" d="M81 210q0 54 17.5 97t50 73t78 46t101.5 16t101.5 -19t78 -52t50.5 -79t18 -100q0 -51 -15 -98.5t-38 -92.5l-133 -253l-245 30l124 216q-87 14 -137.5 68t-50.5 148zM81 882q0 54 17.5 97t50 73.5t78 46.5t101.5 16t101.5 -16t78 -46t50.5 -73t18 -97t-18 -96.5 t-50.5 -72.5t-78.5 -46t-102 -16t-101.5 16t-77.5 45.5t-49.5 72t-17.5 96.5z" />
<glyph unicode="&#x3c;" horiz-adv-x="1118" d="M70 356v382l967 387v-364l-664 -215l664 -205v-362z" />
<glyph unicode="=" horiz-adv-x="1255" d="M81 191v277h1093v-277h-1093zM81 625v277h1093v-277h-1093z" />
<glyph unicode="&#x3e;" horiz-adv-x="1118" d="M81 -31v362l664 214l-664 216v364l967 -388v-382z" />
<glyph unicode="?" horiz-adv-x="1053" d="M-4 1367q106 57 234 86.5t268 29.5q108 0 203 -27.5t165 -82t110.5 -135.5t40.5 -187q0 -87 -29 -157t-81 -123t-123.5 -88t-156.5 -53v-132l-399 -48v423q103 17 177 37.5t121 44t69 49t22 53.5q0 39 -27 66.5t-88 27.5q-95 0 -190.5 -24.5t-182.5 -71.5zM199 186 q0 48 16.5 86t46.5 65t72 41t94 14t94 -14t72 -40.5t46 -64.5t16 -86t-16.5 -86.5t-46.5 -65t-72 -41t-93 -14.5q-52 0 -94 14t-72 41t-46.5 65t-16.5 86z" />
<glyph unicode="@" horiz-adv-x="2000" d="M58 339q0 163 34.5 312t99 277t156.5 232t207 177.5t250.5 113.5t287.5 40q194 0 351 -50t267.5 -149t170.5 -245.5t60 -338.5q0 -146 -32.5 -270.5t-100 -216t-170 -143.5t-243.5 -52q-54 0 -103 11t-89.5 33t-70.5 54.5t-44 74.5q-21 -39 -47.5 -70.5t-59.5 -54.5 t-74 -35.5t-90 -12.5q-76 0 -134.5 27t-98 76.5t-59.5 119t-20 155.5q0 119 28.5 230t83 196.5t133 137t178.5 51.5q126 0 216 -60l358 60l-80 -565q-3 -24 -3 -44q0 -100 83 -100q39 0 67.5 17.5t48.5 47t33 68t20.5 80t10 83t2.5 77.5q0 139 -40.5 246t-118.5 180 t-192.5 110.5t-262.5 37.5q-172 0 -310.5 -69t-236.5 -189t-151 -281t-53 -345q0 -141 42 -249.5t121 -181.5t192.5 -110.5t255.5 -37.5q134 0 248.5 43t207.5 123l105 -224q-121 -87 -268 -132.5t-318 -45.5q-187 0 -342.5 50t-268 148t-175 244.5t-62.5 338.5zM865 501 q0 -60 24 -95.5t66 -35.5q19 0 34.5 4.5t29 12t25.5 18.5t25 24l34 241q-10 12 -19 23t-20 19t-25.5 12.5t-33.5 4.5q-34 0 -60 -20.5t-44 -53.5t-27 -73.5t-9 -80.5z" />
<glyph unicode="A" horiz-adv-x="1400" d="M-26 0l458 1462h535l459 -1462h-450l-62 237h-448l-62 -237h-430zM552 568h277l-138 533z" />
<glyph unicode="B" horiz-adv-x="1310" d="M120 0v1462h651q104 0 187 -26t141 -74t89 -116t31 -153q0 -65 -17.5 -121t-51 -101t-82 -77.5t-109.5 -50.5q137 -36 210 -127.5t73 -234.5q0 -91 -32 -162t-92.5 -119.5t-148 -74t-198.5 -25.5h-651zM545 330h157q57 0 91 34.5t34 91.5q0 55 -34 90t-91 35h-157v-251z M545 907h147q51 0 81 30.5t30 80.5q0 51 -30 82t-81 31h-147v-224z" />
<glyph unicode="C" horiz-adv-x="1157" d="M58 731q0 171 45 309.5t131.5 237t212.5 152t288 53.5q116 0 222 -24t194 -67l-149 -345q-53 29 -108.5 45.5t-118.5 16.5q-74 0 -128.5 -27t-91 -76.5t-54.5 -119.5t-18 -155q0 -86 18 -156t54.5 -119.5t91 -77t128.5 -27.5q63 0 118.5 17.5t108.5 45.5l149 -344 q-88 -44 -194 -67t-222 -23q-162 0 -288 53t-212.5 151t-131.5 237t-45 310z" />
<glyph unicode="D" horiz-adv-x="1467" d="M120 0v1462h535q177 0 317 -51.5t237 -147t148.5 -230.5t51.5 -302t-51 -302.5t-148 -230.5t-237 -146.5t-318 -51.5h-535zM545 352h115q83 0 144 26.5t101 76t59.5 119.5t19.5 157t-19.5 156.5t-59.5 119t-101 76t-144 26.5h-115v-757z" />
<glyph unicode="E" d="M120 0v1462h1006v-353h-581v-190h389v-352h-389v-215h581v-352h-1006z" />
<glyph unicode="F" horiz-adv-x="1152" d="M120 0v1462h1006v-353h-581v-190h389v-352h-389v-567h-425z" />
<glyph unicode="G" horiz-adv-x="1417" d="M58 731q0 173 48.5 312t140 237t222.5 150.5t297 52.5q127 0 239 -18.5t221 -64.5l-141 -318q-72 27 -145 39.5t-144 12.5q-75 0 -133.5 -31t-98.5 -85.5t-60.5 -128t-20.5 -158.5q0 -86 18 -159.5t55 -128t93 -85.5t131 -31q38 0 77.5 4t70.5 10v222h-197v312h596v-764 q-128 -63 -270.5 -97t-301.5 -34q-164 0 -293.5 52t-219 149.5t-137 236.5t-47.5 313z" />
<glyph unicode="H" horiz-adv-x="1501" d="M120 0v1462h425v-533h412v533h424v-1462h-424v559h-412v-559h-425z" />
<glyph unicode="I" horiz-adv-x="665" d="M120 0v1462h425v-1462h-425z" />
<glyph unicode="J" horiz-adv-x="679" d="M-82 -110q113 11 164.5 64t51.5 148v1360h425v-1360q0 -237 -116 -376.5t-360 -188.5z" />
<glyph unicode="K" horiz-adv-x="1415" d="M120 0v1462h425v-675l396 675h478l-447 -717l469 -745h-487l-409 698v-698h-425z" />
<glyph unicode="L" horiz-adv-x="1020" d="M120 0v1462h425v-1090h480v-372h-905z" />
<glyph unicode="M" horiz-adv-x="1820" d="M120 0v1462h416l375 -575l374 575h415v-1462h-421l10 790l-389 -600l-387 595l13 -785h-406z" />
<glyph unicode="N" horiz-adv-x="1548" d="M120 0v1462h443l479 -776l-12 776h398v-1462h-442l-483 779l14 -779h-397z" />
<glyph unicode="O" horiz-adv-x="1514" d="M58 731q0 172 48.5 311t139 237t219.5 151t291 53t291.5 -53t220.5 -151t139.5 -237t48.5 -311q0 -173 -48.5 -312t-139 -236.5t-220 -150t-292.5 -52.5q-162 0 -291 52.5t-219.5 150t-139 236.5t-48.5 312zM483 731q0 -92 16 -165.5t50 -124.5t85 -78.5t122 -27.5 t123 27.5t85.5 78.5t50 124.5t16.5 165.5q0 91 -16.5 164.5t-50 124.5t-85.5 78.5t-123 27.5t-122 -27.5t-85 -78.5t-50 -124.5t-16 -164.5z" />
<glyph unicode="P" horiz-adv-x="1279" d="M120 0v1462h629q112 0 203.5 -34t155.5 -97.5t99 -153.5t35 -201q0 -110 -35 -199.5t-99.5 -153t-156 -98t-205.5 -34.5h-201v-491h-425zM545 827h125q78 0 121.5 39.5t43.5 111.5q0 73 -43.5 111.5t-121.5 38.5h-125v-301z" />
<glyph unicode="Q" horiz-adv-x="1514" d="M58 731q0 172 48.5 311t139 237t219.5 151t291 53t291.5 -53t220.5 -151t139.5 -237t48.5 -311q0 -220 -76.5 -383t-219.5 -257l296 -358l-438 -132l-222 380q-11 -1 -20.5 -1h-19.5q-162 0 -291 52.5t-219.5 150t-139 236.5t-48.5 312zM483 731q0 -92 16 -165.5 t50 -124.5t85 -78.5t122 -27.5t123 27.5t85.5 78.5t50 124.5t16.5 165.5q0 91 -16.5 164.5t-50 124.5t-85.5 78.5t-123 27.5t-122 -27.5t-85 -78.5t-50 -124.5t-16 -164.5z" />
<glyph unicode="R" horiz-adv-x="1318" d="M120 0v1462h629q112 0 203.5 -32t155.5 -92t99 -146.5t35 -194.5q0 -78 -18.5 -145t-53.5 -122.5t-85 -98t-112 -70.5l339 -561h-450l-296 513h-21v-513h-425zM545 827h125q78 0 121.5 39.5t43.5 111.5q0 73 -43.5 111.5t-121.5 38.5h-125v-301z" />
<glyph unicode="S" horiz-adv-x="1187" d="M51 104l123 330q100 -53 208 -83t210 -30q60 0 95 23.5t35 61.5q0 30 -13 49.5t-41.5 36t-73 33.5t-107.5 42q-102 40 -179 81t-128 92.5t-77 119.5t-26 162q0 113 41 199t112 144.5t166.5 88t205.5 29.5q144 0 265 -29t236 -87l-123 -332q-92 50 -185.5 77.5 t-184.5 27.5q-56 0 -86.5 -22.5t-30.5 -54.5q0 -27 12 -46.5t37.5 -35.5t65 -31.5t94.5 -36.5q108 -41 189.5 -82.5t136 -94.5t81.5 -122.5t27 -165.5q0 -118 -41.5 -205.5t-114 -146t-171 -87.5t-211.5 -29q-155 0 -289.5 30.5t-257.5 93.5z" />
<glyph unicode="T" horiz-adv-x="1138" d="M-5 1109v353h1148v-353h-361v-1109h-426v1109h-361z" />
<glyph unicode="U" horiz-adv-x="1451" d="M100 562v900h425v-900q0 -109 47.5 -167.5t151.5 -58.5q105 0 153.5 58.5t48.5 167.5v900h425v-900q0 -140 -41.5 -248.5t-121.5 -182.5t-197 -112.5t-267 -38.5t-266 38.5t-195.5 112.5t-121 182.5t-41.5 248.5z" />
<glyph unicode="V" horiz-adv-x="1370" d="M-26 1462h456l265 -1001l263 1001h438l-448 -1462h-527z" />
<glyph unicode="W" horiz-adv-x="1980" d="M-15 1462h457l127 -856l241 856h374l242 -856l128 856h441l-360 -1462h-420l-226 798l-223 -798h-420z" />
<glyph unicode="X" horiz-adv-x="1370" d="M-26 0l447 743l-433 719h488l220 -412l220 412h462l-430 -719l448 -743h-488l-239 437l-240 -437h-455z" />
<glyph unicode="Y" horiz-adv-x="1387" d="M-68 1462h497l274 -548l274 548h478l-549 -932v-530h-426v530z" />
<glyph unicode="Z" horiz-adv-x="1226" d="M78 0v366l573 754l-573 -11v353h1070v-359l-573 -753l573 10v-360h-1070z" />
<glyph unicode="[" horiz-adv-x="756" d="M136 -325v1996h582v-275h-254v-1448h254v-273h-582z" />
<glyph unicode="\" horiz-adv-x="1039" d="M-49 1671h333l893 -1996h-335z" />
<glyph unicode="]" horiz-adv-x="756" d="M37 -52h253v1448h-253v275h583v-1996h-583v273z" />
<glyph unicode="^" horiz-adv-x="989" d="M16 855l306 607h345l306 -607h-327l-150 332l-151 -332h-329z" />
<glyph unicode="_" horiz-adv-x="1237" d="M16 -111h1205v-264h-1205v264z" />
<glyph unicode="`" horiz-adv-x="1374" d="M369 1516l424 56l202 -345l-295 -39z" />
<glyph unicode="a" horiz-adv-x="1151" d="M49 308q0 89 33 154.5t96.5 111.5t155.5 72.5t210 37.5l120 11v33q0 45 -36 63t-102 18q-80 0 -160.5 -21.5t-151.5 -61.5l-126 271q103 58 231.5 88t268.5 30q238 0 357.5 -100t119.5 -306v-532q0 -39 2 -85t9 -92h-375l-17 87q-61 -51 -141.5 -79.5t-179.5 -28.5 q-71 0 -129 23t-99 65.5t-63.5 103.5t-22.5 137zM439 347q0 -32 25.5 -50t61.5 -18q41 0 78 21t60 56v106l-78 -8q-147 -15 -147 -107z" />
<glyph unicode="b" horiz-adv-x="1212" d="M103 0v1525l402 50v-549q46 38 101.5 63.5t129.5 25.5q99 0 176.5 -41.5t130.5 -116.5t81 -180t28 -232q0 -126 -28 -230t-81 -178.5t-130.5 -116t-176.5 -41.5q-39 0 -73.5 8.5t-66 22.5t-59.5 32.5t-55 38.5v-81h-379zM505 408q24 -30 50 -47.5t71 -17.5 q27 0 50.5 14.5t40.5 41t26.5 63.5t9.5 83q0 47 -9.5 85t-26.5 65t-40.5 41.5t-50.5 14.5q-45 0 -71 -18.5t-50 -47.5v-277z" />
<glyph unicode="c" horiz-adv-x="966" d="M49 547q0 140 42.5 246t118 177.5t180 108t228.5 36.5q95 0 182 -26.5t161 -68.5l-146 -311q-33 23 -74 40t-90 17q-91 0 -137 -59t-46 -160q0 -49 11.5 -89.5t34.5 -69t57.5 -44t79.5 -15.5q49 0 90 17t74 40l146 -314q-74 -40 -161 -66.5t-182 -26.5 q-124 0 -228.5 36.5t-180 108.5t-118 178t-42.5 245z" />
<glyph unicode="d" horiz-adv-x="1212" d="M60 545q0 127 28 232t81 180t130.5 116.5t176.5 41.5q72 0 128.5 -25.5t102.5 -63.5v499l402 50v-1575h-382v81q-26 -20 -53.5 -38.5t-58.5 -32.5t-65.5 -22.5t-73.5 -8.5q-99 0 -176.5 41.5t-130.5 116t-81 178.5t-28 230zM459 545q0 -92 35 -147t92 -55q44 0 70 17.5 t51 47.5v277q-25 29 -51 47.5t-70 18.5q-28 0 -51.5 -14.5t-40 -41.5t-26 -65t-9.5 -85z" />
<glyph unicode="e" horiz-adv-x="1158" d="M49 541q0 133 39 239t111 180.5t173 114.5t224 40q126 0 221.5 -45t160 -123t97 -181.5t32.5 -220.5q0 -21 -1 -45t-3 -53h-642q8 -81 58.5 -122.5t144.5 -41.5q81 0 146 24t126 72l131 -279q-99 -64 -211.5 -92.5t-237.5 -28.5q-124 0 -228.5 35.5t-180 106t-118 176 t-42.5 244.5zM459 695h250q-6 72 -34.5 108t-88.5 36q-118 0 -127 -144z" />
<glyph unicode="f" horiz-adv-x="832" d="M16 761v332h165v109q0 86 22.5 155t68.5 117.5t117 74.5t167 26q95 0 177.5 -18.5t159.5 -56.5l-107 -306q-29 17 -60 25.5t-68 8.5q-38 0 -57 -23.5t-19 -65.5v-46h251l-44 -332h-207v-761h-401v761h-165z" />
<glyph unicode="g" horiz-adv-x="1203" d="M60 -360l131 279q63 -46 143.5 -71t161.5 -25q100 0 156.5 41t56.5 117v104q-45 -36 -102 -61.5t-129 -25.5q-99 0 -176.5 40t-130.5 113t-81 176t-28 229t28 229t81 176.5t130.5 113.5t176.5 40q39 0 74 -8.5t65.5 -23t58.5 -33t54 -38.5v54l381 49v-1061 q0 -272 -144 -404t-427 -132q-134 0 -257 29.5t-223 92.5zM461 556q0 -94 35 -144t92 -50q44 0 70.5 18t50.5 45v260q-24 29 -50.5 47.5t-70.5 18.5q-57 0 -92 -50.5t-35 -144.5z" />
<glyph unicode="h" horiz-adv-x="1214" d="M103 0v1525l402 50v-555q58 40 125.5 67.5t151.5 27.5t149.5 -27t110 -77t68 -120t23.5 -156v-735h-401v652q0 48 -22.5 75.5t-65.5 27.5q-44 0 -79.5 -22.5t-59.5 -51.5v-681h-402z" />
<glyph unicode="i" horiz-adv-x="588" d="M66 1371q0 47 16 85t46 64.5t72 40.5t93 14q52 0 94 -14t72 -40.5t46 -64t16 -84.5t-16.5 -85t-46.5 -64.5t-72 -40.5t-93 -14t-93 14t-72 40t-46 64t-16 85zM93 0v1066l402 49v-1115h-402z" />
<glyph unicode="j" horiz-adv-x="588" d="M-107 -129q105 10 152.5 53.5t47.5 129.5v1012l402 49v-1069q0 -111 -25 -199.5t-78 -154t-135 -109t-197 -65.5zM66 1371q0 47 16 85t46 64.5t72 40.5t93 14q52 0 94 -14t72 -40.5t46 -64t16 -84.5t-16.5 -85t-46.5 -64.5t-72 -40.5t-93 -14t-93 14t-72 40t-46 64 t-16 85z" />
<glyph unicode="k" horiz-adv-x="1210" d="M103 0v1525l402 50v-953l250 471h441l-304 -517l335 -576h-474l-248 526v-526h-402z" />
<glyph unicode="l" horiz-adv-x="608" d="M103 0v1525l402 50v-1575h-402z" />
<glyph unicode="m" horiz-adv-x="1799" d="M93 0v1066l379 49v-108q33 21 69 40.5t75 34.5t81 24t87 9q85 0 151 -27.5t111 -77.5q66 42 147.5 73.5t170.5 31.5q85 0 151 -27t111 -77t68 -120t23 -156v-735h-401v652q0 48 -19.5 75.5t-61.5 27.5q-46 0 -76 -22.5t-55 -51.5v-681h-401v652q0 48 -19 75.5t-62 27.5 q-44 0 -74 -22.5t-54 -51.5v-681h-401z" />
<glyph unicode="n" horiz-adv-x="1203" d="M93 0v1066l379 49v-108q30 20 63 39.5t69.5 34.5t75 24.5t79.5 9.5q84 0 151.5 -27t114 -77t71.5 -120t25 -156v-735h-400v652q0 48 -22.5 75.5t-64.5 27.5q-45 0 -80.5 -22.5t-59.5 -51.5v-681h-401z" />
<glyph unicode="o" horiz-adv-x="1190" d="M49 545q0 137 39 243t110.5 179t172 110.5t223.5 37.5t224 -37.5t173 -109.5t111.5 -178t39.5 -243t-39.5 -242.5t-111.5 -178t-173 -110t-224 -37.5q-124 0 -224.5 37t-172 109t-110 177.5t-38.5 242.5zM448 545q0 -53 7 -96t24 -73.5t45 -47t70 -16.5t70 16.5t45 47 t24 73.5t7 96q0 52 -7 95t-24 73t-45 46.5t-70 16.5t-70 -16t-45 -46t-24 -73t-7 -96z" />
<glyph unicode="p" horiz-adv-x="1212" d="M103 -460v1526l379 49v-103q27 20 55 38.5t59.5 33t66 23t73.5 8.5q99 0 176.5 -41.5t130.5 -116.5t81 -179.5t28 -230.5t-28 -230.5t-81 -179.5t-130.5 -116.5t-176.5 -41.5q-74 0 -129.5 25t-101.5 63v-527h-402zM505 408q24 -30 50 -47.5t71 -17.5q27 0 50.5 14.5 t40.5 41t26.5 64t9.5 84.5q0 46 -9.5 83.5t-26.5 64.5t-40.5 41.5t-50.5 14.5q-45 0 -71 -18.5t-50 -47.5v-277z" />
<glyph unicode="q" horiz-adv-x="1212" d="M60 547q0 126 28 230.5t81 179.5t130.5 116.5t176.5 41.5q39 0 73.5 -8.5t65.5 -23t58.5 -33t53.5 -38.5v54l382 49v-1575h-402v527q-46 -38 -102.5 -63t-128.5 -25q-99 0 -176.5 41.5t-130.5 116.5t-81 179.5t-28 230.5zM459 547q0 -47 9.5 -84.5t26 -64t40 -41 t51.5 -14.5q44 0 70 17.5t51 47.5v277q-25 29 -51 47.5t-70 18.5q-28 0 -51.5 -14.5t-40 -41.5t-26 -64.5t-9.5 -83.5z" />
<glyph unicode="r" horiz-adv-x="854" d="M93 0v1066l379 49v-108q53 52 125.5 80t159.5 28q22 0 45.5 -2t46.5 -5l-61 -452q-28 26 -67.5 38.5t-74.5 12.5q-45 0 -85 -22.5t-67 -58.5v-626h-401z" />
<glyph unicode="s" horiz-adv-x="1041" d="M46 80l112 287q77 -47 169 -73t176 -26q41 0 63 12.5t22 32.5q0 14 -7 23.5t-23.5 18t-43.5 16.5t-67 19q-95 26 -167.5 54t-121 67t-73.5 95t-25 137q0 86 31.5 154.5t91 116t144 73t189.5 25.5q130 0 245 -21.5t212 -66.5l-116 -287q-72 41 -155.5 63.5t-162.5 22.5 q-36 0 -54.5 -12t-18.5 -29q0 -13 7 -23t23.5 -18.5t43.5 -17.5t66 -19q94 -26 167.5 -54t123 -67t75.5 -94.5t26 -136.5q0 -90 -33 -159.5t-94.5 -117t-149.5 -72t-197 -24.5q-135 0 -254 23.5t-224 77.5z" />
<glyph unicode="t" horiz-adv-x="894" d="M16 761v332h164v274l401 51v-325h251l-44 -332h-207v-337q0 -42 19 -65.5t57 -23.5q71 0 128 34l108 -315q-78 -38 -160.5 -56.5t-176.5 -18.5q-97 0 -167.5 26t-117 74.5t-69 117.5t-22.5 155v409h-164z" />
<glyph unicode="u" horiz-adv-x="1205" d="M82 358v708l401 49v-674q0 -48 22 -75.5t64 -27.5q45 0 81 22.5t60 53.5v652l402 49v-1115h-381v85q-30 -20 -63 -39t-69 -34t-75 -24t-80 -9q-85 0 -152.5 27t-114 76.5t-71 119.5t-24.5 156z" />
<glyph unicode="v" horiz-adv-x="1203" d="M-21 1093h466l164 -624l171 624h445l-410 -1093h-426z" />
<glyph unicode="w" horiz-adv-x="1726" d="M-5 1093h448l87 -554l188 554h310l185 -558l90 558h430l-302 -1093h-395l-173 543l-173 -543h-395z" />
<glyph unicode="x" horiz-adv-x="1147" d="M-17 0l318 547l-300 546h440l137 -294l138 294h430l-299 -517l316 -576h-438l-157 333l-155 -333h-430z" />
<glyph unicode="y" d="M-21 1093h467l163 -664l171 664h445l-466 -1239q-26 -69 -62.5 -124t-87 -96.5t-118 -70.5t-154.5 -45l-167 353q48 5 81.5 13t57 24t39.5 42.5t30 67.5l4 12z" />
<glyph unicode="z" horiz-adv-x="1075" d="M78 0v314l413 453l-413 -11v337h906v-314l-413 -453l458 11l-44 -337h-907z" />
<glyph unicode="{" horiz-adv-x="702" d="M16 527v289q85 8 125.5 43t40.5 107v309q0 90 19.5 161.5t61.5 124.5t108.5 88.5t159.5 52.5l134 -286q-85 -8 -126 -43t-41 -107v-310q0 -69 -11 -116.5t-34.5 -79.5t-60.5 -52.5t-89 -35.5q52 -15 89 -35.5t60.5 -53t34.5 -80t11 -116.5v-310q0 -71 41 -105.5 t126 -42.5l-134 -287q-93 17 -159.5 52.5t-108.5 89t-61.5 125.5t-19.5 162v310q0 71 -40.5 104.5t-125.5 41.5z" />
<glyph unicode="|" horiz-adv-x="553" d="M125 -325v1996h303v-1996h-303z" />
<glyph unicode="}" horiz-adv-x="702" d="M36 -71q86 8 126 42.5t40 105.5v310q0 69 11.5 116.5t35.5 80t61 53t89 35.5q-52 15 -89 35.5t-61 52.5t-35.5 79.5t-11.5 116.5v310q0 72 -40 107t-126 43l137 286q93 -17 158.5 -52.5t107 -88.5t61 -124.5t19.5 -161.5v-309q0 -72 41 -107t126 -43v-289 q-85 -8 -126 -41.5t-41 -104.5v-310q0 -90 -19.5 -162t-61 -125.5t-107 -89t-158.5 -52.5z" />
<glyph unicode="~" horiz-adv-x="1303" d="M16 615q104 93 204 133.5t200 40.5q87 0 173 -29.5t171 -83.5q37 -23 71.5 -34.5t69.5 -11.5q60 0 114 32t100 94l168 -275q-106 -94 -207 -135.5t-201 -41.5q-87 0 -171.5 30t-169.5 84q-75 46 -145 46q-116 0 -214 -125z" />
<glyph unicode="&#xa1;" horiz-adv-x="680" d="M111 865q0 48 16.5 86t46.5 65t72 41t94 14t94 -14t72 -40.5t46 -64.5t16 -86t-16.5 -86.5t-46.5 -65t-72 -41t-93 -14.5q-52 0 -94 14t-72 41t-46.5 65t-16.5 86zM140 -412v965l400 48v-1013h-400z" />
<glyph unicode="&#xa2;" horiz-adv-x="998" d="M49 600q0 103 24.5 189t71 153.5t113.5 116t151 75.5v260h302v-231q78 -9 150 -32t133 -57l-145 -315q-36 26 -82 42.5t-99 16.5q-50 0 -87.5 -16t-62.5 -45t-37.5 -69t-12.5 -88t12.5 -88.5t37.5 -69.5t62.5 -45t87.5 -16q53 0 99 17t82 43l145 -314q-63 -35 -134 -58.5 t-149 -31.5v-231h-302v259q-84 27 -151 75.5t-113.5 116t-71 154t-24.5 189.5z" />
<glyph unicode="&#xa3;" horiz-adv-x="1171" d="M36 597l32 295h151l17 161q10 91 43.5 170t91 136.5t139 90.5t187.5 33q91 0 183.5 -17t170.5 -49l-88 -312q-40 23 -85 33.5t-95 10.5q-43 0 -73.5 -14t-51 -39t-32 -60t-15.5 -77l-7 -67h297l-81 -295h-249l-29 -279h635l-42 -318h-1013l64 597h-150z" />
<glyph unicode="&#xa4;" horiz-adv-x="1168" d="M16 380l157 160q-37 86 -37 191q0 106 37 192l-157 160l218 216l157 -158q87 38 192 38q109 0 194 -38l157 158l218 -216l-156 -160q34 -83 34 -192q0 -52 -8.5 -100.5t-25.5 -90.5l156 -160l-218 -215l-157 156q-86 -37 -194 -37q-104 0 -192 37l-157 -156zM418 731 q0 -37 12.5 -67.5t34 -53t52 -35t66.5 -12.5q37 0 68 12.5t53 35t34.5 53t12.5 67.5t-12.5 68t-34.5 53.5t-53 35t-68 12.5q-36 0 -66.5 -12.5t-52 -35t-34 -53.5t-12.5 -68z" />
<glyph unicode="&#xa5;" horiz-adv-x="1343" d="M-36 1462h456l262 -501l259 501h438l-466 -761h282v-295h-322v-406h-401v406h-324v295h285z" />
<glyph unicode="&#xa6;" horiz-adv-x="553" d="M125 -325v860h303v-860h-303zM125 809v862h303v-862h-303z" />
<glyph unicode="&#xa7;" horiz-adv-x="1173" d="M58 482q0 110 43.5 193.5t126.5 137.5q-65 48 -95.5 112.5t-30.5 157.5q0 94 35 169.5t99.5 128.5t157 81.5t208.5 28.5q138 0 252.5 -28t214.5 -83l-119 -275q-84 47 -172.5 72t-179.5 25q-36 0 -61 -6.5t-40 -17.5t-22 -25t-7 -28q0 -28 13.5 -47.5t40.5 -35.5 t66.5 -30.5t91.5 -31.5q111 -37 192.5 -77t135.5 -90.5t80.5 -115.5t26.5 -150q0 -111 -42.5 -194t-125.5 -137q63 -50 94.5 -113.5t31.5 -156.5q0 -95 -35 -170.5t-100 -128.5t-158 -81.5t-209 -28.5q-136 0 -251 28.5t-216 82.5l122 274q83 -45 171 -70.5t178 -25.5 q36 0 61 7t41 18t23 25t7 28q0 27 -14 46.5t-41 35.5t-66.5 30.5t-91.5 31.5q-111 36 -193 76.5t-136 91.5t-80.5 115.5t-26.5 150.5zM424 526q0 -34 15 -59t42 -44.5t66 -36t87 -32.5q52 20 83.5 54.5t31.5 94.5q0 34 -14.5 58.5t-41.5 44t-66 35.5t-87 33 q-53 -20 -84.5 -54.5t-31.5 -93.5z" />
<glyph unicode="&#xa8;" horiz-adv-x="1374" d="M256 1379q0 40 14 72.5t39.5 55.5t61 35t79.5 12q88 0 141 -46.5t53 -128.5q0 -41 -14 -73t-39.5 -55t-61 -35t-79.5 -12q-88 0 -141 46.5t-53 128.5zM729 1379q0 40 14 72.5t39.5 55.5t61 35t79.5 12q88 0 141.5 -46.5t53.5 -128.5q0 -41 -14 -73t-39.5 -55t-61.5 -35 t-80 -12q-88 0 -141 46.5t-53 128.5z" />
<glyph unicode="&#xa9;" horiz-adv-x="1730" d="M58 731q0 115 28 219.5t79 194.5t123.5 162.5t162.5 124t194.5 79.5t220.5 28q115 0 219.5 -28t194 -79.5t162 -124t124 -162.5t79 -194.5t27.5 -219.5q0 -173 -61 -321t-169 -256.5t-255.5 -170t-320.5 -61.5q-115 0 -220 28t-195 79.5t-162.5 124t-123.5 162.5t-79 195 t-28 220zM236 731q0 -136 47 -251.5t131 -199.5t199.5 -131t252.5 -47q136 0 251.5 47t199.5 131t131 199.5t47 251.5t-47 251t-131 199t-199.5 131t-251.5 47q-137 0 -252.5 -47t-199.5 -131t-131 -199t-47 -251zM362 731q0 122 39.5 219.5t110 165.5t166.5 104.5t209 36.5 q98 0 186 -33.5t156 -86.5l-158 -264q-32 30 -73 50t-92 20q-43 0 -78 -15.5t-59.5 -44t-38 -67.5t-13.5 -85q0 -47 13.5 -85.5t38 -67t59.5 -44t78 -15.5q51 0 92 20.5t73 48.5l158 -264q-68 -51 -156 -83.5t-186 -32.5q-113 0 -209 36t-166.5 103.5t-110 164.5t-39.5 219z " />
<glyph unicode="&#xaa;" horiz-adv-x="721" d="M58 1041q0 94 69.5 147.5t212.5 62.5l64 4v14q0 40 -74 40q-44 0 -88 -12.5t-90 -35.5l-74 156q59 34 133 50t153 16q272 0 272 -224v-290q0 -26 1.5 -52.5t4.5 -49.5h-214l-12 46q-36 -29 -81 -42.5t-97 -13.5q-82 0 -131 49t-49 135zM280 1059q0 -17 14.5 -24.5 t31.5 -7.5q22 0 42.5 10t35.5 28v54l-42 -4q-43 -4 -62.5 -18t-19.5 -38z" />
<glyph unicode="&#xab;" horiz-adv-x="973" d="M16 545l238 436h297l-221 -436l221 -437h-297zM421 545l239 436h297l-222 -436l222 -437h-297z" />
<glyph unicode="&#xac;" horiz-adv-x="1234" d="M60 384v324h1093v-708h-327v384h-766z" />
<glyph unicode="&#xad;" horiz-adv-x="719" d="M60 358v377h599v-377h-599z" />
<glyph unicode="&#xae;" horiz-adv-x="851" d="M58 1117q0 79 27 146.5t75.5 116t116 76t147.5 27.5q81 0 149 -27.5t116.5 -76t76 -116t27.5 -146.5q0 -81 -27.5 -149t-76 -117t-116.5 -76.5t-149 -27.5q-80 0 -147.5 27.5t-116 76.5t-75.5 117t-27 149zM146 1117q0 -63 20 -115t57 -89t88 -57.5t113 -20.5 q63 0 115 20.5t88.5 57.5t57 89t20.5 115q0 61 -20.5 112.5t-57 88t-88.5 57t-115 20.5q-62 0 -113 -20.5t-88 -57t-57 -88t-20 -112.5zM263 919v400h189q64 0 103 -34t39 -94q0 -41 -20.5 -72t-57.5 -46l97 -154h-132l-84 138h-6v-138h-128zM391 1147h37q21 0 32.5 11.5 t11.5 28.5q0 38 -44 38h-37v-78z" />
<glyph unicode="&#xaf;" horiz-adv-x="1374" d="M302 1259v240h769v-240h-769z" />
<glyph unicode="&#xb0;" horiz-adv-x="675" d="M58 1205q0 61 20.5 112.5t57 88t88 57t114.5 20.5q62 0 113.5 -20.5t88 -57t57 -88t20.5 -112.5q0 -63 -20.5 -115t-57 -89t-88 -57.5t-113.5 -20.5q-63 0 -114.5 20.5t-88 57.5t-57 89t-20.5 115zM208 1205q0 -29 10 -52.5t27 -41t41 -27t52 -9.5t51.5 9.5t40.5 27 t26.5 41t9.5 52.5q0 27 -9.5 50t-26.5 40.5t-40.5 27t-51.5 9.5t-52 -9.5t-41 -27t-27 -40.5t-10 -50z" />
<glyph unicode="&#xb1;" horiz-adv-x="1255" d="M81 0v266h1093v-266h-1093zM81 577v292h385v224h325v-224h383v-292h-383v-224h-325v224h-385z" />
<glyph unicode="&#xb2;" horiz-adv-x="700" d="M6 1401q72 36 148.5 55.5t157.5 19.5q161 0 245.5 -55t84.5 -170q0 -59 -25.5 -106t-74.5 -80l-172 -116l283 4l-28 -222h-577v220l274 204q17 12 26.5 26.5t9.5 34.5q0 23 -22.5 36t-61.5 13q-43 0 -83.5 -11t-78.5 -37z" />
<glyph unicode="&#xb3;" horiz-adv-x="667" d="M6 771l96 176q35 -15 72 -21.5t78 -6.5q51 0 81.5 13.5t30.5 36.5q0 24 -28 35t-73 11h-105v180h105q43 0 69 11.5t26 32.5q0 23 -27.5 33.5t-78.5 10.5q-82 0 -144 -28l-96 167q63 28 131 41t137 13q77 0 138 -12.5t103.5 -38.5t65 -65t22.5 -91t-32 -94t-88 -66 q62 -23 96 -69.5t34 -103.5q0 -56 -25.5 -97.5t-70.5 -68.5t-107 -40.5t-136 -13.5t-143 13t-131 42z" />
<glyph unicode="&#xb4;" horiz-adv-x="1374" d="M379 1227l202 345l424 -56l-331 -328z" />
<glyph unicode="&#xb5;" horiz-adv-x="1225" d="M103 -460v1526l402 49v-674q0 -48 21.5 -75.5t63.5 -27.5q46 0 81.5 22.5t60.5 53.5v652l401 49v-1115h-382v85q-54 -36 -112.5 -60.5t-133.5 -24.5v-460h-402z" />
<glyph unicode="&#xb6;" horiz-adv-x="1283" d="M36 1127q0 78 26 140t73 105.5t112.5 66.5t145.5 23h768v-1904h-290v1639h-143v-1639h-291v1235h-44q-80 0 -145.5 23t-112.5 66t-73 105t-26 140z" />
<glyph unicode="&#xb7;" horiz-adv-x="569" d="M37 545q0 54 17.5 97t50 73.5t78 46.5t101.5 16t102 -16t78.5 -46t50 -73t17.5 -97t-18 -96.5t-50.5 -72.5t-78 -46t-101.5 -16t-101.5 16t-78 45.5t-50 72t-17.5 96.5z" />
<glyph unicode="&#xb8;" horiz-adv-x="1374" d="M429 -456l37 174q37 -25 78.5 -39.5t88.5 -14.5q37 0 61 13t24 44q0 24 -17 37t-47 13h-177l52 242h198l-19 -89q56 0 100 -15t74 -41.5t46 -64t16 -82.5q0 -52 -21 -94t-59 -71.5t-91.5 -45.5t-119.5 -16q-121 0 -224 50z" />
<glyph unicode="&#xb9;" horiz-adv-x="486" d="M16 1215v222l392 35v-741h-248v496z" />
<glyph unicode="&#xba;" horiz-adv-x="735" d="M58 1169q0 73 21.5 131t62 98.5t98 62.5t128.5 22q73 0 130.5 -21.5t97.5 -62t61 -98t21 -130.5q0 -74 -21.5 -132t-62 -98.5t-98 -62t-128.5 -21.5q-73 0 -130.5 21t-97.5 61.5t-61 98t-21 131.5zM294 1169q0 -60 17.5 -89t56.5 -29q73 0 73 118q0 116 -73 116 q-39 0 -56.5 -27t-17.5 -89z" />
<glyph unicode="&#xbb;" horiz-adv-x="973" d="M16 108l222 437l-222 436h297l238 -436l-238 -437h-297zM418 108l222 437l-222 436h300l239 -436l-239 -437h-300z" />
<glyph unicode="&#xbc;" horiz-adv-x="1487" d="M-16 0l1067 1462h334l-1065 -1462h-336zM54 1215v222l391 35v-741h-247v496zM741 138v149l328 444h272v-411l110 2l-28 -184h-82v-138h-232l2 138h-370zM1005 316l112 2l4 176z" />
<glyph unicode="&#xbd;" horiz-adv-x="1563" d="M-16 0l1067 1462h334l-1065 -1462h-336zM54 1215v222l391 35v-741h-247v496zM847 670q72 36 149 55.5t157 19.5q161 0 246 -55.5t85 -170.5t-101 -184l-172 -117l284 4l-28 -222h-578v220l274 205q16 12 26 27.5t10 31.5q0 23 -22.5 36.5t-61.5 13.5q-42 0 -82 -11.5 t-78 -36.5z" />
<glyph unicode="&#xbe;" horiz-adv-x="1588" d="M26 771l96 176q35 -15 72.5 -21.5t79.5 -6.5q50 0 80 13.5t30 36.5q0 24 -28 35t-72 11h-104v180h104q42 0 68 11.5t26 32.5q0 23 -27 33.5t-77 10.5q-83 0 -145 -28l-97 167q63 28 131 41t138 13q154 0 241 -51t87 -156q0 -52 -32 -94t-87 -66q62 -23 96 -69.5 t34 -103.5q0 -56 -25.5 -97.5t-70.5 -68.5t-107 -40.5t-136 -13.5q-75 0 -144 13t-131 42zM86 0l1065 1462h335l-1066 -1462h-334zM843 138v149l326 444h273v-411l109 2l-27 -184h-82v-138h-233l4 138h-370zM1105 316l113 2l7 176z" />
<glyph unicode="&#xbf;" horiz-adv-x="971" d="M36 -2q0 88 29 158.5t80.5 123.5t122.5 88.5t156 52.5v132l401 48v-417q-103 -17 -176.5 -37.5t-120.5 -43.5t-69 -49t-22 -54q0 -39 26 -66.5t89 -27.5q94 0 189.5 25.5t183.5 70.5l134 -318q-106 -57 -234 -86t-271 -29q-107 0 -201.5 27.5t-165 82t-111 134.5 t-40.5 185zM396 865q0 48 16.5 86t46.5 65t72 41t94 14t94 -14t72 -40.5t46 -64.5t16 -86t-16.5 -86.5t-46.5 -65t-72 -41t-93 -14.5q-52 0 -94 14t-72 41t-46.5 65t-16.5 86z" />
<glyph unicode="&#xc0;" horiz-adv-x="1400" d="M-26 0l458 1462h535l459 -1462h-450l-62 237h-448l-62 -237h-430zM294 1865l424 56l202 -345l-295 -39zM552 568h277l-138 533z" />
<glyph unicode="&#xc1;" horiz-adv-x="1400" d="M-26 0h430l62 237h448l62 -237h450l-459 1462h-535zM479 1576l202 345l424 -56l-331 -328zM552 568l139 533l138 -533h-277z" />
<glyph unicode="&#xc2;" horiz-adv-x="1400" d="M-26 0l458 1462h535l459 -1462h-450l-62 237h-448l-62 -237h-430zM262 1576l232 318h409l232 -318l-295 -39l-141 186l-142 -186zM552 568h277l-138 533z" />
<glyph unicode="&#xc3;" horiz-adv-x="1400" d="M-26 0l458 1462h535l459 -1462h-450l-62 237h-448l-62 -237h-430zM257 1774q147 132 294 132q112 0 235 -76q40 -25 82 -25q44 0 84 25t72 68l119 -220q-146 -131 -294 -131q-115 0 -236 75q-40 25 -82 25q-44 0 -83.5 -25t-72.5 -68zM552 568h277l-138 533z" />
<glyph unicode="&#xc4;" horiz-adv-x="1400" d="M-26 0l458 1462h535l459 -1462h-450l-62 237h-448l-62 -237h-430zM268 1727q0 40 14 72.5t39.5 55.5t61 35t79.5 12q88 0 141 -46.5t53 -128.5q0 -41 -14 -73t-39.5 -55t-61 -35t-79.5 -12q-88 0 -141 46.5t-53 128.5zM552 568h277l-138 533zM741 1727q0 40 14 72.5 t39.5 55.5t61 35t79.5 12q88 0 141.5 -46.5t53.5 -128.5q0 -41 -14 -73t-39.5 -55t-61.5 -35t-80 -12q-88 0 -141 46.5t-53 128.5z" />
<glyph unicode="&#xc5;" horiz-adv-x="1400" d="M-26 0l458 1462h535l459 -1462h-450l-62 237h-448l-62 -237h-430zM422 1730q0 54 19.5 96t55.5 70.5t87.5 43t115.5 14.5q63 0 114.5 -14.5t88 -42.5t56 -70t19.5 -96t-19.5 -96t-56 -70t-88 -42.5t-115.5 -14.5q-63 0 -114.5 14.5t-87.5 42.5t-55.5 69.5t-19.5 95.5z M552 568h277l-138 533zM627 1731q0 -39 18 -61.5t54 -22.5q37 0 55 22t18 61t-18 61t-55 22t-54.5 -21.5t-17.5 -60.5z" />
<glyph unicode="&#xc6;" horiz-adv-x="2028" d="M-68 0l763 1462h1255v-353h-581v-190h387v-352h-387v-215h581v-352h-1006v237h-440l-113 -237h-459zM656 568h288v612z" />
<glyph unicode="&#xc7;" horiz-adv-x="1157" d="M58 731q0 171 45 309.5t131.5 237t212.5 152t288 53.5q116 0 222 -24t194 -67l-149 -345q-53 29 -108.5 45.5t-118.5 16.5q-74 0 -128.5 -27t-91 -76.5t-54.5 -119.5t-18 -155q0 -86 18 -156t54.5 -119.5t91 -77t128.5 -27.5q63 0 118.5 17.5t108.5 45.5l149 -344 q-88 -44 -194 -67t-223 -23l-12 -56q56 0 100 -15t74 -41.5t46 -64t16 -82.5q0 -52 -21 -94t-59 -71.5t-91.5 -45.5t-119.5 -16q-121 0 -224 50l37 174q37 -25 78.5 -39.5t88.5 -14.5q37 0 61 13t24 44q0 24 -17 37t-47 13h-177l50 231q-117 29 -207 92.5t-151.5 157 t-93 214.5t-31.5 265z" />
<glyph unicode="&#xc8;" d="M120 0v1462h1006v-353h-581v-190h389v-352h-389v-215h581v-352h-1006zM218 1865l424 56l202 -345l-295 -39z" />
<glyph unicode="&#xc9;" d="M120 0h1006v352h-581v215h389v352h-389v190h581v353h-1006v-1462zM403 1576l202 345l424 -56l-331 -328z" />
<glyph unicode="&#xca;" d="M120 0v1462h1006v-353h-581v-190h389v-352h-389v-215h581v-352h-1006zM187 1576l232 318h409l232 -318l-295 -39l-141 186l-142 -186z" />
<glyph unicode="&#xcb;" d="M120 0v1462h1006v-353h-581v-190h389v-352h-389v-215h581v-352h-1006zM193 1727q0 40 14 72.5t39.5 55.5t61 35t79.5 12q88 0 141 -46.5t53 -128.5q0 -41 -14 -73t-39.5 -55t-61 -35t-79.5 -12q-88 0 -141 46.5t-53 128.5zM666 1727q0 40 14 72.5t39.5 55.5t61 35 t79.5 12q88 0 141.5 -46.5t53.5 -128.5q0 -41 -14 -73t-39.5 -55t-61.5 -35t-80 -12q-88 0 -141 46.5t-53 128.5z" />
<glyph unicode="&#xcc;" horiz-adv-x="665" d="M-73 1865l424 56l202 -345l-295 -39zM120 0v1462h425v-1462h-425z" />
<glyph unicode="&#xcd;" horiz-adv-x="665" d="M113 1576l202 345l424 -56l-331 -328zM120 0h425v1462h-425v-1462z" />
<glyph unicode="&#xce;" horiz-adv-x="665" d="M-104 1576l232 318h409l232 -318l-295 -39l-141 186l-142 -186zM120 0v1462h425v-1462h-425z" />
<glyph unicode="&#xcf;" horiz-adv-x="665" d="M-86 1727q0 40 14 72.5t39.5 55.5t61 35t79.5 12q88 0 141 -46.5t53 -128.5q0 -41 -14 -73t-39.5 -55t-61 -35t-79.5 -12q-88 0 -141 46.5t-53 128.5zM120 0v1462h425v-1462h-425zM361 1727q0 40 14 72.5t39.5 55.5t61 35t79.5 12q88 0 141.5 -46.5t53.5 -128.5 q0 -41 -14 -73t-39.5 -55t-61.5 -35t-80 -12q-88 0 -141 46.5t-53 128.5z" />
<glyph unicode="&#xd0;" horiz-adv-x="1542" d="M26 589v308h169v565h536q176 0 316 -51.5t237 -147t148.5 -230.5t51.5 -302t-51.5 -302.5t-148.5 -230.5t-236.5 -146.5t-316.5 -51.5h-536v589h-169zM621 352h115q82 0 143 26.5t101 76t59.5 119.5t19.5 157t-19.5 156.5t-59.5 119t-101 76t-143 26.5h-115v-212h213 v-308h-213v-237z" />
<glyph unicode="&#xd1;" horiz-adv-x="1548" d="M120 0v1462h443l479 -776l-12 776h398v-1462h-442l-483 779l14 -779h-397zM333 1774q147 132 294 132q112 0 235 -76q40 -25 82 -25q44 0 84 25t72 68l119 -220q-146 -131 -294 -131q-115 0 -236 75q-40 25 -82 25q-44 0 -83.5 -25t-72.5 -68z" />
<glyph unicode="&#xd2;" horiz-adv-x="1514" d="M58 731q0 172 48.5 311t139 237t219.5 151t291 53t291.5 -53t220.5 -151t139.5 -237t48.5 -311q0 -173 -48.5 -312t-139 -236.5t-220 -150t-292.5 -52.5q-162 0 -291 52.5t-219.5 150t-139 236.5t-48.5 312zM351 1865l424 56l202 -345l-295 -39zM483 731q0 -92 16 -165.5 t50 -124.5t85 -78.5t122 -27.5t123 27.5t85.5 78.5t50 124.5t16.5 165.5q0 91 -16.5 164.5t-50 124.5t-85.5 78.5t-123 27.5t-122 -27.5t-85 -78.5t-50 -124.5t-16 -164.5z" />
<glyph unicode="&#xd3;" horiz-adv-x="1514" d="M58 731q0 -173 48.5 -312t139 -236.5t219.5 -150t291 -52.5q163 0 292.5 52.5t220 150t139 236.5t48.5 312q0 172 -48.5 311t-139.5 237t-220.5 151t-291.5 53t-291 -53t-219.5 -151t-139 -237t-48.5 -311zM483 731q0 91 16 164.5t50 124.5t85 78.5t122 27.5t123 -27.5 t85.5 -78.5t50 -124.5t16.5 -164.5q0 -92 -16.5 -165.5t-50 -124.5t-85.5 -78.5t-123 -27.5t-122 27.5t-85 78.5t-50 124.5t-16 165.5zM535 1576l202 345l424 -56l-331 -328z" />
<glyph unicode="&#xd4;" horiz-adv-x="1514" d="M58 731q0 172 48.5 311t139 237t219.5 151t291 53t291.5 -53t220.5 -151t139.5 -237t48.5 -311q0 -173 -48.5 -312t-139 -236.5t-220 -150t-292.5 -52.5q-162 0 -291 52.5t-219.5 150t-139 236.5t-48.5 312zM319 1576l232 318h409l232 -318l-295 -39l-141 186l-142 -186z M483 731q0 -92 16 -165.5t50 -124.5t85 -78.5t122 -27.5t123 27.5t85.5 78.5t50 124.5t16.5 165.5q0 91 -16.5 164.5t-50 124.5t-85.5 78.5t-123 27.5t-122 -27.5t-85 -78.5t-50 -124.5t-16 -164.5z" />
<glyph unicode="&#xd5;" horiz-adv-x="1514" d="M58 731q0 172 48.5 311t139 237t219.5 151t291 53t291.5 -53t220.5 -151t139.5 -237t48.5 -311q0 -173 -48.5 -312t-139 -236.5t-220 -150t-292.5 -52.5q-162 0 -291 52.5t-219.5 150t-139 236.5t-48.5 312zM314 1774q147 132 294 132q112 0 235 -76q40 -25 82 -25 q44 0 84 25t72 68l119 -220q-146 -131 -294 -131q-115 0 -236 75q-40 25 -82 25q-44 0 -83.5 -25t-72.5 -68zM483 731q0 -92 16 -165.5t50 -124.5t85 -78.5t122 -27.5t123 27.5t85.5 78.5t50 124.5t16.5 165.5q0 91 -16.5 164.5t-50 124.5t-85.5 78.5t-123 27.5t-122 -27.5 t-85 -78.5t-50 -124.5t-16 -164.5z" />
<glyph unicode="&#xd6;" horiz-adv-x="1514" d="M58 731q0 172 48.5 311t139 237t219.5 151t291 53t291.5 -53t220.5 -151t139.5 -237t48.5 -311q0 -173 -48.5 -312t-139 -236.5t-220 -150t-292.5 -52.5q-162 0 -291 52.5t-219.5 150t-139 236.5t-48.5 312zM326 1727q0 40 14 72.5t39.5 55.5t61 35t79.5 12 q88 0 141 -46.5t53 -128.5q0 -41 -14 -73t-39.5 -55t-61 -35t-79.5 -12q-88 0 -141 46.5t-53 128.5zM483 731q0 -92 16 -165.5t50 -124.5t85 -78.5t122 -27.5t123 27.5t85.5 78.5t50 124.5t16.5 165.5q0 91 -16.5 164.5t-50 124.5t-85.5 78.5t-123 27.5t-122 -27.5 t-85 -78.5t-50 -124.5t-16 -164.5zM799 1727q0 40 14 72.5t39.5 55.5t61 35t79.5 12q88 0 141.5 -46.5t53.5 -128.5q0 -41 -14 -73t-39.5 -55t-61.5 -35t-80 -12q-88 0 -141 46.5t-53 128.5z" />
<glyph unicode="&#xd7;" horiz-adv-x="1131" d="M37 248l300 298l-300 298l232 232l298 -298l299 298l228 -232l-298 -298l298 -298l-228 -231l-299 298l-298 -298z" />
<glyph unicode="&#xd8;" horiz-adv-x="1563" d="M58 179l124 125q-50 87 -76 194t-26 233q0 172 48.5 311t139.5 237t221 151t293 53q131 0 240.5 -35.5t196.5 -101.5l134 137l152 -202l-125 -125q51 -88 76 -194.5t25 -230.5q0 -173 -48.5 -312t-139.5 -236.5t-220 -150t-291 -52.5q-131 0 -241 34.5t-197 100.5 l-134 -135zM490 731q0 -31 2.5 -58t8.5 -51l456 463q-68 59 -175 59q-75 0 -130 -28.5t-91 -82t-53.5 -130t-17.5 -172.5zM607 376q68 -59 175 -59q74 0 129 28.5t91 82.5t54 130.5t18 172.5q0 30 -2.5 57t-7.5 51z" />
<glyph unicode="&#xd9;" horiz-adv-x="1451" d="M100 562v900h425v-900q0 -109 47.5 -167.5t151.5 -58.5q105 0 153.5 58.5t48.5 167.5v900h425v-900q0 -140 -41.5 -248.5t-121.5 -182.5t-197 -112.5t-267 -38.5t-266 38.5t-195.5 112.5t-121 182.5t-41.5 248.5zM318 1865l424 56l202 -345l-295 -39z" />
<glyph unicode="&#xda;" horiz-adv-x="1451" d="M100 562q0 -140 41.5 -248.5t121 -182.5t195.5 -112.5t266 -38.5t267 38.5t197 112.5t121.5 182.5t41.5 248.5v900h-425v-900q0 -109 -48.5 -167.5t-153.5 -58.5q-104 0 -151.5 58.5t-47.5 167.5v900h-425v-900zM504 1576l202 345l424 -56l-331 -328z" />
<glyph unicode="&#xdb;" horiz-adv-x="1451" d="M100 562v900h425v-900q0 -109 47.5 -167.5t151.5 -58.5q105 0 153.5 58.5t48.5 167.5v900h425v-900q0 -140 -41.5 -248.5t-121.5 -182.5t-197 -112.5t-267 -38.5t-266 38.5t-195.5 112.5t-121 182.5t-41.5 248.5zM287 1576l232 318h409l232 -318l-295 -39l-141 186 l-142 -186z" />
<glyph unicode="&#xdc;" horiz-adv-x="1451" d="M100 562v900h425v-900q0 -109 47.5 -167.5t151.5 -58.5q105 0 153.5 58.5t48.5 167.5v900h425v-900q0 -140 -41.5 -248.5t-121.5 -182.5t-197 -112.5t-267 -38.5t-266 38.5t-195.5 112.5t-121 182.5t-41.5 248.5zM294 1727q0 40 14 72.5t39.5 55.5t61 35t79.5 12 q88 0 141 -46.5t53 -128.5q0 -41 -14 -73t-39.5 -55t-61 -35t-79.5 -12q-88 0 -141 46.5t-53 128.5zM767 1727q0 40 14 72.5t39.5 55.5t61 35t79.5 12q88 0 141.5 -46.5t53.5 -128.5q0 -41 -14 -73t-39.5 -55t-61.5 -35t-80 -12q-88 0 -141 46.5t-53 128.5z" />
<glyph unicode="&#xdd;" horiz-adv-x="1387" d="M-68 1462l548 -932v-530h426v530l549 932h-478l-274 -548l-274 548h-497zM474 1576l202 345l424 -56l-331 -328z" />
<glyph unicode="&#xde;" horiz-adv-x="1310" d="M120 0v1462h425v-234h214q112 0 203.5 -34t155.5 -97t99 -153t35 -201t-35 -200.5t-99.5 -152.5t-156 -97.5t-205.5 -34.5h-211v-258h-425zM545 594h135q78 0 121.5 39.5t43.5 111.5q0 73 -43.5 110.5t-121.5 37.5h-135v-299z" />
<glyph unicode="&#xdf;" horiz-adv-x="1266" d="M93 0v1041q0 132 30.5 232t95 167t164 101t237.5 34q124 0 219.5 -27.5t160.5 -79.5t99 -128t34 -173q0 -50 -10.5 -97t-32 -87.5t-55.5 -73.5t-81 -54q69 -26 118.5 -66.5t81.5 -93.5t47.5 -117t15.5 -137q0 -98 -29 -182t-85.5 -146.5t-139 -98t-188.5 -35.5 q-53 0 -105 6.5t-107 23.5l46 331q14 -5 30.5 -7t30.5 -2q36 0 63.5 13t46 35.5t28 51.5t9.5 62q0 44 -16.5 75t-45.5 51t-68.5 29.5t-85.5 9.5h-38l46 335q75 0 115 35t40 96q0 57 -35 91.5t-97 34.5q-66 0 -102 -37.5t-36 -100.5v-1112h-401z" />
<glyph unicode="&#xe0;" horiz-adv-x="1151" d="M49 308q0 89 33 155.5t96.5 112.5t155.5 72.5t210 36.5l120 10v33q0 45 -36 63t-102 18q-80 0 -160.5 -21.5t-151.5 -61.5l-126 271q103 58 231.5 88t268.5 30q238 0 357.5 -100t119.5 -306v-532q0 -39 2 -85t9 -92h-375l-17 87q-61 -51 -141.5 -79.5t-179.5 -28.5 q-71 0 -129 23t-99 65.5t-63.5 103.5t-22.5 137zM179 1516l424 56l202 -345l-295 -39zM439 347q0 -32 25.5 -50t61.5 -18q41 0 78 21t60 56v106l-78 -8q-147 -15 -147 -107z" />
<glyph unicode="&#xe1;" horiz-adv-x="1151" d="M49 308q0 -76 22.5 -137t63.5 -103.5t99 -65.5t129 -23q99 0 179.5 28.5t141.5 79.5l17 -87h375q-7 46 -9 92t-2 85v532q0 206 -119.5 306t-357.5 100q-140 0 -268.5 -30t-231.5 -88l126 -271q71 40 151.5 61.5t160.5 21.5q66 0 102 -18t36 -63v-33l-120 -10 q-118 -10 -210 -36.5t-155.5 -72.5t-96.5 -112.5t-33 -155.5zM362 1227l202 345l424 -56l-331 -328zM439 347q0 92 147 107l78 8v-106q-23 -35 -60 -56t-78 -21q-36 0 -61.5 18t-25.5 50z" />
<glyph unicode="&#xe2;" horiz-adv-x="1151" d="M49 308q0 89 33 155.5t96.5 112.5t155.5 72.5t210 36.5l120 10v33q0 45 -36 63t-102 18q-80 0 -160.5 -21.5t-151.5 -61.5l-126 271q103 58 231.5 88t268.5 30q238 0 357.5 -100t119.5 -306v-532q0 -39 2 -85t9 -92h-375l-17 87q-61 -51 -141.5 -79.5t-179.5 -28.5 q-71 0 -129 23t-99 65.5t-63.5 103.5t-22.5 137zM146 1227l232 318h409l232 -318l-295 -39l-141 186l-142 -186zM439 347q0 -32 25.5 -50t61.5 -18q41 0 78 21t60 56v106l-78 -8q-147 -15 -147 -107z" />
<glyph unicode="&#xe3;" horiz-adv-x="1151" d="M49 308q0 89 33 155.5t96.5 112.5t155.5 72.5t210 36.5l120 10v33q0 45 -36 63t-102 18q-80 0 -160.5 -21.5t-151.5 -61.5l-126 271q103 58 231.5 88t268.5 30q238 0 357.5 -100t119.5 -306v-532q0 -39 2 -85t9 -92h-375l-17 87q-61 -51 -141.5 -79.5t-179.5 -28.5 q-71 0 -129 23t-99 65.5t-63.5 103.5t-22.5 137zM141 1427q147 132 294 132q112 0 235 -76q40 -25 82 -25q44 0 84 25t72 68l119 -220q-146 -131 -294 -131q-115 0 -236 75q-40 25 -82 25q-44 0 -83.5 -25t-72.5 -68zM439 347q0 -32 25.5 -50t61.5 -18q41 0 78 21t60 56v106 l-78 -8q-147 -15 -147 -107z" />
<glyph unicode="&#xe4;" horiz-adv-x="1151" d="M49 308q0 89 33 155.5t96.5 112.5t155.5 72.5t210 36.5l120 10v33q0 45 -36 63t-102 18q-80 0 -160.5 -21.5t-151.5 -61.5l-126 271q103 58 231.5 88t268.5 30q238 0 357.5 -100t119.5 -306v-532q0 -39 2 -85t9 -92h-375l-17 87q-61 -51 -141.5 -79.5t-179.5 -28.5 q-71 0 -129 23t-99 65.5t-63.5 103.5t-22.5 137zM152 1379q0 40 14 72.5t39.5 55.5t61 35t79.5 12q88 0 141 -46.5t53 -128.5q0 -41 -14 -73t-39.5 -55t-61 -35t-79.5 -12q-88 0 -141 46.5t-53 128.5zM439 347q0 -32 25.5 -50t61.5 -18q41 0 78 21t60 56v106l-78 -8 q-147 -15 -147 -107zM625 1379q0 40 14 72.5t39.5 55.5t61 35t79.5 12q88 0 141.5 -46.5t53.5 -128.5q0 -41 -14 -73t-39.5 -55t-61.5 -35t-80 -12q-88 0 -141 46.5t-53 128.5z" />
<glyph unicode="&#xe5;" horiz-adv-x="1151" d="M49 308q0 89 33 155.5t96.5 112.5t155.5 72.5t210 36.5l120 10v33q0 45 -36 63t-102 18q-80 0 -160.5 -21.5t-151.5 -61.5l-126 271q103 58 231.5 88t268.5 30q238 0 357.5 -100t119.5 -306v-532q0 -39 2 -85t9 -92h-375l-17 87q-61 -51 -141.5 -79.5t-179.5 -28.5 q-71 0 -129 23t-99 65.5t-63.5 103.5t-22.5 137zM306 1385q0 54 19.5 96t55.5 70.5t87.5 43t115.5 14.5q63 0 114.5 -14.5t88 -42.5t56 -70t19.5 -96t-19.5 -96t-56 -70t-88 -42.5t-115.5 -14.5q-63 0 -114.5 14.5t-87.5 42.5t-55.5 69.5t-19.5 95.5zM439 347 q0 -32 25.5 -50t61.5 -18q41 0 78 21t60 56v106l-78 -8q-147 -15 -147 -107zM511 1386q0 -39 18 -61.5t54 -22.5q37 0 55 22t18 61t-18 61t-55 22t-54.5 -21.5t-17.5 -60.5z" />
<glyph unicode="&#xe6;" horiz-adv-x="1772" d="M49 308q0 89 33 155.5t96.5 112.5t155.5 72.5t210 36.5l120 10v33q0 45 -36 63t-102 18q-80 0 -161.5 -21.5t-150.5 -61.5l-126 271q103 58 231.5 88t268.5 30q227 0 338 -95q54 45 127.5 70t169.5 25q126 0 220.5 -45t156.5 -123t93 -181.5t31 -220.5q0 -21 -1.5 -45 t-5.5 -53h-641q11 -81 60 -122.5t143 -41.5q82 0 147 24t126 72l133 -279q-99 -64 -212 -92.5t-238 -28.5q-130 0 -237.5 38.5t-182.5 113.5q-66 -72 -176 -112t-255 -40q-80 0 -142.5 23t-105.5 65.5t-65 103.5t-22 137zM439 347q0 -32 25.5 -50t61.5 -18q41 0 78 21t60 56 v106l-78 -8q-147 -15 -147 -107zM1074 695h253q-8 72 -36 107t-89 35q-119 0 -128 -142z" />
<glyph unicode="&#xe7;" horiz-adv-x="966" d="M49 547q0 140 42.5 246t118 177.5t180 108t228.5 36.5q95 0 182 -26.5t161 -68.5l-146 -311q-33 23 -74 40t-90 17q-91 0 -137 -59t-46 -160q0 -49 11.5 -89.5t34.5 -69t57.5 -44t79.5 -15.5q49 0 90 17t74 40l146 -314q-74 -40 -161 -66.5t-182 -26.5h-15l-12 -55 q56 0 100 -15t74 -41.5t46 -64t16 -82.5q0 -52 -21 -94t-59 -71.5t-91.5 -45.5t-119.5 -16q-121 0 -224 50l37 174q37 -25 78.5 -39.5t88.5 -14.5q37 0 61 13t24 44q0 24 -17 37t-47 13h-177l51 238q-82 25 -149 72t-114 114.5t-73 155.5t-26 196z" />
<glyph unicode="&#xe8;" horiz-adv-x="1156" d="M49 541q0 133 39 239t111 180.5t173 114.5t224 40q126 0 221.5 -45t160 -123t97 -181.5t32.5 -220.5q0 -21 -1.5 -45t-3.5 -53h-641q8 -81 58.5 -122.5t144.5 -41.5q81 0 146 24t126 72l131 -279q-99 -64 -211.5 -92.5t-237.5 -28.5q-124 0 -228.5 35.5t-180 106 t-118 176t-42.5 244.5zM172 1516l424 56l202 -345l-295 -39zM459 695h250q-6 72 -34.5 108t-88.5 36q-118 0 -127 -144z" />
<glyph unicode="&#xe9;" horiz-adv-x="1156" d="M49 541q0 -139 42.5 -244.5t118 -176t180 -106t228.5 -35.5q125 0 237.5 28.5t211.5 92.5l-131 279q-61 -48 -126 -72t-146 -24q-94 0 -144.5 41.5t-58.5 122.5h641q2 29 3.5 53t1.5 45q0 117 -32.5 220.5t-97 181.5t-160 123t-221.5 45q-123 0 -224 -40t-173 -114.5 t-111 -180.5t-39 -239zM355 1227l202 345l424 -56l-331 -328zM459 695q9 144 127 144q60 0 88.5 -36t34.5 -108h-250z" />
<glyph unicode="&#xea;" horiz-adv-x="1156" d="M49 541q0 133 39 239t111 180.5t173 114.5t224 40q126 0 221.5 -45t160 -123t97 -181.5t32.5 -220.5q0 -21 -1.5 -45t-3.5 -53h-641q8 -81 58.5 -122.5t144.5 -41.5q81 0 146 24t126 72l131 -279q-99 -64 -211.5 -92.5t-237.5 -28.5q-124 0 -228.5 35.5t-180 106 t-118 176t-42.5 244.5zM139 1227l232 318h409l232 -318l-295 -39l-141 186l-142 -186zM459 695h250q-6 72 -34.5 108t-88.5 36q-118 0 -127 -144z" />
<glyph unicode="&#xeb;" horiz-adv-x="1156" d="M49 541q0 133 39 239t111 180.5t173 114.5t224 40q126 0 221.5 -45t160 -123t97 -181.5t32.5 -220.5q0 -21 -1.5 -45t-3.5 -53h-641q8 -81 58.5 -122.5t144.5 -41.5q81 0 146 24t126 72l131 -279q-99 -64 -211.5 -92.5t-237.5 -28.5q-124 0 -228.5 35.5t-180 106 t-118 176t-42.5 244.5zM146 1379q0 40 14 72.5t39.5 55.5t61 35t79.5 12q88 0 141 -46.5t53 -128.5q0 -41 -14 -73t-39.5 -55t-61 -35t-79.5 -12q-88 0 -141 46.5t-53 128.5zM459 695h250q-6 72 -34.5 108t-88.5 36q-118 0 -127 -144zM619 1379q0 40 14 72.5t39.5 55.5 t61 35t79.5 12q88 0 141.5 -46.5t53.5 -128.5q0 -41 -14 -73t-39.5 -55t-61.5 -35t-80 -12q-88 0 -141 46.5t-53 128.5z" />
<glyph unicode="&#xec;" horiz-adv-x="588" d="M-111 1516l424 56l202 -345l-295 -39zM93 0v1066l402 49v-1115h-402z" />
<glyph unicode="&#xed;" horiz-adv-x="588" d="M73 1227l202 345l424 -56l-331 -328zM93 0h402v1115l-402 -49v-1066z" />
<glyph unicode="&#xee;" horiz-adv-x="588" d="M-143 1227l232 318h409l232 -318l-295 -39l-141 186l-142 -186zM93 0v1066l402 49v-1115h-402z" />
<glyph unicode="&#xef;" horiz-adv-x="588" d="M-125 1379q0 40 14 72.5t39.5 55.5t61 35t79.5 12q88 0 141 -46.5t53 -128.5q0 -41 -14 -73t-39.5 -55t-61 -35t-79.5 -12q-88 0 -141 46.5t-53 128.5zM93 0v1066l402 49v-1115h-402zM323 1379q0 40 14 72.5t39.5 55.5t61 35t79.5 12q88 0 141.5 -46.5t53.5 -128.5 q0 -41 -14 -73t-39.5 -55t-61.5 -35t-80 -12q-88 0 -141 46.5t-53 128.5z" />
<glyph unicode="&#xf0;" horiz-adv-x="1214" d="M49 487q0 229 122.5 347.5t354.5 118.5q53 0 101.5 -8t95.5 -27q-21 107 -77 194l-401 -126v279l170 52q-63 40 -132 74t-147 66l394 118q154 -47 271 -137l332 104v-279l-127 -39q71 -110 109.5 -242.5t38.5 -286.5q0 -156 -29 -287.5t-96 -226.5t-175 -148.5 t-266 -53.5q-120 0 -219 36t-170 102.5t-110.5 160t-39.5 209.5zM451 478q0 -39 7.5 -72t24 -57t43 -37t64.5 -13q47 0 77.5 21t47.5 62t23 101t4 137q-34 8 -67.5 13.5t-69.5 5.5q-81 0 -117.5 -38.5t-36.5 -122.5z" />
<glyph unicode="&#xf1;" horiz-adv-x="1203" d="M93 0v1066l379 49v-108q30 20 63 39.5t69.5 34.5t75 24.5t79.5 9.5q84 0 151.5 -27t114 -77t71.5 -120t25 -156v-735h-400v652q0 48 -22.5 75.5t-64.5 27.5q-45 0 -80.5 -22.5t-59.5 -51.5v-681h-401zM165 1427q147 132 294 132q112 0 235 -76q40 -25 82 -25q44 0 84 25 t72 68l119 -220q-146 -131 -294 -131q-115 0 -236 75q-40 25 -82 25q-44 0 -83.5 -25t-72.5 -68z" />
<glyph unicode="&#xf2;" horiz-adv-x="1190" d="M49 545q0 137 39 243t110.5 179t172 110.5t223.5 37.5t224 -37.5t173 -109.5t111.5 -178t39.5 -243t-39.5 -242.5t-111.5 -178t-173 -110t-224 -37.5q-124 0 -224.5 37t-172 109t-110 177.5t-38.5 242.5zM189 1516l424 56l202 -345l-295 -39zM448 545q0 -53 7 -96 t24 -73.5t45 -47t70 -16.5t70 16.5t45 47t24 73.5t7 96q0 52 -7 95t-24 73t-45 46.5t-70 16.5t-70 -16t-45 -46t-24 -73t-7 -96z" />
<glyph unicode="&#xf3;" horiz-adv-x="1190" d="M49 545q0 -137 38.5 -242.5t110 -177.5t172 -109t224.5 -37q123 0 224 37.5t173 110t111.5 178t39.5 242.5t-39.5 243t-111.5 178t-173 109.5t-224 37.5t-223.5 -37.5t-172 -110.5t-110.5 -179t-39 -243zM372 1227l202 345l424 -56l-331 -328zM448 545q0 53 7 96t24 73 t45 46t70 16t70 -16.5t45 -46.5t24 -73t7 -95q0 -53 -7 -96t-24 -73.5t-45 -47t-70 -16.5t-70 16.5t-45 47t-24 73.5t-7 96z" />
<glyph unicode="&#xf4;" horiz-adv-x="1190" d="M49 545q0 137 39 243t110.5 179t172 110.5t223.5 37.5t224 -37.5t173 -109.5t111.5 -178t39.5 -243t-39.5 -242.5t-111.5 -178t-173 -110t-224 -37.5q-124 0 -224.5 37t-172 109t-110 177.5t-38.5 242.5zM157 1227l232 318h409l232 -318l-295 -39l-141 186l-142 -186z M448 545q0 -53 7 -96t24 -73.5t45 -47t70 -16.5t70 16.5t45 47t24 73.5t7 96q0 52 -7 95t-24 73t-45 46.5t-70 16.5t-70 -16t-45 -46t-24 -73t-7 -96z" />
<glyph unicode="&#xf5;" horiz-adv-x="1190" d="M49 545q0 137 39 243t110.5 179t172 110.5t223.5 37.5t224 -37.5t173 -109.5t111.5 -178t39.5 -243t-39.5 -242.5t-111.5 -178t-173 -110t-224 -37.5q-124 0 -224.5 37t-172 109t-110 177.5t-38.5 242.5zM152 1427q147 132 294 132q112 0 235 -76q40 -25 82 -25 q44 0 84 25t72 68l119 -220q-146 -131 -294 -131q-115 0 -236 75q-40 25 -82 25q-44 0 -83.5 -25t-72.5 -68zM448 545q0 -53 7 -96t24 -73.5t45 -47t70 -16.5t70 16.5t45 47t24 73.5t7 96q0 52 -7 95t-24 73t-45 46.5t-70 16.5t-70 -16t-45 -46t-24 -73t-7 -96z" />
<glyph unicode="&#xf6;" horiz-adv-x="1190" d="M49 545q0 137 39 243t110.5 179t172 110.5t223.5 37.5t224 -37.5t173 -109.5t111.5 -178t39.5 -243t-39.5 -242.5t-111.5 -178t-173 -110t-224 -37.5q-124 0 -224.5 37t-172 109t-110 177.5t-38.5 242.5zM164 1379q0 40 14 72.5t39.5 55.5t61 35t79.5 12q88 0 141 -46.5 t53 -128.5q0 -41 -14 -73t-39.5 -55t-61 -35t-79.5 -12q-88 0 -141 46.5t-53 128.5zM448 545q0 -53 7 -96t24 -73.5t45 -47t70 -16.5t70 16.5t45 47t24 73.5t7 96q0 52 -7 95t-24 73t-45 46.5t-70 16.5t-70 -16t-45 -46t-24 -73t-7 -96zM637 1379q0 40 14 72.5t39.5 55.5 t61 35t79.5 12q88 0 141.5 -46.5t53.5 -128.5q0 -41 -14 -73t-39.5 -55t-61.5 -35t-80 -12q-88 0 -141 46.5t-53 128.5z" />
<glyph unicode="&#xf7;" horiz-adv-x="1213" d="M60 408v278h1093v-278h-1093zM405 167q0 43 14.5 78t40.5 59t63.5 37t82.5 13t82 -13t63.5 -37t41 -59t14.5 -78q0 -44 -14.5 -79t-41 -59t-63.5 -37t-82 -13q-93 0 -147 50t-54 138zM405 928q0 43 14.5 78t40.5 59t63.5 37t82.5 13t82 -13t63.5 -37t41 -59t14.5 -78 q0 -44 -14.5 -78.5t-41 -58.5t-63.5 -37t-82 -13q-93 0 -147 49.5t-54 137.5z" />
<glyph unicode="&#xf8;" horiz-adv-x="1218" d="M60 131l83 83q-39 66 -60 148.5t-21 182.5q0 137 39 243t110.5 179t172 110.5t223.5 37.5q102 0 186 -25.5t152 -73.5l99 99l115 -153l-85 -86q39 -66 59.5 -148t20.5 -181q0 -137 -39 -242.5t-111 -178t-173 -110t-224 -37.5q-202 0 -335 96l-96 -96zM439 510l262 260 q-38 27 -94 27q-48 0 -80.5 -17.5t-52 -50.5t-27.5 -79.5t-8 -104.5v-35zM515 318q38 -26 92 -26q48 0 80.5 18t52 51t27.5 79.5t8 104.5v33z" />
<glyph unicode="&#xf9;" horiz-adv-x="1205" d="M82 358v708l401 49v-674q0 -48 22 -75.5t64 -27.5q45 0 81 22.5t60 53.5v652l402 49v-1115h-381v85q-30 -20 -63 -39t-69 -34t-75 -24t-80 -9q-85 0 -152.5 27t-114 76.5t-71 119.5t-24.5 156zM192 1516l424 56l202 -345l-295 -39z" />
<glyph unicode="&#xfa;" horiz-adv-x="1205" d="M82 358q0 -86 24.5 -156t71 -119.5t114 -76.5t152.5 -27q41 0 80 9t75 24t69 34t63 39v-85h381v1115l-402 -49v-652q-24 -31 -60 -53.5t-81 -22.5q-42 0 -64 27.5t-22 75.5v674l-401 -49v-708zM375 1227l202 345l424 -56l-331 -328z" />
<glyph unicode="&#xfb;" horiz-adv-x="1205" d="M82 358v708l401 49v-674q0 -48 22 -75.5t64 -27.5q45 0 81 22.5t60 53.5v652l402 49v-1115h-381v85q-30 -20 -63 -39t-69 -34t-75 -24t-80 -9q-85 0 -152.5 27t-114 76.5t-71 119.5t-24.5 156zM160 1227l232 318h409l232 -318l-295 -39l-141 186l-142 -186z" />
<glyph unicode="&#xfc;" horiz-adv-x="1205" d="M82 358v708l401 49v-674q0 -48 22 -75.5t64 -27.5q45 0 81 22.5t60 53.5v652l402 49v-1115h-381v85q-30 -20 -63 -39t-69 -34t-75 -24t-80 -9q-85 0 -152.5 27t-114 76.5t-71 119.5t-24.5 156zM167 1379q0 40 14 72.5t39.5 55.5t61 35t79.5 12q88 0 141 -46.5t53 -128.5 q0 -41 -14 -73t-39.5 -55t-61 -35t-79.5 -12q-88 0 -141 46.5t-53 128.5zM640 1379q0 40 14 72.5t39.5 55.5t61 35t79.5 12q88 0 141.5 -46.5t53.5 -128.5q0 -41 -14 -73t-39.5 -55t-61.5 -35t-80 -12q-88 0 -141 46.5t-53 128.5z" />
<glyph unicode="&#xfd;" d="M-21 1093l403 -1063l-4 -12q-14 -41 -30 -67.5t-39.5 -42.5t-57 -24t-81.5 -13l167 -353q87 16 154.5 45t118 70.5t87 96.5t62.5 124l466 1239h-445l-171 -664l-163 664h-467zM381 1227l202 345l424 -56l-331 -328z" />
<glyph unicode="&#xfe;" horiz-adv-x="1212" d="M103 -460v1985l402 50v-549q46 38 101.5 63.5t129.5 25.5q99 0 176.5 -41.5t130.5 -116.5t81 -179.5t28 -230.5t-28 -230.5t-81 -179.5t-130.5 -116.5t-176.5 -41.5q-74 0 -129.5 25t-101.5 63v-527h-402zM505 408q24 -30 50 -47.5t71 -17.5q27 0 50.5 14.5t40.5 41 t26.5 64t9.5 84.5q0 46 -9.5 83.5t-26.5 64.5t-40.5 41.5t-50.5 14.5q-45 0 -71 -18.5t-50 -47.5v-277z" />
<glyph unicode="&#xff;" d="M-21 1093h467l163 -664l171 664h445l-466 -1239q-26 -69 -62.5 -124t-87 -96.5t-118 -70.5t-154.5 -45l-167 353q48 5 81.5 13t57 24t39.5 42.5t30 67.5l4 12zM173 1379q0 40 14 72.5t39.5 55.5t61 35t79.5 12q88 0 141 -46.5t53 -128.5q0 -41 -14 -73t-39.5 -55t-61 -35 t-79.5 -12q-88 0 -141 46.5t-53 128.5zM646 1379q0 40 14 72.5t39.5 55.5t61 35t79.5 12q88 0 141.5 -46.5t53.5 -128.5q0 -41 -14 -73t-39.5 -55t-61.5 -35t-80 -12q-88 0 -141 46.5t-53 128.5z" />
<glyph unicode="&#x152;" horiz-adv-x="2004" d="M58 731q0 172 49.5 311.5t141 237t222.5 150.5t294 53q102 0 191 -21h970v-353h-581v-190h387v-352h-387v-215h581v-352h-972q-46 -9 -93 -14.5t-98 -5.5q-162 0 -292.5 52.5t-222 150t-141 236.5t-49.5 312zM483 731q0 -92 19.5 -165t59 -124t99.5 -78.5t142 -27.5 q32 0 61 4t55 12v756q-26 8 -55 13t-61 5q-82 0 -142 -27.5t-99.5 -79t-59 -124.5t-19.5 -164z" />
<glyph unicode="&#x153;" horiz-adv-x="1849" d="M49 545q0 137 39 243t110.5 179t172 110.5t223.5 37.5q113 0 206.5 -32t164.5 -93q54 61 133.5 93t189.5 32q126 0 222 -45t160.5 -123t97 -181.5t32.5 -220.5q0 -21 -1.5 -45t-5.5 -53h-641q10 -81 59.5 -122.5t143.5 -41.5q82 0 147 24t125 72l133 -279 q-97 -64 -210 -92.5t-238 -28.5q-117 0 -216 30t-173 93q-54 -61 -135 -92t-194 -31q-124 0 -224.5 37t-172 109t-110 177.5t-38.5 242.5zM448 545q0 -53 7 -96t24 -73.5t45 -47t70 -16.5t70 16.5t45 47t24 73.5t7 96q0 52 -7 95t-24 73t-45 46.5t-70 16.5t-70 -16t-45 -46 t-24 -73t-7 -96zM1150 695h254q-9 72 -36.5 107t-88.5 35q-119 0 -129 -142z" />
<glyph unicode="&#x178;" horiz-adv-x="1387" d="M-68 1462h497l274 -548l274 548h478l-549 -932v-530h-426v530zM264 1727q0 40 14 72.5t39.5 55.5t61 35t79.5 12q88 0 141 -46.5t53 -128.5q0 -41 -14 -73t-39.5 -55t-61 -35t-79.5 -12q-88 0 -141 46.5t-53 128.5zM737 1727q0 40 14 72.5t39.5 55.5t61 35t79.5 12 q88 0 141.5 -46.5t53.5 -128.5q0 -41 -14 -73t-39.5 -55t-61.5 -35t-80 -12q-88 0 -141 46.5t-53 128.5z" />
<glyph unicode="&#x2c6;" horiz-adv-x="1374" d="M251 1227l232 318h409l232 -318l-295 -39l-141 186l-142 -186z" />
<glyph unicode="&#x2dc;" horiz-adv-x="1374" d="M243 1427q147 132 294 132q112 0 235 -76q40 -25 82 -25q44 0 84 25t72 68l119 -220q-146 -131 -294 -131q-115 0 -236 75q-40 25 -82 25q-44 0 -83.5 -25t-72.5 -68z" />
<glyph unicode="&#x2000;" horiz-adv-x="977" />
<glyph unicode="&#x2001;" horiz-adv-x="1954" />
<glyph unicode="&#x2002;" horiz-adv-x="977" />
<glyph unicode="&#x2003;" horiz-adv-x="1954" />
<glyph unicode="&#x2004;" horiz-adv-x="651" />
<glyph unicode="&#x2005;" horiz-adv-x="488" />
<glyph unicode="&#x2006;" horiz-adv-x="325" />
<glyph unicode="&#x2007;" horiz-adv-x="325" />
<glyph unicode="&#x2008;" horiz-adv-x="244" />
<glyph unicode="&#x2009;" horiz-adv-x="390" />
<glyph unicode="&#x200a;" horiz-adv-x="108" />
<glyph unicode="&#x2010;" horiz-adv-x="719" d="M60 358v377h599v-377h-599z" />
<glyph unicode="&#x2011;" horiz-adv-x="719" d="M60 358v377h599v-377h-599z" />
<glyph unicode="&#x2012;" horiz-adv-x="719" d="M60 358v377h599v-377h-599z" />
<glyph unicode="&#x2013;" horiz-adv-x="1374" d="M60 393v307h1254v-307h-1254z" />
<glyph unicode="&#x2014;" horiz-adv-x="1910" d="M60 393v307h1790v-307h-1790z" />
<glyph unicode="&#x2018;" horiz-adv-x="548" d="M37 1057q0 50 13.5 95t36.5 89l127 242l236 -29l-118 -207q82 -14 130.5 -65.5t48.5 -140.5q0 -52 -17 -93t-48 -70t-75 -44.5t-97 -15.5q-54 0 -97.5 18t-74.5 50t-48 76t-17 95z" />
<glyph unicode="&#x2019;" horiz-adv-x="548" d="M37 1260q0 52 17 93t48 70t75 44.5t97 15.5q54 0 97.5 -18t74.5 -50t48 -76t17 -95q0 -50 -13.5 -95t-36.5 -89l-127 -242l-236 29l118 207q-82 14 -130.5 65.5t-48.5 140.5z" />
<glyph unicode="&#x201a;" horiz-adv-x="548" d="M37 200q0 52 17 93t48 70t75 44.5t97 15.5q54 0 97.5 -18t74.5 -50t48 -76t17 -95q0 -50 -13.5 -95t-36.5 -89l-127 -242l-236 29l118 207q-82 14 -130.5 65.5t-48.5 140.5z" />
<glyph unicode="&#x201c;" horiz-adv-x="1045" d="M37 1057q0 50 13.5 95t35.5 89l120 242l225 -29l-113 -207q78 -14 124 -65.5t46 -140.5q0 -52 -16 -93t-45.5 -70t-71 -44.5t-92.5 -15.5t-92.5 18t-71.5 50t-46 76t-16 95zM558 1057q0 50 13 95t35 89l121 242l224 -29l-113 -207q78 -14 124 -65.5t46 -140.5 q0 -52 -16 -93t-45.5 -70t-71 -44.5t-92.5 -15.5t-92.5 18t-71 50t-45.5 76t-16 95z" />
<glyph unicode="&#x201d;" horiz-adv-x="1045" d="M37 1260q0 52 16 93t45.5 70t71 44.5t92.5 15.5t92.5 -18t71 -50t45.5 -76t16 -95q0 -50 -13 -95t-35 -89l-121 -242l-224 29l113 207q-78 14 -124 65.5t-46 140.5zM557 1260q0 52 16 93t45.5 70t71 44.5t92.5 15.5t92.5 -18t71.5 -50t46 -76t16 -95q0 -50 -13.5 -95 t-35.5 -89l-120 -242l-225 29l113 207q-78 14 -124 65.5t-46 140.5z" />
<glyph unicode="&#x201e;" horiz-adv-x="1045" d="M37 200q0 52 16 93t45.5 70t71 44.5t92.5 15.5t92.5 -18t71 -50t45.5 -76t16 -95q0 -50 -13 -95t-35 -89l-121 -242l-224 29l113 207q-78 14 -124 65.5t-46 140.5zM557 200q0 52 16 93t45.5 70t71 44.5t92.5 15.5t92.5 -18t71.5 -50t46 -76t16 -95q0 -50 -13.5 -95 t-35.5 -89l-120 -242l-225 29l113 207q-78 14 -124 65.5t-46 140.5z" />
<glyph unicode="&#x2022;" horiz-adv-x="906" d="M81 545q0 82 27 147.5t75.5 111t117 69.5t152.5 24t152.5 -24t117.5 -69.5t75.5 -110.5t26.5 -146t-26.5 -145.5t-75.5 -109t-117.5 -68.5t-152.5 -24t-153 24t-117.5 68.5t-75 108.5t-26.5 144z" />
<glyph unicode="&#x2026;" horiz-adv-x="1904" d="M60 210q0 54 17.5 97t50 73t78 46t101.5 16t102 -16t78.5 -45.5t50 -72.5t17.5 -97t-18 -97t-50.5 -73t-78 -46t-101.5 -16t-101.5 16t-78 45.5t-50 72.5t-17.5 97zM705 210q0 54 17.5 97t50 73t78 46t101.5 16t102 -16t78.5 -45.5t50 -72.5t17.5 -97t-18 -97t-50.5 -73 t-78 -46t-101.5 -16t-101.5 16t-78 45.5t-50 72.5t-17.5 97zM1349 210q0 54 17.5 97t50 73t78 46t101.5 16t102 -16t78.5 -45.5t50 -72.5t17.5 -97t-18 -97t-50.5 -73t-78 -46t-101.5 -16t-101.5 16t-78 45.5t-50 72.5t-17.5 97z" />
<glyph unicode="&#x202f;" horiz-adv-x="390" />
<glyph unicode="&#x2039;" horiz-adv-x="605" d="M16 545l239 436h334l-223 -436l223 -437h-334z" />
<glyph unicode="&#x203a;" horiz-adv-x="605" d="M16 108l223 437l-223 436h334l239 -436l-239 -437h-334z" />
<glyph unicode="&#x205f;" horiz-adv-x="488" />
<glyph unicode="&#x20ac;" horiz-adv-x="1285" d="M6 597l42 295h121q21 137 76.5 246.5t143 186t204 117.5t258.5 41q118 0 224 -24t194 -66l-114 -322q-57 29 -129 47.5t-143 18.5q-125 0 -200.5 -66t-105.5 -179h516l-104 -295h-418q25 -126 103 -199.5t209 -73.5q71 0 132.5 19t117.5 49l136 -322q-88 -44 -194 -67 t-224 -23q-146 0 -264.5 43t-206.5 123.5t-143 194.5t-73 256h-158z" />
<glyph unicode="&#x2122;" horiz-adv-x="985" d="M26 1329v133h346v-133h-102v-300h-141v300h-103zM410 1029v433h138l105 -151l104 151h138v-433h-140l2 208l-109 -170l-106 170l2 -208h-134z" />
<glyph unicode="&#xe000;" horiz-adv-x="1095" d="M0 0v1095h1095v-1095h-1095z" />
<glyph unicode="&#xfb01;" horiz-adv-x="1389" d="M16 766v327h165v108q0 86 22.5 155t68 118t115.5 75t166 26q72 0 140.5 -8.5t132.5 -24.5l-77 -325q-20 8 -44 11.5t-49 3.5q-38 0 -56 -23.5t-18 -65.5v-50h704v-1093h-401v766h-303v-766h-401v766h-165zM858 1371q0 47 16 85t46 64.5t72 40.5t93 14q52 0 94 -14 t72 -40.5t46 -64t16 -84.5t-16.5 -85t-46.5 -64.5t-72 -40.5t-93 -14t-93 14t-72 40t-46 64t-16 85z" />
<glyph unicode="&#xfb02;" horiz-adv-x="1389" d="M16 766v327h165v108q0 86 22.5 155t68 118t115.5 75t166 26q74 0 141.5 -8.5t131.5 -24.5l-77 -325q-20 8 -43.5 11.5t-49.5 3.5q-38 0 -56 -23.5t-18 -65.5v-50h303v434l401 48v-1575h-401v766h-303v-766h-401v766h-165z" />
<glyph unicode="&#xfb03;" horiz-adv-x="2092" d="M16 766v327h165v108q0 86 22.5 155t68 118t115.5 75t166 26q161 0 304 -41l-92 -321q-48 19 -109 19q-38 0 -56 -23.5t-18 -65.5v-50h303v108q0 86 22.5 155t68.5 118t116 75t166 26q72 0 140.5 -8.5t132.5 -24.5l-77 -325q-23 8 -45.5 11.5t-47.5 3.5q-38 0 -56.5 -23.5 t-18.5 -65.5v-50h703v-1093h-399v766h-304v-766h-401v766h-303v-766h-401v766h-165zM1561 1371q0 47 16 85t46 64.5t72 40.5t93 14q52 0 94 -14t72 -40.5t46 -64t16 -84.5t-16.5 -85t-46.5 -64.5t-72 -40.5t-93 -14t-93 14t-72 40t-46 64t-16 85z" />
<glyph unicode="&#xfb04;" horiz-adv-x="2094" d="M16 766v327h165v108q0 86 22.5 155t68 118t115.5 75t166 26q161 0 304 -41l-92 -321q-48 19 -109 19q-38 0 -56 -23.5t-18 -65.5v-50h303v108q0 86 22.5 155t68.5 118t116 75t166 26q72 0 140.5 -8.5t132.5 -24.5l-77 -325q-21 8 -44.5 11.5t-48.5 3.5q-38 0 -56.5 -23.5 t-18.5 -65.5v-50h304v434l401 48v-1575h-401v766h-304v-766h-401v766h-303v-766h-401v766h-165z" />
</font>
</defs>
</svg>
