<?xml version="1.0" standalone="no"?>
<!DOCTYPE svg PUBLIC "-//W3C//DTD SVG 1.1//EN" "http://www.w3.org/Graphics/SVG/1.1/DTD/svg11.dtd" >
<svg xmlns="http://www.w3.org/2000/svg">
<metadata></metadata>
<defs>
<font id="zerolight" horiz-adv-x="1173" >
<font-face units-per-em="2048" ascent="1536" descent="-512" />
<missing-glyph horiz-adv-x="500" />
<glyph horiz-adv-x="0" />
<glyph unicode="&#xd;" horiz-adv-x="0" />
<glyph horiz-adv-x="0" />
<glyph horiz-adv-x="0" />
<glyph unicode=" "  horiz-adv-x="500" />
<glyph unicode="&#x09;" horiz-adv-x="500" />
<glyph unicode="&#xa0;" horiz-adv-x="500" />
<glyph unicode="!" horiz-adv-x="506" d="M196 42q0 28 15.5 45t41.5 17t41.5 -17t15.5 -45q0 -29 -15.5 -46t-41.5 -17t-41.5 17t-15.5 46zM228 425v1037h50v-1028z" />
<glyph unicode="&#x22;" horiz-adv-x="514" d="M114 1084v372l52 12v-384h-52zM350 1084v372l50 12v-384h-50z" />
<glyph unicode="#" horiz-adv-x="1117" d="M10 463l4 37h237l69 487h-236l6 37h234l61 438h44l-61 -438h461l60 438h44l-60 -438h234l-6 -37h-234l-70 -487h237l-7 -37h-234l-65 -463h-44l65 463h-461l-64 -463h-44l64 463h-234zM292 500h463l68 487h-461z" />
<glyph unicode="$" horiz-adv-x="1145" d="M136 162l24 52q92 -63 194.5 -96t199.5 -36v645q-91 33 -163 65t-122.5 72t-77 92.5t-26.5 126.5q0 73 28 136t79.5 109t123 73t158.5 29v218h42v-218q109 -3 207 -35t185 -84l-23 -50q-84 54 -175.5 85t-193.5 36v-617q95 -35 171.5 -68t130 -74.5t82.5 -96t29 -132.5 q0 -80 -29 -145.5t-83 -113.5t-130.5 -75t-170.5 -28v-218h-42v218q-110 5 -215 37.5t-203 92.5zM218 1085q0 -65 24.5 -110t68.5 -79.5t106 -61.5t137 -55v603q-77 -2 -139 -25.5t-106 -63t-67.5 -93t-23.5 -115.5zM596 82q88 2 155.5 27t113 66.5t69 97t23.5 119.5 q0 68 -26.5 116t-74.5 83.5t-114.5 63.5t-145.5 57v-630z" />
<glyph unicode="%" horiz-adv-x="1471" d="M136 1155q0 75 18.5 135.5t53.5 103.5t86.5 66t117.5 23t117.5 -23t87 -66t54 -103.5t18.5 -135.5q0 -74 -18.5 -133.5t-54 -102t-87 -65.5t-117.5 -23t-117.5 23t-86.5 65.5t-53.5 102t-18.5 133.5zM182 1155q0 -64 15 -115.5t44.5 -88t72 -56.5t98.5 -20q57 0 100 20 t72 56.5t43.5 88t14.5 115.5q0 65 -14.5 117.5t-43.5 89.5t-72 57t-100 20q-56 0 -98.5 -20t-72 -57t-44.5 -89.5t-15 -117.5zM209 0l1001 1462h53l-1001 -1462h-53zM781 306q0 74 18.5 134t54 103t87 66t116.5 23q66 0 117.5 -23t87.5 -66t54.5 -103t18.5 -134 t-18.5 -134.5t-54.5 -103t-87.5 -65.5t-117.5 -23q-65 0 -116.5 23t-87 65.5t-54 103t-18.5 134.5zM829 306q0 -65 15 -116.5t43.5 -88t71 -56t98.5 -19.5t99 19.5t72 56t44 88t15 116.5q0 64 -15 116t-44 88.5t-72 56t-99 19.5t-98.5 -19.5t-71 -56t-43.5 -88.5t-15 -116z " />
<glyph unicode="&#x26;" horiz-adv-x="1371" d="M126 354q0 88 30.5 158.5t83 127t122.5 101.5t148 82q-37 42 -74.5 84t-68 87t-49.5 93.5t-19 103.5q0 65 23 119t65.5 92.5t104 59.5t138.5 21q93 0 173.5 -21t161.5 -65l-24 -52q-75 48 -150.5 69t-164.5 21q-65 0 -116 -18t-85.5 -50t-52.5 -75.5t-18 -94.5 q0 -53 20.5 -101t51 -91.5t67.5 -83t70 -75.5l425 -473q55 91 103.5 196.5t93.5 215.5l48 -29q-49 -115 -100 -223t-108 -202l294 -329l-44 -22l-278 307q-45 -69 -95 -125.5t-107 -97t-121.5 -62.5t-139.5 -22q-98 0 -173.5 26.5t-128 75t-79.5 117.5t-27 155zM178 348 q0 -69 22.5 -127.5t67 -100.5t109 -66t148.5 -24q69 0 129.5 21.5t114.5 60.5t101.5 93.5t90.5 120.5l-415 459q-77 -36 -144 -79.5t-117 -96.5t-78.5 -118t-28.5 -143z" />
<glyph unicode="'" horiz-adv-x="284" d="M114 1084v373l56 11v-384h-56z" />
<glyph unicode="(" horiz-adv-x="648" d="M174 672q0 316 85 570.5t248 437.5l33 -27q-156 -171 -239 -419t-83 -562t83 -562t239 -418l-33 -27q-163 183 -248 437t-85 570z" />
<glyph unicode=")" horiz-adv-x="648" d="M108 -308q158 170 240.5 418t82.5 562t-82.5 562t-240.5 419l33 27q165 -183 249 -437.5t84 -570.5t-84 -570t-249 -437z" />
<glyph unicode="*" horiz-adv-x="838" d="M104 1213l15 51l277 -95l-2 293h50l-2 -293l277 95l15 -51l-279 -86l176 -235l-42 -31l-169 241l-169 -241l-42 31l174 235z" />
<glyph unicode="+" horiz-adv-x="1331" d="M119 521v51h521v521h51v-521h521v-51h-521v-521h-51v521h-521z" />
<glyph unicode="," horiz-adv-x="396" d="M141 42q0 28 16 45t42 17t41 -17.5t15 -49.5q0 -17 -2 -33t-5 -31l-61 -274l-46 6l56 274q-24 0 -40 17t-16 46z" />
<glyph unicode="-" horiz-adv-x="746" d="M119 521v51h509v-51h-509z" />
<glyph unicode="." horiz-adv-x="396" d="M141 42q0 28 15.5 45t41.5 17t41.5 -17t15.5 -45q0 -29 -15.5 -46t-41.5 -17t-41.5 17t-15.5 46z" />
<glyph unicode="/" horiz-adv-x="894" d="M-121 -325l999 1996h50l-999 -1996h-50z" />
<glyph unicode="0" horiz-adv-x="1320" d="M162 731q0 166 34.5 305t99 238.5t156.5 155t208 55.5t208.5 -55.5t156.5 -155t98 -238.5t34 -305t-34 -304.5t-98 -238t-156.5 -155t-208.5 -55.5t-208 55.5t-156.5 155t-99 238t-34.5 304.5zM218 731q0 -156 29.5 -285t86 -221.5t138.5 -143.5t188 -51q105 0 187.5 51 t139 143.5t86.5 221.5t30 285t-30 285.5t-86.5 222.5t-139 144.5t-187.5 51.5q-106 0 -188 -51.5t-138.5 -144.5t-86 -222.5t-29.5 -285.5z" />
<glyph unicode="1" horiz-adv-x="572" d="M20 1369v49l346 65v-1483h-52v1425z" />
<glyph unicode="2" horiz-adv-x="1100" d="M97 1360q96 62 200.5 93.5t229.5 31.5q102 0 181 -24.5t132 -69.5t80.5 -109.5t27.5 -144.5q0 -46 -10 -88t-27 -80t-39.5 -73t-48.5 -66l-643 -782h789l-10 -48h-848v48l669 809q48 58 81 127t33 149q0 70 -23.5 126t-70 95t-115 60t-158.5 21q-117 0 -214 -31.5 t-189 -94.5z" />
<glyph unicode="3" horiz-adv-x="1141" d="M54 101l23 55q105 -66 210.5 -96.5t228.5 -30.5q97 0 172.5 25t128 71t80 110.5t27.5 142.5q0 80 -35 144t-97 108.5t-147 68t-186 23.5h-187v47h187q100 0 182.5 22t141.5 64.5t91.5 105t32.5 142.5q0 75 -26.5 136t-77 104.5t-123 67.5t-164.5 24q-117 0 -227 -28 t-204 -87l-25 52q99 59 214 86t242 27q104 0 186 -28.5t139 -79.5t87.5 -120.5t30.5 -151.5q0 -144 -87.5 -235t-243.5 -126q78 -17 142.5 -49t110.5 -78.5t71.5 -106t25.5 -132.5q0 -89 -31.5 -162t-91 -126t-145.5 -82t-196 -29q-128 0 -240.5 28.5t-219.5 93.5z" />
<glyph unicode="4" horiz-adv-x="1272" d="M87 388v48l774 1026h67v-1026h258l-11 -48h-247v-388h-50v388h-791zM152 436h726v966z" />
<glyph unicode="5" horiz-adv-x="1160" d="M97 102l23 55q100 -67 204 -97.5t224 -30.5q99 0 177 28.5t131.5 80.5t82 124.5t28.5 160.5q0 82 -29.5 148t-89.5 111.5t-151.5 70t-215.5 24.5h-251l90 685h678v-49h-633l-78 -586h194q139 0 240.5 -28t167.5 -80.5t98 -127t32 -168.5q0 -98 -32.5 -179.5t-93 -140 t-148 -91.5t-198.5 -33q-127 0 -236 28.5t-214 94.5z" />
<glyph unicode="6" horiz-adv-x="1246" d="M162 692q0 193 33 341.5t100 248.5t169 151.5t241 51.5q86 0 169.5 -17.5t158.5 -49.5l-26 -54q-68 32 -144.5 51.5t-159.5 19.5q-124 0 -214 -48t-149.5 -138t-89 -219.5t-32.5 -293.5q102 67 214.5 101t229.5 34q109 0 192 -32t138.5 -90t84 -139t28.5 -178 q0 -98 -30.5 -181t-89 -143.5t-143 -94.5t-193.5 -34q-133 0 -225.5 47.5t-150.5 138t-84.5 223.5t-26.5 304zM218 676q1 -153 23 -273t72.5 -202.5t133 -126t202.5 -43.5q98 0 173 30.5t126 84.5t77 127.5t26 158.5q0 87 -25 159t-74 123t-121.5 79t-168.5 28 q-115 0 -229.5 -36.5t-214.5 -108.5z" />
<glyph unicode="7" horiz-adv-x="1036" d="M64 1413v49h908v-49l-711 -1413h-61l715 1413h-851z" />
<glyph unicode="8" horiz-adv-x="1311" d="M162 374q0 75 25.5 138t71.5 115t109 93.5t137 73.5q-68 28 -122.5 59.5t-93 71.5t-59 90t-20.5 115q0 81 30.5 147t88 112t140 71t186.5 25q103 0 185.5 -25.5t140.5 -72.5t89 -113.5t31 -148.5q0 -70 -23 -126.5t-64 -103t-97 -84t-122 -70.5q81 -31 146.5 -65.5 t111 -78.5t70.5 -100t25 -129q0 -89 -34 -161t-98 -122.5t-155 -78t-206 -27.5t-206.5 28t-155 80t-97.5 125t-34 162zM218 375q0 -79 29.5 -142.5t85.5 -108.5t137 -69t185 -24t185.5 23.5t138 67.5t86 106.5t29.5 140.5q0 77 -33 132t-92.5 96.5t-141.5 74.5t-180 68 l-83 29q-75 -26 -138.5 -65.5t-109.5 -90t-72 -111t-26 -127.5zM266 1126q0 -69 29.5 -118.5t82 -88t125 -69.5t159.5 -61l74 -26q66 28 123 64t98.5 81t65 98.5t23.5 115.5q0 72 -26.5 129.5t-76.5 98.5t-122.5 63t-165.5 22q-92 0 -164.5 -21.5t-122.5 -61t-76 -97 t-26 -129.5z" />
<glyph unicode="9" horiz-adv-x="1246" d="M141 1032q0 98 30.5 181t89 143.5t143 94.5t193.5 34q132 0 225 -47t151 -138t84.5 -224t26.5 -304q0 -194 -33 -342t-100 -248t-169.5 -151.5t-241.5 -51.5q-85 0 -168.5 17.5t-158.5 49.5l26 54q68 -32 144.5 -51.5t159.5 -19.5q124 0 214 48t149 138t88.5 219.5 t32.5 293.5q-101 -67 -213.5 -101.5t-230.5 -34.5q-109 0 -192 32t-138.5 90.5t-83.5 139t-28 178.5zM195 1032q0 -87 25 -159t74 -123.5t121.5 -79.5t167.5 -28q115 0 230 37t214 109q0 153 -22.5 273t-72.5 202.5t-132.5 126t-202.5 43.5q-98 0 -173 -31t-126 -85 t-77 -127t-26 -158z" />
<glyph unicode=":" horiz-adv-x="440" d="M163 42q0 28 15.5 45t41.5 17t41.5 -17t15.5 -45q0 -29 -15.5 -46t-41.5 -17t-41.5 17t-15.5 46zM163 1051q0 28 15.5 46t41.5 18t41.5 -18t15.5 -46t-15.5 -45.5t-41.5 -17.5t-41.5 17.5t-15.5 45.5z" />
<glyph unicode=";" horiz-adv-x="440" d="M163 42q0 28 16 45t42 17t41 -17.5t15 -49.5q0 -17 -2 -33t-5 -31l-61 -274l-46 6l56 274q-24 0 -40 17t-16 46zM163 1051q0 28 15.5 46t41.5 18t41.5 -18t15.5 -46t-15.5 -45.5t-41.5 -17.5t-41.5 17.5t-15.5 45.5z" />
<glyph unicode="&#x3c;" horiz-adv-x="1220" d="M119 516v61l939 436v-54l-901 -413l901 -412v-54z" />
<glyph unicode="=" horiz-adv-x="1417" d="M162 300v51h1093v-51h-1093zM162 741v52h1093v-52h-1093z" />
<glyph unicode="&#x3e;" horiz-adv-x="1220" d="M162 80v54l901 412l-901 413v54l939 -436v-61z" />
<glyph unicode="?" horiz-adv-x="945" d="M10 1363q101 60 204.5 90t215.5 30q89 0 162.5 -25.5t126.5 -71.5t82.5 -110t29.5 -141t-21.5 -137t-57 -105.5t-81.5 -78.5t-95.5 -55t-99 -35.5t-90.5 -20.5v-270l-50 -10v318q226 37 334 135.5t108 266.5q0 53 -22 105t-66 93t-109.5 66t-152.5 25 q-104 0 -203.5 -30.5t-190.5 -90.5zM305 42q0 28 15.5 45t41.5 17t41.5 -17t15.5 -45q0 -29 -15.5 -46t-41.5 -17t-41.5 17t-15.5 46z" />
<glyph unicode="@" horiz-adv-x="1904" d="M10 348q0 156 32.5 301.5t95 272.5t152.5 232t205 179.5t253.5 116t296.5 41.5q190 0 346 -49.5t268 -148t173.5 -244.5t61.5 -339q0 -83 -11.5 -165.5t-35.5 -157.5t-61.5 -140t-89.5 -113t-119.5 -75t-151.5 -27q-41 0 -78.5 12t-66 35t-45.5 57.5t-18 79.5 q-38 -33 -77 -66t-82 -59t-91.5 -42.5t-103.5 -16.5q-84 0 -145.5 26.5t-102.5 75t-61 117.5t-20 155q0 121 27 233t82 197.5t138 136.5t194 51q51 0 98 -13t89 -34.5t78.5 -49.5t66.5 -58l16 128l50 10l-106 -749q-3 -18 -3 -34q0 -69 45 -105.5t121 -36.5t136 26.5t106 72 t78 106.5t52.5 130.5t30 143.5t9.5 145q0 183 -58 320.5t-163.5 229.5t-253.5 138.5t-328 46.5q-150 0 -281 -39t-239.5 -109.5t-194 -170t-144 -220t-89.5 -259t-31 -287.5q0 -182 59.5 -320.5t166 -232t254.5 -141t325 -47.5q154 0 285 38t240 111l21 -44 q-115 -75 -253.5 -115.5t-299.5 -40.5q-187 0 -342.5 51t-268 150t-175 245.5t-62.5 337.5zM580 419q0 -77 17.5 -140t53.5 -108t90.5 -70t127.5 -25q49 0 95 18t90 46.5t86 64.5t83 71l75 530q-33 36 -70.5 68t-79 55.5t-86.5 37t-93 13.5q-66 0 -120 -22t-97.5 -60.5 t-75.5 -91.5t-53.5 -115.5t-32 -131.5t-10.5 -140z" />
<glyph unicode="A" horiz-adv-x="1347" d="M29 0l610 1462h69l610 -1462h-59l-198 478h-775l-198 -478h-59zM306 530h736l-368 889z" />
<glyph unicode="B" horiz-adv-x="1200" d="M196 0v1462h399q95 0 176 -23t140 -69.5t92.5 -116t33.5 -162.5q0 -74 -22 -132t-61 -100.5t-93.5 -71t-119.5 -42.5q72 -14 132 -43.5t103 -74.5t67 -105.5t24 -138.5q0 -96 -35.5 -168t-98.5 -120t-149.5 -71.5t-188.5 -23.5h-399zM251 49h343q90 0 166 20.5t131 62 t86 104.5t31 147q0 85 -31 148.5t-86 105t-131 62t-166 20.5h-343v-670zM251 768h343q83 0 154 19.5t122.5 59t80.5 100t29 143.5q0 82 -29 142.5t-80.5 100.5t-122.5 59t-154 19h-343v-643z" />
<glyph unicode="C" horiz-adv-x="1281" d="M135 731q0 169 46 307.5t130 237.5t201 153t260 54q114 0 220 -26.5t195 -80.5l-26 -55q-82 54 -182 81.5t-206 27.5q-131 0 -238.5 -50.5t-183.5 -142t-117.5 -220.5t-41.5 -286q0 -158 41.5 -287t117.5 -220.5t183.5 -141.5t238.5 -50q106 0 206 26.5t182 80.5l26 -54 q-89 -54 -195 -79.5t-220 -25.5q-143 0 -260 54t-201 152t-130 236.5t-46 308.5z" />
<glyph unicode="D" horiz-adv-x="1488" d="M196 0v1462h434q159 0 291.5 -45t228.5 -136t149.5 -228.5t53.5 -321.5q0 -185 -53.5 -322.5t-149.5 -228t-228.5 -135.5t-291.5 -45h-434zM251 50h379q147 0 269 41t210 125.5t137 212.5t49 302q0 173 -49 301t-137 212t-210 125t-269 41h-379v-1360z" />
<glyph unicode="E" horiz-adv-x="1107" d="M196 0v1462h840v-52h-785v-642h608v-50h-608v-668h785v-50h-840z" />
<glyph unicode="F" horiz-adv-x="1046" d="M196 0v1462h840v-52h-785v-642h608v-50h-608v-718h-55z" />
<glyph unicode="G" horiz-adv-x="1423" d="M135 731q0 169 49 307.5t137.5 237.5t211.5 153t270 54q112 0 224.5 -25.5t219.5 -77.5l-23 -57q-100 54 -207.5 81t-213.5 27q-135 0 -247.5 -50.5t-193.5 -142.5t-125.5 -221t-44.5 -286q0 -158 44.5 -287t125 -221t193 -142t248.5 -50q100 0 204 22t195 65v554h-405 v50h460v-646q-47 -25 -101.5 -43t-113.5 -30t-119.5 -17.5t-119.5 -5.5q-147 0 -270 54t-211.5 152t-137.5 236.5t-49 308.5z" />
<glyph unicode="H" horiz-adv-x="1462" d="M196 0v1462h55v-693h960v693h55v-1462h-55v718h-960v-718h-55z" />
<glyph unicode="I" horiz-adv-x="447" d="M196 0v1462h55v-1462h-55z" />
<glyph unicode="J" horiz-adv-x="447" d="M-61 -412q72 30 121 72t79 94.5t43.5 114t13.5 132.5v1461h55v-1461q0 -81 -15.5 -151.5t-50 -128.5t-89 -104.5t-131.5 -79.5z" />
<glyph unicode="K" horiz-adv-x="1201" d="M196 0v1462h55v-713l816 713h77l-824 -717l854 -745h-81l-842 738v-738h-55z" />
<glyph unicode="L" horiz-adv-x="969" d="M196 0v1462h55v-1412h708v-50h-763z" />
<glyph unicode="M" horiz-adv-x="1780" d="M196 0v1462h55l638 -874l637 874h58v-1462h-55v1379l-640 -879l-638 878v-1378h-55z" />
<glyph unicode="N" horiz-adv-x="1506" d="M196 0v1462h56l1006 -1376l-4 1376h56v-1462h-56l-1005 1378l2 -1378h-55z" />
<glyph unicode="O" horiz-adv-x="1557" d="M135 731q0 169 47 307.5t132.5 237.5t203.5 153t261 54t261.5 -54t203 -153t131.5 -237.5t47 -307.5q0 -170 -47 -308.5t-131.5 -236.5t-203 -152t-261.5 -54t-261 54t-203.5 152t-132.5 236.5t-47 308.5zM192 731q0 -158 42.5 -287t119.5 -221t185.5 -142t239.5 -50 t239.5 50t186 142t120 221t42.5 287q0 157 -42.5 286t-120 220.5t-186 142t-239.5 50.5t-239.5 -50.5t-185.5 -142t-119.5 -220.5t-42.5 -286z" />
<glyph unicode="P" horiz-adv-x="1179" d="M196 0v1462h398q102 0 189 -25.5t150 -77t98.5 -129t35.5 -180.5q0 -105 -36.5 -182.5t-100 -128.5t-150 -76.5t-186.5 -25.5h-343v-637h-55zM251 686h342q91 0 167 22t131 67t86 113t31 160q0 93 -31 161t-86 113t-131 67t-167 22h-342v-725z" />
<glyph unicode="Q" horiz-adv-x="1557" d="M135 731q0 169 47 307.5t132.5 237.5t203.5 153t261 54t261.5 -54t203 -153t131.5 -237.5t47 -307.5q0 -130 -28 -242t-79.5 -202.5t-125.5 -157t-166 -103.5l300 -349l-64 -12l-290 342q-45 -13 -92 -20t-98 -7q-143 0 -261 54t-203.5 152t-132.5 236.5t-47 308.5z M192 731q0 -158 42.5 -287t119.5 -221t185.5 -142t239.5 -50t239.5 50t186 142t120 221t42.5 287q0 157 -42.5 286t-120 220.5t-186 142t-239.5 50.5t-239.5 -50.5t-185.5 -142t-119.5 -220.5t-42.5 -286z" />
<glyph unicode="R" horiz-adv-x="1237" d="M196 0v1462h398q102 0 189 -25.5t150 -77t98.5 -129t35.5 -180.5q0 -104 -36.5 -181.5t-101 -128.5t-151.5 -77t-189 -26l567 -637h-69l-571 637h-265v-637h-55zM251 686h342q91 0 167 22t131 67t86 113t31 160q0 93 -31 161t-86 113t-131 67t-167 22h-342v-725z" />
<glyph unicode="S" horiz-adv-x="1118" d="M112 120l25 53q97 -65 207.5 -103.5t225.5 -38.5q88 0 158 24.5t119 68.5t75.5 106t26.5 136q0 75 -30 127.5t-82.5 91.5t-125 70.5t-156.5 64.5q-97 38 -174.5 73.5t-131.5 78.5t-82.5 99.5t-28.5 137.5q0 80 30.5 148.5t85.5 118.5t132 78.5t170 28.5q118 0 226 -35.5 t202 -92.5l-26 -56q-88 58 -190 95t-211 37q-83 0 -150 -24.5t-114 -67.5t-73 -102t-26 -129q0 -73 29.5 -123t81 -87t123 -67t155.5 -63q98 -39 176.5 -75.5t133 -81.5t84 -103.5t29.5 -140.5q0 -86 -31 -157t-88 -122t-138.5 -79.5t-182.5 -28.5q-121 0 -236 36t-218 104z " />
<glyph unicode="T" horiz-adv-x="1107" d="M10 1410v52h1087v-52h-515v-1410h-56v1410h-516z" />
<glyph unicode="U" horiz-adv-x="1418" d="M176 547v915h55v-915q0 -122 34.5 -218t97.5 -162t151 -101t195 -35t195 35t151 101t97.5 162t34.5 218v915h55v-915q0 -135 -38.5 -240t-109 -178t-168.5 -111t-217 -38t-217 38t-168.5 111t-109 178t-38.5 240z" />
<glyph unicode="V" horiz-adv-x="1329" d="M29 1462h59l577 -1419l576 1419h58l-599 -1462h-71z" />
<glyph unicode="W" horiz-adv-x="2090" d="M42 1462h57l433 -1417l479 1417h66l479 -1417l435 1417h57l-458 -1462h-68l-477 1404l-477 -1404h-70z" />
<glyph unicode="X" horiz-adv-x="1312" d="M30 0l590 743l-568 719h69l535 -674l535 674h70l-568 -719l589 -743h-71l-555 699l-555 -699h-71z" />
<glyph unicode="Y" horiz-adv-x="1263" d="M-11 1462h70l570 -820l571 820h74l-617 -877v-585h-55v585z" />
<glyph unicode="Z" horiz-adv-x="1132" d="M72 0v50l928 1361l-928 -1v52h988v-52l-925 -1360h925v-50h-988z" />
<glyph unicode="[" horiz-adv-x="701" d="M218 -325v1996h364v-39h-321v-1920h321v-37h-364z" />
<glyph unicode="\" horiz-adv-x="894" d="M-34 1671h50l999 -1996h-50z" />
<glyph unicode="]" horiz-adv-x="701" d="M119 -288h318v1920h-318v39h364v-1996h-364v37z" />
<glyph unicode="^" horiz-adv-x="954" d="M94 885l356 577h56l354 -577h-48l-335 541l-335 -541h-48z" />
<glyph unicode="_" horiz-adv-x="1178" d="M10 -272h1158v-40h-1158v40z" />
<glyph unicode="`" horiz-adv-x="1285" d="M469 1568l68 9l280 -286l-61 -8z" />
<glyph unicode="a" horiz-adv-x="1095" d="M108 260q0 80 28.5 138t82 98t129 64t169.5 35l352 42v96q0 171 -81.5 251t-247.5 80q-106 0 -196.5 -25t-171.5 -79l-25 54q88 50 183.5 75.5t208.5 25.5q187 0 284.5 -92t97.5 -288v-541q0 -45 2.5 -96.5t9.5 -97.5h-57l-7 154q-40 -36 -87 -67.5t-100 -55.5t-112 -38 t-123 -14q-87 0 -150.5 21t-105.5 58.5t-62.5 89t-20.5 112.5zM160 268q0 -51 16 -95t51 -76t90 -50t133 -18q58 0 115.5 15.5t111.5 42t102.5 62.5t89.5 78v360l-336 -40q-86 -10 -154.5 -30.5t-117.5 -53.5t-75 -81t-26 -114z" />
<glyph unicode="b" d="M185 0v1563l52 12v-639q38 34 79.5 66t88 57t98.5 40.5t111 15.5q111 0 194 -41.5t138 -116.5t82 -179.5t27 -230.5t-27 -230.5t-82 -179.5t-138 -116.5t-194 -41.5q-59 0 -111 15t-98.5 40t-88 57t-79.5 66v-157h-52zM237 229q42 -41 85.5 -77t90 -63t96 -42.5 t105.5 -15.5q98 0 170.5 38t120.5 106.5t71.5 163t23.5 208.5q0 113 -24 207.5t-72 163t-120.5 106.5t-169.5 38q-56 0 -105.5 -16t-96 -43t-90 -63t-85.5 -76v-635z" />
<glyph unicode="c" horiz-adv-x="986" d="M119 545q0 125 30 230t88.5 180.5t144 117.5t195.5 42q97 0 184 -29.5t161 -84.5q0 -1 -4.5 -9t-9.5 -18q-6 -11 -13 -25q-71 56 -149 85.5t-169 29.5q-99 0 -174.5 -40.5t-126.5 -110.5t-77.5 -164.5t-26.5 -203.5q0 -108 26.5 -201.5t77.5 -163t126.5 -109.5t174.5 -40 q91 0 169 29.5t149 85.5l27 -54q-74 -55 -161 -84t-184 -29q-110 0 -195.5 41.5t-144 116.5t-88.5 179t-30 229z" />
<glyph unicode="d" horiz-adv-x="1174" d="M118 547q0 126 27 230.5t82 179.5t138 116.5t194 41.5q59 0 110.5 -15.5t98 -40.5t88 -57t80.5 -66v627l53 12v-1575h-53v157q-39 -34 -80.5 -66t-88 -57t-98 -40t-110.5 -15q-111 0 -194 41.5t-138 116.5t-82 179.5t-27 230.5zM173 547q0 -114 23.5 -208.5t71.5 -163 t120.5 -106.5t170.5 -38q54 0 103.5 15.5t96 42.5t90.5 63t87 77v635q-43 40 -86.5 76t-89.5 63t-96 43t-105 16q-98 0 -170.5 -38t-120.5 -106.5t-71.5 -163t-23.5 -207.5z" />
<glyph unicode="e" horiz-adv-x="1139" d="M119 545q0 134 35.5 240t98 179.5t147.5 112t184 38.5q108 0 189.5 -40t136.5 -110.5t82.5 -166.5t27.5 -207v-24h-848q1 -119 29.5 -217.5t83 -169t133 -110t179.5 -39.5q58 0 108 8.5t96 26t89 43.5t86 61l24 -52q-84 -69 -184 -104t-219 -35q-111 0 -199.5 41 t-150.5 115.5t-95 179t-33 230.5zM172 616h793q-2 84 -26 164.5t-71.5 143.5t-117.5 101.5t-164 38.5q-92 0 -165 -34.5t-125.5 -94.5t-83.5 -142t-40 -177z" />
<glyph unicode="f" horiz-adv-x="632" d="M10 1045v48h218v116q0 81 14.5 148t48 115.5t89 75.5t137.5 27q57 0 108.5 -12t96.5 -38l-26 -55q-41 26 -84.5 40.5t-92.5 14.5q-70 0 -116 -24t-73 -67t-38 -103t-11 -132v-106h389l-11 -48h-378v-1045h-53v1045h-218z" />
<glyph unicode="g" horiz-adv-x="1161" d="M118 554q0 127 27 230.5t82 177t138 113.5t194 40q59 0 110.5 -15.5t98 -40.5t88 -57t80.5 -66v150l51 11v-1102q0 -237 -115.5 -357t-327.5 -120q-115 0 -213.5 28t-190.5 86l26 52q81 -57 175.5 -86.5t202.5 -29.5q193 0 292.5 108t99.5 319v180q-39 -34 -80.5 -66 t-88 -56.5t-98 -39.5t-110.5 -15q-111 0 -194 39.5t-138 112.5t-82 175.5t-27 228.5zM173 554q0 -113 23.5 -206t71.5 -160t120.5 -103.5t170.5 -36.5q55 0 105 15.5t96 42.5t89.5 63.5t86.5 78.5v616q-43 40 -87 76t-90.5 63t-96 43t-103.5 16q-98 0 -170.5 -37 t-120.5 -103.5t-71.5 -160t-23.5 -207.5z" />
<glyph unicode="h" horiz-adv-x="1184" d="M185 0v1563l52 12v-661q38 33 86 69t102 65t113 48t120 19q95 0 163.5 -25.5t113 -73t66 -115.5t21.5 -153v-748h-50v739q0 76 -18 136.5t-56.5 101.5t-98.5 63t-144 22q-57 0 -112.5 -18.5t-108.5 -49t-102.5 -71t-94.5 -84.5v-839h-52z" />
<glyph unicode="i" horiz-adv-x="400" d="M147 1435q0 24 14 39.5t38 15.5t38 -15.5t14 -39.5q0 -23 -14 -38.5t-38 -15.5t-38 15.5t-14 38.5zM174 0v1086l52 11v-1097h-52z" />
<glyph unicode="j" horiz-adv-x="400" d="M-55 -437q58 26 101 57.5t71.5 74.5t42.5 101t14 137v1153l52 11v-1164q0 -89 -16 -154.5t-48.5 -114t-81 -83.5t-114.5 -63zM147 1435q0 24 14 39.5t38 15.5t38 -15.5t14 -39.5q0 -23 -14 -38.5t-38 -15.5t-38 15.5t-14 38.5z" />
<glyph unicode="k" horiz-adv-x="1050" d="M185 0v1563l52 12v-992l647 510h86l-661 -517l687 -576h-85l-674 572v-572h-52z" />
<glyph unicode="l" horiz-adv-x="422" d="M185 0v1563l52 12v-1575h-52z" />
<glyph unicode="m" horiz-adv-x="1852" d="M174 0v1086l52 11v-183q34 30 77.5 65.5t93 65.5t104 50t111.5 20q136 0 217.5 -57t109.5 -155q36 33 82.5 70t99 68.5t109.5 52.5t114 21q93 0 158.5 -26.5t107.5 -75t61 -116t19 -149.5v-748h-53v739q0 73 -15.5 132.5t-50.5 102t-91.5 65.5t-137.5 23 q-55 0 -107.5 -20t-101 -52t-93 -71t-83.5 -77v-842h-52v739q0 73 -15.5 132.5t-50.5 102t-91 65.5t-136 23q-56 0 -108.5 -20t-101 -52.5t-93 -72t-83.5 -78.5v-839h-52z" />
<glyph unicode="n" d="M174 0v1086l52 11v-183q38 33 85.5 69t101.5 65t113 48t121 19q95 0 163.5 -25.5t113 -73t66 -115.5t21.5 -153v-748h-50v739q0 76 -18 136.5t-56.5 101.5t-98.5 63t-143 22q-57 0 -113 -18.5t-109 -49t-102.5 -71t-94.5 -84.5v-839h-52z" />
<glyph unicode="o" horiz-adv-x="1208" d="M118 547q0 123 32.5 227.5t94.5 180t152 118t206 42.5t206.5 -42.5t153 -118t95 -180t32.5 -227.5t-32.5 -227.5t-95 -180t-153 -118t-206.5 -42.5t-206 42.5t-152 118t-94.5 180t-32.5 227.5zM173 547q0 -114 28 -208.5t82 -163t134.5 -106.5t185.5 -38q106 0 186.5 38 t135 106.5t82.5 163t28 208.5q0 113 -28 208t-82.5 163.5t-135 107t-186.5 38.5q-105 0 -185.5 -38.5t-134.5 -107t-82 -163.5t-28 -208z" />
<glyph unicode="p" d="M185 -460v1546l52 11v-161q38 34 79.5 66t88 57t98.5 40.5t111 15.5q111 0 194 -42t138 -117t82 -180t27 -231t-27 -230t-82 -178.5t-138 -116t-194 -41.5q-59 0 -111 15t-98.5 40t-88 57t-79.5 66v-617h-52zM237 229q42 -41 85.5 -77t90 -63t96 -42.5t105.5 -15.5 q97 0 169.5 38t120.5 106t72 162.5t24 207.5q0 114 -23.5 209t-71.5 163.5t-120.5 106.5t-170.5 38q-56 0 -105.5 -16t-96 -43t-90 -63t-85.5 -76v-635z" />
<glyph unicode="q" horiz-adv-x="1172" d="M118 545q0 126 27 231t82 180t138 117t194 42q59 0 110.5 -15.5t98 -40.5t88 -57t80.5 -66v148l51 11v-1555h-51v617q-39 -34 -80.5 -66t-88 -57t-98 -40t-110.5 -15q-111 0 -194 41.5t-138 116t-82 178.5t-27 230zM173 545q0 -113 23.5 -207.5t71.5 -162.5t120.5 -106 t170.5 -38q55 0 105 15.5t96 42.5t89.5 63t86.5 77v635q-43 40 -87 76t-90.5 63t-96 43t-103.5 16q-98 0 -170.5 -38t-120.5 -106.5t-71.5 -163.5t-23.5 -209z" />
<glyph unicode="r" horiz-adv-x="764" d="M174 0v1086l52 11v-185q40 43 77 80t77.5 64.5t86 43t101.5 15.5q48 0 94.5 -11.5t91.5 -32.5l-26 -53q-36 23 -78 33.5t-85 10.5q-53 0 -98 -18t-85.5 -48.5t-78.5 -71t-77 -85.5v-839h-52z" />
<glyph unicode="s" horiz-adv-x="1015" d="M112 87l27 55q87 -61 187 -87t208 -26q69 0 127 18.5t99 50.5t64 75.5t23 94.5q0 57 -22.5 98t-66 71t-107 52t-144.5 43q-83 21 -148.5 45.5t-111.5 59t-70.5 81t-24.5 111.5q0 64 26.5 117t74.5 90.5t114.5 58t146.5 20.5q103 0 194 -23.5t178 -73.5l-25 -54 q-84 55 -168 77.5t-184 22.5q-68 0 -124 -17.5t-95.5 -48.5t-61.5 -73t-22 -90q0 -55 22 -94t64 -68.5t103.5 -51.5t140.5 -43q82 -22 149.5 -46.5t115.5 -59t74.5 -82t26.5 -115.5t-27.5 -122.5t-77.5 -93t-119 -59.5t-151 -21q-109 0 -215 26t-200 82z" />
<glyph unicode="t" horiz-adv-x="741" d="M10 1045v48h218v295l53 10v-305h389l-10 -48h-379v-691q0 -72 9 -131.5t33.5 -102t69.5 -66t117 -23.5q49 0 91.5 12t83.5 38l25 -52q-47 -26 -96.5 -38t-105.5 -12q-84 0 -138 27t-85.5 76t-44 116.5t-12.5 148.5v698h-218z" />
<glyph unicode="u" horiz-adv-x="1174" d="M162 347v739l54 11v-743q0 -77 18 -137t56 -101t97 -63t142 -22q58 0 114 18t109 48.5t102.5 71t95.5 84.5v833l50 11v-1097h-50v179q-39 -34 -87 -69.5t-102 -64.5t-113.5 -47.5t-120.5 -18.5q-94 0 -163 25.5t-114 73t-66.5 115.5t-21.5 154z" />
<glyph unicode="v" horiz-adv-x="1058" d="M43 1093h59l429 -1039l428 1039h56l-455 -1093h-59z" />
<glyph unicode="w" horiz-adv-x="1675" d="M54 1093h56l316 -1028l389 1028h59l383 -1026l308 1026h56l-335 -1093h-59l-384 1026l-388 -1026h-59z" />
<glyph unicode="x" horiz-adv-x="1047" d="M43 0l446 574l-404 519h65l374 -477l369 477h65l-402 -519l448 -574h-67l-416 532l-413 -532h-65z" />
<glyph unicode="y" horiz-adv-x="1060" d="M43 1093h59l427 -1037l430 1037h58l-541 -1287q-22 -52 -46.5 -95.5t-55 -78.5t-69.5 -63.5t-89 -50.5l-23 45q45 20 80.5 47t63 60t49.5 72t40 83l73 175z" />
<glyph unicode="z" horiz-adv-x="992" d="M87 0v48l743 997h-743v48h808v-48l-743 -997h755l-12 -48h-808z" />
<glyph unicode="{" horiz-adv-x="718" d="M97 652v39q55 19 98 39t72.5 48t45 66.5t15.5 93.5v401q0 75 17 128t49.5 92t79.5 67t108 54l17 -38q-54 -24 -96.5 -49t-72 -59t-45 -81t-15.5 -114v-401q0 -57 -15 -98.5t-43.5 -72.5t-70 -53.5t-94.5 -41.5q53 -20 94.5 -42.5t70 -53t43.5 -72t15 -98.5v-402 q0 -67 15.5 -114t45 -80.5t72 -58.5t96.5 -48l-17 -38q-61 26 -108 54t-79.5 66.5t-49.5 91t-17 127.5v402q0 55 -15.5 93t-45 66t-72.5 48t-98 39z" />
<glyph unicode="|" horiz-adv-x="457" d="M206 -325v1996h44v-1996h-44z" />
<glyph unicode="}" horiz-adv-x="718" d="M119 -297q55 23 98 48t72.5 58.5t45 80.5t15.5 114v402q0 57 15 98.5t43 72t69 53t93 42.5q-52 19 -93 41.5t-69 53.5t-43 72.5t-15 98.5v401q0 67 -15.5 114t-45 81t-72.5 59t-98 49l18 38q60 -26 107.5 -54t80 -67t49.5 -92t17 -128v-401q0 -55 15.5 -93.5t45 -66.5 t72 -48t96.5 -39v-39q-54 -19 -96.5 -39t-72 -48t-45 -66t-15.5 -93v-402q0 -75 -17 -127.5t-49.5 -91t-80 -66.5t-107.5 -54z" />
<glyph unicode="~" horiz-adv-x="1309" d="M97 530q78 63 152.5 94t150.5 31q69 0 139 -24.5t148 -74.5q106 -68 220 -68q74 0 144.5 30t133.5 92l27 -47q-78 -63 -152.5 -94t-150.5 -31q-69 0 -139 24.5t-148 74.5q-106 68 -220 68q-74 0 -144.5 -30t-133.5 -92z" />
<glyph unicode="&#xa1;" horiz-adv-x="506" d="M196 1053q0 28 15.5 45t41.5 17t41.5 -17t15.5 -45q0 -29 -15.5 -46t-41.5 -17t-41.5 17t-15.5 46zM228 -368v1028l50 10v-1038h-50z" />
<glyph unicode="&#xa2;" horiz-adv-x="1017" d="M119 600q0 120 28.5 221t84 175.5t137 119t186.5 51.5v227h46v-225q99 -2 187.5 -31t164.5 -83l-27 -54q-72 57 -152 86.5t-173 29.5v-1032q93 0 173 29.5t152 83.5l27 -52q-76 -54 -164.5 -82.5t-187.5 -30.5v-227h-46v229q-105 6 -186.5 50.5t-137 119t-84 175 t-28.5 220.5zM172 600q0 -103 25 -194t73.5 -160t120 -111.5t164.5 -49.5v1032q-93 -8 -164.5 -51.5t-120 -112.5t-73.5 -159.5t-25 -193.5z" />
<glyph unicode="&#xa3;" d="M72 599l8 40h171l23 209h-168l6 40h166l23 231q8 83 35.5 150t76 114.5t118 73.5t162.5 26q97 0 184.5 -20t165.5 -62l-16 -56q-147 90 -332 90q-82 0 -142.5 -23t-102 -65t-65 -100t-31.5 -128l-26 -231h570l-11 -40h-563l-21 -209h526l-10 -40h-520l-59 -551h881 l-8 -48h-929l62 599h-174z" />
<glyph unicode="&#xa4;" d="M64 242l219 219q-46 53 -70 121t-24 149q0 82 24 149.5t70 121.5l-219 218l35 33l219 -216q51 44 119 69t149 25q82 0 151 -25t120 -69l217 216l35 -33l-218 -218q45 -54 69 -121.5t24 -149.5q0 -81 -24 -149t-69 -121l218 -219l-35 -32l-217 216q-51 -45 -120 -68.5 t-151 -23.5q-81 0 -149 23.5t-119 68.5l-219 -216zM237 731q0 -78 25.5 -142t71 -110t110 -71.5t142.5 -25.5t143 25.5t111 71.5t71.5 110t25.5 142t-25.5 142.5t-71.5 110.5t-111 71.5t-143 25.5t-142.5 -25.5t-110 -71.5t-71 -110.5t-25.5 -142.5z" />
<glyph unicode="&#xa5;" horiz-adv-x="1243" d="M42 1462h66l513 -710l514 710h66l-552 -761h472v-39h-472v-210h472v-40h-472v-412h-53v412h-475v40h475v210h-475v39h475z" />
<glyph unicode="&#xa6;" horiz-adv-x="457" d="M206 -325v791h44v-791h-44zM206 879v792h44v-792h-44z" />
<glyph unicode="&#xa7;" d="M114 524q0 136 83.5 228t262.5 149q-59 22 -107 49t-82.5 62t-53.5 79t-19 100q0 71 27.5 126.5t78 94t120.5 59t156 20.5q106 0 206.5 -29.5t188.5 -83.5l-22 -53q-81 53 -178.5 85.5t-197.5 32.5q-75 0 -135 -17.5t-102 -49.5t-64.5 -78t-22.5 -103q0 -62 27.5 -107.5 t76.5 -79.5t116 -59.5t146 -47.5q88 -24 168 -58t140.5 -81t96 -110t35.5 -145q0 -137 -82 -229.5t-261 -147.5q59 -23 107 -50.5t82.5 -63t53 -80t18.5 -100.5q0 -71 -27.5 -126.5t-77.5 -93.5t-120.5 -58.5t-157.5 -20.5q-104 0 -204.5 29.5t-191.5 83.5l26 52 q39 -26 83.5 -47t92 -37t97 -24.5t99.5 -8.5q75 0 135.5 17.5t103 49.5t65.5 78t23 102q0 63 -27.5 109t-76.5 80.5t-116 60t-146 46.5q-89 24 -169.5 58t-141 81.5t-96.5 110.5t-36 146zM170 528q0 -69 33 -124t89 -98t129 -75.5t154 -56.5l63 -19q191 50 280 136.5 t89 208.5q0 69 -33 124.5t-89.5 98.5t-130.5 75.5t-156 56.5l-62 18q-192 -50 -279 -136.5t-87 -208.5z" />
<glyph unicode="&#xa8;" horiz-adv-x="1285" d="M380 1438q0 22 13 36t35 14t34.5 -14t12.5 -36t-12.5 -36t-34.5 -14t-35 14t-13 36zM812 1438q0 22 12.5 36t34.5 14t34.5 -14t12.5 -36t-12.5 -36t-34.5 -14t-34.5 14t-12.5 36z" />
<glyph unicode="&#xa9;" horiz-adv-x="1886" d="M136 731q0 115 27.5 219.5t79 194.5t124 162.5t162.5 124t194.5 79.5t220.5 28q115 0 219.5 -28t194 -79.5t162 -124t124 -162.5t79 -194.5t27.5 -219.5t-27.5 -219.5t-79 -194.5t-124 -162.5t-162 -123.5t-194 -79t-219.5 -28q-116 0 -220.5 28t-194.5 79t-162.5 123.5 t-124 162.5t-79 194.5t-27.5 219.5zM188 731q0 -164 56.5 -303.5t157 -240.5t239.5 -158t303 -57q109 0 207 26t182 73.5t152 115.5t115.5 152.5t73.5 183t26 208.5q0 164 -57 303t-158 240t-239.5 158t-301.5 57q-110 0 -208.5 -25.5t-182.5 -73.5t-151.5 -116t-115 -152 t-73 -183t-25.5 -208zM460 731q0 122 37.5 219.5t104.5 165.5t159.5 104.5t203.5 36.5q94 0 176.5 -33.5t153.5 -86.5l-24 -52q-34 26 -69.5 48.5t-73.5 39t-79 25.5t-84 9q-99 0 -182.5 -34.5t-144 -97.5t-94.5 -150.5t-34 -193.5t34 -193.5t94.5 -150t144 -97t182.5 -34.5 q88 0 163 33.5t143 87.5l24 -53q-71 -51 -153.5 -83.5t-176.5 -32.5q-111 0 -203.5 36t-159.5 103.5t-104.5 164.5t-37.5 219z" />
<glyph unicode="&#xaa;" horiz-adv-x="726" d="M114 1015q0 90 62 134t176 56l190 20v46q0 96 -44.5 135t-133.5 39q-115 0 -206 -61l-20 44q50 27 105.5 41t118.5 14q110 0 166 -50.5t56 -159.5v-300q0 -23 1.5 -51t4.5 -55h-46l-2 86q-45 -39 -101.5 -67.5t-128.5 -28.5q-50 0 -87.5 12t-62 33t-36.5 50t-12 63z M158 1019q0 -26 8.5 -48.5t28 -39t50.5 -25.5t75 -9q65 0 122 29t100 73v186l-176 -18q-96 -10 -152 -45.5t-56 -102.5z" />
<glyph unicode="&#xab;" horiz-adv-x="744" d="M75 545l259 404h52l-253 -404l253 -403h-52zM354 545l259 404h55l-253 -404l253 -403h-55z" />
<glyph unicode="&#xac;" horiz-adv-x="1376" d="M119 521v51h1093v-572h-52v521h-1041z" />
<glyph unicode="&#xad;" horiz-adv-x="746" d="M119 521v51h509v-51h-509z" />
<glyph unicode="&#xae;" horiz-adv-x="1007" d="M136 1117q0 79 27 146.5t75.5 116t116 76t147.5 27.5q81 0 149 -27.5t116.5 -76t76 -116t27.5 -146.5q0 -81 -27.5 -148.5t-76 -116.5t-116.5 -76t-149 -27q-80 0 -147.5 27t-116 76t-75.5 116.5t-27 148.5zM178 1117q0 -74 23.5 -134t66.5 -103.5t102.5 -67t131.5 -23.5 t132 23.5t103 67t66.5 103.5t23.5 134q0 72 -23.5 131.5t-66.5 102.5t-103 66.5t-132 23.5t-131.5 -23.5t-102.5 -66.5t-66.5 -102.5t-23.5 -131.5zM370 915v402h140q62 0 101.5 -29.5t39.5 -87.5q0 -54 -35.5 -82t-90.5 -33l151 -170h-46l-151 166h-67v-166h-42zM412 1115 h92q46 0 75.5 20t29.5 62q0 45 -29.5 65.5t-75.5 20.5h-92v-168z" />
<glyph unicode="&#xaf;" horiz-adv-x="1285" d="M337 1411v50h611v-50h-611z" />
<glyph unicode="&#xb0;" horiz-adv-x="747" d="M114 1225q0 57 19 104.5t53.5 81.5t82 53t105.5 19q57 0 104.5 -19t81.5 -53t53 -81.5t19 -104.5q0 -58 -19 -105.5t-53 -82t-81.5 -53.5t-104.5 -19q-58 0 -105.5 19t-82 53.5t-53.5 82t-19 105.5zM156 1225q0 -48 16 -88.5t45 -69.5t69 -45.5t88 -16.5q47 0 87 16.5 t68.5 45.5t44.5 69.5t16 88.5q0 47 -16 87t-44.5 68.5t-68.5 44.5t-87 16q-48 0 -88 -16t-69 -44.5t-45 -68.5t-16 -87z" />
<glyph unicode="&#xb1;" horiz-adv-x="1417" d="M162 0v51h1093v-51h-1093zM162 615v51h521v426h51v-426h521v-51h-521v-426h-51v426h-521z" />
<glyph unicode="&#xb2;" horiz-adv-x="650" d="M52 1409q59 29 124.5 46t139.5 17q121 0 185 -50t64 -134q0 -58 -25 -103.5t-67 -83.5l-347 -324h451l-6 -46h-509v48l369 348q38 37 62 75t24 86q0 63 -51.5 101.5t-149.5 38.5q-65 0 -127 -16t-115 -43z" />
<glyph unicode="&#xb3;" horiz-adv-x="686" d="M42 783l22 40q57 -30 121 -43t133 -13q110 0 168 39t58 113q0 39 -19 69.5t-53.5 51t-83 31t-106.5 10.5h-110v44h110q115 0 182 39t67 117q0 72 -54.5 109.5t-160.5 37.5q-65 0 -130 -13t-118 -39l-22 39q58 29 127.5 43t144.5 14q61 0 109.5 -14t82.5 -39t52 -60 t18 -76q0 -72 -44 -117t-138 -63q94 -17 144 -63.5t50 -120.5q0 -44 -19 -80.5t-54.5 -62.5t-87 -40.5t-115.5 -14.5q-78 0 -143.5 14.5t-130.5 47.5z" />
<glyph unicode="&#xb4;" horiz-adv-x="1285" d="M469 1291l280 286l68 -9l-287 -285z" />
<glyph unicode="&#xb5;" horiz-adv-x="1196" d="M185 -460v1546l52 11v-743q0 -77 18 -137t56.5 -101t97.5 -63t142 -22q58 0 113.5 18t108.5 48.5t103 71t96 84.5v833l50 11v-1097h-50v179q-39 -34 -87.5 -69.5t-102.5 -64.5t-113 -47.5t-120 -18.5q-119 0 -196 39t-116 113v-591h-52z" />
<glyph unicode="&#xb6;" horiz-adv-x="1007" d="M94 1263q0 44 12.5 80.5t36 63t56.5 41t75 14.5h534v-1904h-49v1857h-391v-1857h-48v1507h-46q-42 0 -75 14.5t-56.5 41t-36 62.5t-12.5 80z" />
<glyph unicode="&#xb7;" horiz-adv-x="351" d="M119 545q0 29 15.5 46t41.5 17t41.5 -17t15.5 -46q0 -26 -15.5 -43t-41.5 -17t-41.5 17t-15.5 43z" />
<glyph unicode="&#xb8;" horiz-adv-x="1285" d="M449 -429l10 48q40 -25 85.5 -39t93.5 -14q72 0 112.5 39.5t40.5 102.5q0 59 -43 90.5t-132 31.5h-111l40 183h50l-31 -135h50q115 0 168.5 -44.5t53.5 -125.5q0 -41 -13.5 -76t-39 -60.5t-62 -39.5t-83.5 -14q-53 0 -99 12.5t-90 40.5z" />
<glyph unicode="&#xb9;" horiz-adv-x="351" d="M20 1384v46l216 42v-741h-48v686z" />
<glyph unicode="&#xba;" horiz-adv-x="767" d="M114 1171q0 68 18 125.5t53 99t85 64.5t115 23q64 0 114 -23t84.5 -64.5t52 -99t17.5 -125.5t-17.5 -125.5t-52 -99.5t-84.5 -65.5t-114 -23.5q-65 0 -115 23.5t-85 65.5t-53 99.5t-18 125.5zM158 1171q0 -60 15 -110t43.5 -86t71 -56t97.5 -20t97 20t70.5 56t43.5 86 t15 110q0 59 -15 109t-43.5 86t-70.5 56.5t-97 20.5t-97.5 -20.5t-71 -56.5t-43.5 -86t-15 -109z" />
<glyph unicode="&#xbb;" horiz-adv-x="744" d="M75 142l253 403l-253 404h55l259 -404l-259 -403h-55zM357 142l253 403l-253 404h52l259 -404l-259 -403h-52z" />
<glyph unicode="&#xbc;" horiz-adv-x="1297" d="M42 0l1001 1462h52l-1001 -1462h-52zM82 1384v46l215 42v-741h-49v686zM592 203v46l455 482h46v-482h152l-6 -46h-146v-203h-46v203h-455zM659 249h388v417z" />
<glyph unicode="&#xbd;" horiz-adv-x="1363" d="M42 0l1001 1462h52l-1001 -1462h-52zM82 1384v46l215 42v-741h-49v686zM722 679q58 28 123.5 45t139.5 17q122 0 186 -50t64 -134q0 -58 -25 -103t-67 -84l-348 -324h452l-6 -46h-508v48l368 348q38 37 62 75t24 86q0 63 -52 101.5t-150 38.5q-64 0 -126 -16t-114 -42z " />
<glyph unicode="&#xbe;" horiz-adv-x="1545" d="M94 783l22 40q57 -30 121 -43t133 -13q111 0 168.5 39t57.5 113q0 39 -19 69.5t-53.5 51t-83 31t-106.5 10.5h-110v44h110q116 0 183 39t67 117q0 72 -55 109.5t-161 37.5q-65 0 -130 -13t-117 -39l-23 39q59 29 128 43t144 14q61 0 110 -14t82.5 -39t51.5 -60t18 -76 q0 -72 -44 -117t-138 -63q94 -17 144.5 -63.5t50.5 -120.5q0 -44 -19 -80.5t-55 -62.5t-87.5 -40.5t-115.5 -14.5q-77 0 -143 14.5t-131 47.5zM288 0l1001 1462h53l-1001 -1462h-53zM839 203v46l454 482h46v-482h154l-7 -46h-147v-203h-46v203h-454zM907 249h386v417z" />
<glyph unicode="&#xbf;" horiz-adv-x="945" d="M114 -42q0 77 21.5 137t57 105.5t81.5 78.5t95.5 55t98.5 35.5t91 20.5v270l50 10v-318q-226 -38 -334 -136t-108 -266q0 -53 22 -105t66 -93t109.5 -66t152.5 -25q104 0 203.5 30.5t190.5 90.5l24 -52q-101 -60 -204.5 -90t-215.5 -30q-89 0 -162.5 25.5t-126.5 71.5 t-82.5 110t-29.5 141zM527 1053q0 28 15.5 45t41.5 17t41.5 -17t15.5 -45q0 -29 -15.5 -46t-41.5 -17t-41.5 17t-15.5 46z" />
<glyph unicode="&#xc0;" horiz-adv-x="1347" d="M29 0l610 1462h69l610 -1462h-59l-198 478h-775l-198 -478h-59zM306 530h736l-368 889zM464 1843l68 9l280 -286l-61 -8z" />
<glyph unicode="&#xc1;" horiz-adv-x="1347" d="M29 0l610 1462h69l610 -1462h-59l-198 478h-775l-198 -478h-59zM306 530h736l-368 889zM537 1566l280 286l68 -9l-287 -285z" />
<glyph unicode="&#xc2;" horiz-adv-x="1347" d="M29 0l610 1462h69l610 -1462h-59l-198 478h-775l-198 -478h-59zM306 530h736l-368 889zM362 1566l276 281h72l276 -281l-57 -8l-255 251l-255 -251z" />
<glyph unicode="&#xc3;" horiz-adv-x="1347" d="M29 0l610 1462h69l610 -1462h-59l-198 478h-775l-198 -478h-59zM306 530h736l-368 889zM348 1698q41 38 86.5 57t93.5 19q42 0 83.5 -14.5t81.5 -43.5q60 -45 125 -45q85 0 153 76l30 -50q-42 -38 -88 -57t-94 -19q-85 0 -164 58q-61 44 -125 44q-42 0 -81 -19t-72 -57z " />
<glyph unicode="&#xc4;" horiz-adv-x="1347" d="M29 0l610 1462h69l610 -1462h-59l-198 478h-775l-198 -478h-59zM306 530h736l-368 889zM412 1696q0 22 13 36t35 14t34.5 -14t12.5 -36t-12.5 -36t-34.5 -14t-35 14t-13 36zM844 1696q0 22 12.5 36t34.5 14t34.5 -14t12.5 -36t-12.5 -36t-34.5 -14t-34.5 14t-12.5 36z " />
<glyph unicode="&#xc5;" horiz-adv-x="1347" d="M29 0l610 1462h69l610 -1462h-59l-198 478h-775l-198 -478h-59zM306 530h736l-368 889zM471 1695q0 41 13.5 75.5t39.5 59.5t64 39t86 14t85.5 -14t63.5 -39t39.5 -59.5t13.5 -75.5t-13.5 -75.5t-39.5 -59t-63.5 -38.5t-85.5 -14t-86 14t-64 38.5t-39.5 59t-13.5 75.5z M518 1695q0 -60 40 -98.5t116 -38.5q75 0 113.5 38.5t38.5 98.5q0 61 -38.5 100.5t-113.5 39.5q-76 0 -116 -39.5t-40 -100.5z" />
<glyph unicode="&#xc6;" horiz-adv-x="1859" d="M-32 0l972 1462h848v-52h-761v-642h585v-50h-585v-668h761v-50h-818v478h-621l-319 -478h-62zM381 530h589v890z" />
<glyph unicode="&#xc7;" horiz-adv-x="1281" d="M135 731q0 169 46 307.5t130 237.5t201 153t260 54q114 0 220 -26.5t195 -80.5l-26 -55q-82 54 -182 81.5t-206 27.5q-131 0 -238.5 -50.5t-183.5 -142t-117.5 -220.5t-41.5 -286q0 -158 41.5 -287t117.5 -220.5t183.5 -141.5t238.5 -50q106 0 206 26.5t182 80.5l26 -54 q-89 -54 -195 -79.5t-220 -25.5q-24 0 -47.5 2t-46.5 5l-25 -109h50q116 0 169.5 -44.5t53.5 -125.5q0 -41 -13.5 -76t-39 -60.5t-62.5 -39.5t-83 -14q-54 0 -100.5 12.5t-89.5 40.5l11 48q39 -25 85 -39t94 -14q72 0 112 39.5t40 102.5q0 59 -43 90.5t-132 31.5h-111 l37 165q-113 24 -204.5 86.5t-156.5 157.5t-100 219.5t-35 272.5z" />
<glyph unicode="&#xc8;" horiz-adv-x="1107" d="M196 0v1462h840v-52h-785v-642h608v-50h-608v-668h785v-50h-840zM407 1843l68 9l280 -286l-61 -8z" />
<glyph unicode="&#xc9;" horiz-adv-x="1107" d="M196 0v1462h840v-52h-785v-642h608v-50h-608v-668h785v-50h-840zM478 1566l280 286l68 -9l-287 -285z" />
<glyph unicode="&#xca;" horiz-adv-x="1107" d="M196 0v1462h840v-52h-785v-642h608v-50h-608v-668h785v-50h-840zM304 1566l276 281h72l276 -281l-57 -8l-255 251l-255 -251z" />
<glyph unicode="&#xcb;" horiz-adv-x="1107" d="M196 0v1462h840v-52h-785v-642h608v-50h-608v-668h785v-50h-840zM353 1696q0 22 13 36t35 14t34.5 -14t12.5 -36t-12.5 -36t-34.5 -14t-35 14t-13 36zM785 1696q0 22 12.5 36t34.5 14t34.5 -14t12.5 -36t-12.5 -36t-34.5 -14t-34.5 14t-12.5 36z" />
<glyph unicode="&#xcc;" horiz-adv-x="447" d="M14 1843l68 9l280 -286l-61 -8zM196 0v1462h55v-1462h-55z" />
<glyph unicode="&#xcd;" horiz-adv-x="447" d="M87 1566l280 286l68 -9l-287 -285zM196 0v1462h55v-1462h-55z" />
<glyph unicode="&#xce;" horiz-adv-x="447" d="M-88 1566l276 281h72l276 -281l-57 -8l-255 251l-255 -251zM196 0v1462h55v-1462h-55z" />
<glyph unicode="&#xcf;" horiz-adv-x="447" d="M17 1696q0 22 13 36t35 14t34.5 -14t12.5 -36t-12.5 -36t-34.5 -14t-35 14t-13 36zM196 0v1462h55v-1462h-55zM334 1696q0 22 12.5 36t34.5 14t34.5 -14t12.5 -36t-12.5 -36t-34.5 -14t-34.5 14t-12.5 36z" />
<glyph unicode="&#xd0;" horiz-adv-x="1530" d="M29 721v45h210v696h433q159 0 292 -45t228.5 -136t149 -228.5t53.5 -321.5q0 -185 -53.5 -322.5t-149 -228t-228.5 -135.5t-292 -45h-433v721h-210zM294 50h378q147 0 269.5 41t210.5 125.5t137 212.5t49 302q0 173 -49 301t-137 212t-210.5 125t-269.5 41h-378v-644h363 v-45h-363v-671z" />
<glyph unicode="&#xd1;" horiz-adv-x="1507" d="M196 0v1462h56l1006 -1376l-4 1376h56v-1462h-56l-1005 1378l2 -1378h-55zM428 1698q41 38 86.5 57t93.5 19q42 0 83.5 -14.5t81.5 -43.5q60 -45 125 -45q85 0 153 76l30 -50q-42 -38 -88 -57t-94 -19q-85 0 -164 58q-61 44 -125 44q-42 0 -81 -19t-72 -57z" />
<glyph unicode="&#xd2;" horiz-adv-x="1557" d="M135 731q0 169 47 307.5t132.5 237.5t203.5 153t261 54t261.5 -54t203 -153t131.5 -237.5t47 -307.5q0 -170 -47 -308.5t-131.5 -236.5t-203 -152t-261.5 -54t-261 54t-203.5 152t-132.5 236.5t-47 308.5zM192 731q0 -158 42.5 -287t119.5 -221t185.5 -142t239.5 -50 t239.5 50t186 142t120 221t42.5 287q0 157 -42.5 286t-120 220.5t-186 142t-239.5 50.5t-239.5 -50.5t-185.5 -142t-119.5 -220.5t-42.5 -286zM569 1843l68 9l280 -286l-61 -8z" />
<glyph unicode="&#xd3;" horiz-adv-x="1557" d="M135 731q0 169 47 307.5t132.5 237.5t203.5 153t261 54t261.5 -54t203 -153t131.5 -237.5t47 -307.5q0 -170 -47 -308.5t-131.5 -236.5t-203 -152t-261.5 -54t-261 54t-203.5 152t-132.5 236.5t-47 308.5zM192 731q0 -158 42.5 -287t119.5 -221t185.5 -142t239.5 -50 t239.5 50t186 142t120 221t42.5 287q0 157 -42.5 286t-120 220.5t-186 142t-239.5 50.5t-239.5 -50.5t-185.5 -142t-119.5 -220.5t-42.5 -286zM641 1566l280 286l68 -9l-287 -285z" />
<glyph unicode="&#xd4;" horiz-adv-x="1557" d="M135 731q0 169 47 307.5t132.5 237.5t203.5 153t261 54t261.5 -54t203 -153t131.5 -237.5t47 -307.5q0 -170 -47 -308.5t-131.5 -236.5t-203 -152t-261.5 -54t-261 54t-203.5 152t-132.5 236.5t-47 308.5zM192 731q0 -158 42.5 -287t119.5 -221t185.5 -142t239.5 -50 t239.5 50t186 142t120 221t42.5 287q0 157 -42.5 286t-120 220.5t-186 142t-239.5 50.5t-239.5 -50.5t-185.5 -142t-119.5 -220.5t-42.5 -286zM467 1566l276 281h72l276 -281l-57 -8l-255 251l-255 -251z" />
<glyph unicode="&#xd5;" horiz-adv-x="1557" d="M135 731q0 169 47 307.5t132.5 237.5t203.5 153t261 54t261.5 -54t203 -153t131.5 -237.5t47 -307.5q0 -170 -47 -308.5t-131.5 -236.5t-203 -152t-261.5 -54t-261 54t-203.5 152t-132.5 236.5t-47 308.5zM192 731q0 -158 42.5 -287t119.5 -221t185.5 -142t239.5 -50 t239.5 50t186 142t120 221t42.5 287q0 157 -42.5 286t-120 220.5t-186 142t-239.5 50.5t-239.5 -50.5t-185.5 -142t-119.5 -220.5t-42.5 -286zM452 1698q41 38 86.5 57t93.5 19q42 0 83.5 -14.5t81.5 -43.5q60 -45 125 -45q85 0 153 76l30 -50q-42 -38 -88 -57t-94 -19 q-85 0 -164 58q-61 44 -125 44q-42 0 -81 -19t-72 -57z" />
<glyph unicode="&#xd6;" horiz-adv-x="1557" d="M135 731q0 169 47 307.5t132.5 237.5t203.5 153t261 54t261.5 -54t203 -153t131.5 -237.5t47 -307.5q0 -170 -47 -308.5t-131.5 -236.5t-203 -152t-261.5 -54t-261 54t-203.5 152t-132.5 236.5t-47 308.5zM192 731q0 -158 42.5 -287t119.5 -221t185.5 -142t239.5 -50 t239.5 50t186 142t120 221t42.5 287q0 157 -42.5 286t-120 220.5t-186 142t-239.5 50.5t-239.5 -50.5t-185.5 -142t-119.5 -220.5t-42.5 -286zM516 1696q0 22 13 36t35 14t34.5 -14t12.5 -36t-12.5 -36t-34.5 -14t-35 14t-13 36zM948 1696q0 22 12.5 36t34.5 14t34.5 -14 t12.5 -36t-12.5 -36t-34.5 -14t-34.5 14t-12.5 36z" />
<glyph unicode="&#xd7;" horiz-adv-x="1056" d="M119 173l373 373l-373 374l36 36l373 -373l373 373l36 -36l-373 -374l373 -373l-36 -36l-373 373l-373 -373z" />
<glyph unicode="&#xd8;" horiz-adv-x="1599" d="M155 12l164 192q-78 100 -121 232t-43 295q0 169 47 307.5t132 237.5t203 153t260 54q139 0 253 -50t199 -141l164 191l31 -35l-165 -191q78 -100 121.5 -232t43.5 -294q0 -170 -47 -308.5t-132.5 -236.5t-204.5 -152t-263 -54q-137 0 -250.5 48.5t-198.5 142.5 l-163 -191zM211 731q0 -149 38 -271t107 -212l858 1002q-78 85 -182.5 133t-232.5 48q-131 0 -239 -50.5t-185.5 -142.5t-120.5 -221t-43 -286zM384 212q78 -87 182.5 -134t232.5 -47q131 0 239 50t185.5 142t120 221t42.5 287q0 147 -37.5 269.5t-107.5 213.5z" />
<glyph unicode="&#xd9;" horiz-adv-x="1418" d="M176 547v915h55v-915q0 -122 34.5 -218t97.5 -162t151 -101t195 -35t195 35t151 101t97.5 162t34.5 218v915h55v-915q0 -135 -38.5 -240t-109 -178t-168.5 -111t-217 -38t-217 38t-168.5 111t-109 178t-38.5 240zM499 1843l68 9l280 -286l-61 -8z" />
<glyph unicode="&#xda;" horiz-adv-x="1418" d="M176 547v915h55v-915q0 -122 34.5 -218t97.5 -162t151 -101t195 -35t195 35t151 101t97.5 162t34.5 218v915h55v-915q0 -135 -38.5 -240t-109 -178t-168.5 -111t-217 -38t-217 38t-168.5 111t-109 178t-38.5 240zM572 1566l280 286l68 -9l-287 -285z" />
<glyph unicode="&#xdb;" horiz-adv-x="1418" d="M176 547v915h55v-915q0 -122 34.5 -218t97.5 -162t151 -101t195 -35t195 35t151 101t97.5 162t34.5 218v915h55v-915q0 -135 -38.5 -240t-109 -178t-168.5 -111t-217 -38t-217 38t-168.5 111t-109 178t-38.5 240zM397 1566l276 281h72l276 -281l-57 -8l-255 251 l-255 -251z" />
<glyph unicode="&#xdc;" horiz-adv-x="1418" d="M176 547v915h55v-915q0 -122 34.5 -218t97.5 -162t151 -101t195 -35t195 35t151 101t97.5 162t34.5 218v915h55v-915q0 -135 -38.5 -240t-109 -178t-168.5 -111t-217 -38t-217 38t-168.5 111t-109 178t-38.5 240zM447 1696q0 22 13 36t35 14t34.5 -14t12.5 -36t-12.5 -36 t-34.5 -14t-35 14t-13 36zM879 1696q0 22 12.5 36t34.5 14t34.5 -14t12.5 -36t-12.5 -36t-34.5 -14t-34.5 14t-12.5 36z" />
<glyph unicode="&#xdd;" horiz-adv-x="1263" d="M-11 1462h70l570 -820l571 820h74l-617 -877v-585h-55v585zM493 1566l280 286l68 -9l-287 -285z" />
<glyph unicode="&#xde;" horiz-adv-x="1179" d="M196 0v1462h55v-306h343q102 0 189 -25.5t150 -77t98.5 -129t35.5 -181.5t-36.5 -181.5t-100 -129t-150 -77t-186.5 -25.5h-343v-330h-55zM251 381h342q91 0 167 22t131 66.5t86 112.5t31 161t-31 161t-86 112.5t-131 66t-167 21.5h-342v-723z" />
<glyph unicode="&#xdf;" horiz-adv-x="1256" d="M185 0v1165q0 92 28.5 167.5t84 129.5t137 83.5t187.5 29.5q104 0 184 -29t134.5 -80t82.5 -121.5t28 -153.5q0 -153 -78.5 -242t-221.5 -120q85 -11 156 -41t122.5 -80.5t80 -123.5t28.5 -170q0 -92 -31.5 -171.5t-92 -138t-149.5 -92t-203 -33.5q-97 0 -177 19l10 52 q38 -10 78.5 -15.5t88.5 -5.5q104 0 183 29.5t132.5 81.5t81 122.5t27.5 153.5q0 104 -36.5 177t-102 119.5t-156 67.5t-198.5 21l6 50q87 0 160 21.5t126 64t83 106.5t30 148q0 72 -24 133.5t-71.5 106t-117.5 69.5t-163 25q-95 0 -166.5 -25.5t-120.5 -73t-73.5 -114 t-24.5 -147.5v-1165h-52z" />
<glyph unicode="&#xe0;" horiz-adv-x="1095" d="M108 260q0 80 28.5 138t82 98t129 64t169.5 35l352 42v96q0 171 -81.5 251t-247.5 80q-106 0 -196.5 -25t-171.5 -79l-25 54q88 50 183.5 75.5t208.5 25.5q187 0 284.5 -92t97.5 -288v-541q0 -45 2.5 -96.5t9.5 -97.5h-57l-7 154q-40 -36 -87 -67.5t-100 -55.5t-112 -38 t-123 -14q-87 0 -150.5 21t-105.5 58.5t-62.5 89t-20.5 112.5zM160 268q0 -51 16 -95t51 -76t90 -50t133 -18q58 0 115.5 15.5t111.5 42t102.5 62.5t89.5 78v360l-336 -40q-86 -10 -154.5 -30.5t-117.5 -53.5t-75 -81t-26 -114zM340 1568l68 9l280 -286l-61 -8z" />
<glyph unicode="&#xe1;" horiz-adv-x="1095" d="M108 260q0 80 28.5 138t82 98t129 64t169.5 35l352 42v96q0 171 -81.5 251t-247.5 80q-106 0 -196.5 -25t-171.5 -79l-25 54q88 50 183.5 75.5t208.5 25.5q187 0 284.5 -92t97.5 -288v-541q0 -45 2.5 -96.5t9.5 -97.5h-57l-7 154q-40 -36 -87 -67.5t-100 -55.5t-112 -38 t-123 -14q-87 0 -150.5 21t-105.5 58.5t-62.5 89t-20.5 112.5zM160 268q0 -51 16 -95t51 -76t90 -50t133 -18q58 0 115.5 15.5t111.5 42t102.5 62.5t89.5 78v360l-336 -40q-86 -10 -154.5 -30.5t-117.5 -53.5t-75 -81t-26 -114zM369 1291l280 286l68 -9l-287 -285z" />
<glyph unicode="&#xe2;" horiz-adv-x="1095" d="M108 260q0 80 28.5 138t82 98t129 64t169.5 35l352 42v96q0 171 -81.5 251t-247.5 80q-106 0 -196.5 -25t-171.5 -79l-25 54q88 50 183.5 75.5t208.5 25.5q187 0 284.5 -92t97.5 -288v-541q0 -45 2.5 -96.5t9.5 -97.5h-57l-7 154q-40 -36 -87 -67.5t-100 -55.5t-112 -38 t-123 -14q-87 0 -150.5 21t-105.5 58.5t-62.5 89t-20.5 112.5zM160 268q0 -51 16 -95t51 -76t90 -50t133 -18q58 0 115.5 15.5t111.5 42t102.5 62.5t89.5 78v360l-336 -40q-86 -10 -154.5 -30.5t-117.5 -53.5t-75 -81t-26 -114zM215 1292l276 281h72l276 -281l-57 -8 l-255 251l-255 -251z" />
<glyph unicode="&#xe3;" horiz-adv-x="1095" d="M108 260q0 80 28.5 138t82 98t129 64t169.5 35l352 42v96q0 171 -81.5 251t-247.5 80q-106 0 -196.5 -25t-171.5 -79l-25 54q88 50 183.5 75.5t208.5 25.5q187 0 284.5 -92t97.5 -288v-541q0 -45 2.5 -96.5t9.5 -97.5h-57l-7 154q-40 -36 -87 -67.5t-100 -55.5t-112 -38 t-123 -14q-87 0 -150.5 21t-105.5 58.5t-62.5 89t-20.5 112.5zM160 268q0 -51 16 -95t51 -76t90 -50t133 -18q58 0 115.5 15.5t111.5 42t102.5 62.5t89.5 78v360l-336 -40q-86 -10 -154.5 -30.5t-117.5 -53.5t-75 -81t-26 -114zM202 1433q41 38 86.5 57t93.5 19 q42 0 83.5 -14.5t81.5 -43.5q60 -45 125 -45q85 0 153 76l30 -50q-42 -38 -88 -57t-94 -19q-85 0 -164 58q-61 44 -125 44q-42 0 -81 -19t-72 -57z" />
<glyph unicode="&#xe4;" horiz-adv-x="1095" d="M108 260q0 80 28.5 138t82 98t129 64t169.5 35l352 42v96q0 171 -81.5 251t-247.5 80q-106 0 -196.5 -25t-171.5 -79l-25 54q88 50 183.5 75.5t208.5 25.5q187 0 284.5 -92t97.5 -288v-541q0 -45 2.5 -96.5t9.5 -97.5h-57l-7 154q-40 -36 -87 -67.5t-100 -55.5t-112 -38 t-123 -14q-87 0 -150.5 21t-105.5 58.5t-62.5 89t-20.5 112.5zM160 268q0 -51 16 -95t51 -76t90 -50t133 -18q58 0 115.5 15.5t111.5 42t102.5 62.5t89.5 78v360l-336 -40q-86 -10 -154.5 -30.5t-117.5 -53.5t-75 -81t-26 -114zM265 1438q0 22 13 36t35 14t34.5 -14 t12.5 -36t-12.5 -36t-34.5 -14t-35 14t-13 36zM697 1438q0 22 12.5 36t34.5 14t34.5 -14t12.5 -36t-12.5 -36t-34.5 -14t-34.5 14t-12.5 36z" />
<glyph unicode="&#xe5;" horiz-adv-x="1095" d="M108 260q0 80 28.5 138t82 98t129 64t169.5 35l352 42v96q0 171 -81.5 251t-247.5 80q-106 0 -196.5 -25t-171.5 -79l-25 54q88 50 183.5 75.5t208.5 25.5q187 0 284.5 -92t97.5 -288v-541q0 -45 2.5 -96.5t9.5 -97.5h-57l-7 154q-40 -36 -87 -67.5t-100 -55.5t-112 -38 t-123 -14q-87 0 -150.5 21t-105.5 58.5t-62.5 89t-20.5 112.5zM160 268q0 -51 16 -95t51 -76t90 -50t133 -18q58 0 115.5 15.5t111.5 42t102.5 62.5t89.5 78v360l-336 -40q-86 -10 -154.5 -30.5t-117.5 -53.5t-75 -81t-26 -114zM325 1400q0 41 13.5 75.5t39.5 59.5t64 39 t86 14t85.5 -14t63.5 -39t39.5 -59.5t13.5 -75.5t-13.5 -75.5t-39.5 -59t-63.5 -38.5t-85.5 -14t-86 14t-64 38.5t-39.5 59t-13.5 75.5zM372 1400q0 -60 40 -98.5t116 -38.5q75 0 113.5 38.5t38.5 98.5q0 61 -38.5 100.5t-113.5 39.5q-76 0 -116 -39.5t-40 -100.5z" />
<glyph unicode="&#xe6;" horiz-adv-x="1880" d="M108 260q0 80 28 138t80.5 98t127.5 64t168 35l348 42v96q0 171 -80 251t-244 80q-106 0 -195 -25t-169 -79l-25 54q88 50 181.5 75.5t205.5 25.5q169 0 262.5 -76.5t109.5 -239.5q26 76 67.5 134.5t95.5 99t118.5 61.5t137.5 21q109 0 190.5 -40t136 -110.5t82 -166.5 t27.5 -207v-24h-846q0 -119 28.5 -217.5t83 -169t133.5 -110t181 -39.5q57 0 107 8.5t95.5 26t88.5 43.5t86 61l26 -52q-86 -69 -186 -104t-220 -35q-141 0 -246 66t-164 184q-91 -122 -214.5 -186t-270.5 -64q-86 0 -149 21t-104 58.5t-61.5 89t-20.5 112.5zM160 268 q0 -51 16 -94.5t50.5 -75t88.5 -49.5t131 -18q137 0 253.5 62.5t206.5 187.5q-46 118 -46 264v21.5t2 20.5l-333 -40q-84 -10 -152 -30.5t-116.5 -53.5t-74.5 -81t-26 -114zM915 616h792q-2 84 -25.5 164.5t-71 143.5t-118 101.5t-165.5 38.5q-92 0 -164.5 -34.5t-125 -94.5 t-83.5 -142t-39 -177z" />
<glyph unicode="&#xe7;" horiz-adv-x="986" d="M119 545q0 125 30 230t88.5 180.5t144 117.5t195.5 42q97 0 184 -29.5t161 -84.5q0 -1 -4.5 -9t-9.5 -18q-6 -11 -13 -25q-71 56 -149 85.5t-169 29.5q-99 0 -174.5 -40.5t-126.5 -110.5t-77.5 -164.5t-26.5 -203.5q0 -108 26.5 -201.5t77.5 -163t126.5 -109.5t174.5 -40 q91 0 169 29.5t149 85.5l27 -54q-74 -55 -161 -84t-184 -29q-46 0 -85 6l-24 -107h50q115 0 169 -44.5t54 -125.5q0 -41 -13.5 -76t-39.5 -60.5t-63 -39.5t-83 -14q-53 0 -98.5 12.5t-90.5 40.5l11 48q39 -25 84.5 -39t93.5 -14q72 0 112.5 39.5t40.5 102.5q0 59 -43 90.5 t-132 31.5h-111l36 166q-79 22 -139.5 71t-102 120t-63 162t-21.5 196z" />
<glyph unicode="&#xe8;" horiz-adv-x="1139" d="M119 545q0 134 35.5 240t98 179.5t147.5 112t184 38.5q108 0 189.5 -40t136.5 -110.5t82.5 -166.5t27.5 -207v-24h-848q1 -119 29.5 -217.5t83 -169t133 -110t179.5 -39.5q58 0 108 8.5t96 26t89 43.5t86 61l24 -52q-84 -69 -184 -104t-219 -35q-111 0 -199.5 41 t-150.5 115.5t-95 179t-33 230.5zM172 616h793q-2 84 -26 164.5t-71.5 143.5t-117.5 101.5t-164 38.5q-92 0 -165 -34.5t-125.5 -94.5t-83.5 -142t-40 -177zM396 1568l68 9l280 -286l-61 -8z" />
<glyph unicode="&#xe9;" horiz-adv-x="1139" d="M119 545q0 134 35.5 240t98 179.5t147.5 112t184 38.5q108 0 189.5 -40t136.5 -110.5t82.5 -166.5t27.5 -207v-24h-848q1 -119 29.5 -217.5t83 -169t133 -110t179.5 -39.5q58 0 108 8.5t96 26t89 43.5t86 61l24 -52q-84 -69 -184 -104t-219 -35q-111 0 -199.5 41 t-150.5 115.5t-95 179t-33 230.5zM172 616h793q-2 84 -26 164.5t-71.5 143.5t-117.5 101.5t-164 38.5q-92 0 -165 -34.5t-125.5 -94.5t-83.5 -142t-40 -177zM423 1291l280 286l68 -9l-287 -285z" />
<glyph unicode="&#xea;" horiz-adv-x="1139" d="M119 545q0 134 35.5 240t98 179.5t147.5 112t184 38.5q108 0 189.5 -40t136.5 -110.5t82.5 -166.5t27.5 -207v-24h-848q1 -119 29.5 -217.5t83 -169t133 -110t179.5 -39.5q58 0 108 8.5t96 26t89 43.5t86 61l24 -52q-84 -69 -184 -104t-219 -35q-111 0 -199.5 41 t-150.5 115.5t-95 179t-33 230.5zM172 616h793q-2 84 -26 164.5t-71.5 143.5t-117.5 101.5t-164 38.5q-92 0 -165 -34.5t-125.5 -94.5t-83.5 -142t-40 -177zM271 1292l276 281h72l276 -281l-57 -8l-255 251l-255 -251z" />
<glyph unicode="&#xeb;" horiz-adv-x="1139" d="M119 545q0 134 35.5 240t98 179.5t147.5 112t184 38.5q108 0 189.5 -40t136.5 -110.5t82.5 -166.5t27.5 -207v-24h-848q1 -119 29.5 -217.5t83 -169t133 -110t179.5 -39.5q58 0 108 8.5t96 26t89 43.5t86 61l24 -52q-84 -69 -184 -104t-219 -35q-111 0 -199.5 41 t-150.5 115.5t-95 179t-33 230.5zM172 616h793q-2 84 -26 164.5t-71.5 143.5t-117.5 101.5t-164 38.5q-92 0 -165 -34.5t-125.5 -94.5t-83.5 -142t-40 -177zM321 1438q0 22 13 36t35 14t34.5 -14t12.5 -36t-12.5 -36t-34.5 -14t-35 14t-13 36zM753 1438q0 22 12.5 36 t34.5 14t34.5 -14t12.5 -36t-12.5 -36t-34.5 -14t-34.5 14t-12.5 36z" />
<glyph unicode="&#xec;" horiz-adv-x="400" d="M9 1568l68 9l280 -286l-61 -8zM174 0v1086l52 11v-1097h-52z" />
<glyph unicode="&#xed;" horiz-adv-x="400" d="M42 1291l280 286l68 -9l-287 -285zM174 0v1086l52 11v-1097h-52z" />
<glyph unicode="&#xee;" horiz-adv-x="400" d="M-113 1292l276 281h72l276 -281l-57 -8l-255 251l-255 -251zM174 0v1086l52 11v-1097h-52z" />
<glyph unicode="&#xef;" horiz-adv-x="400" d="M-6 1438q0 22 13 36t35 14t34.5 -14t12.5 -36t-12.5 -36t-34.5 -14t-35 14t-13 36zM174 0v1086l52 11v-1097h-52zM311 1438q0 22 12.5 36t34.5 14t34.5 -14t12.5 -36t-12.5 -36t-34.5 -14t-34.5 14t-12.5 36z" />
<glyph unicode="&#xf0;" horiz-adv-x="1202" d="M119 423q0 99 29.5 179t85.5 136t138.5 86.5t189.5 30.5q122 0 235.5 -36.5t209.5 -102.5q-3 180 -67 321t-177 247l-476 -156v46l441 143q-89 78 -200 135.5t-241 100.5l74 22q125 -42 231.5 -100.5t191.5 -137.5l256 85v-46l-221 -71q115 -119 178.5 -276t63.5 -359 q0 -168 -28 -296.5t-87.5 -216.5t-151.5 -133t-220 -45q-104 0 -188 32.5t-143 91.5t-91.5 140.5t-32.5 179.5zM174 425q0 -86 27.5 -158t79.5 -124.5t126 -82t167 -29.5q115 0 197 41.5t134 121t76.5 195.5t25.5 265q-102 75 -216 113t-229 38q-93 0 -165.5 -26.5t-122 -76 t-75 -120t-25.5 -157.5z" />
<glyph unicode="&#xf1;" d="M174 0v1084l52 11v-181q38 33 85.5 69t101.5 65t113 48t121 19q95 0 163.5 -25.5t113 -73t66 -115.5t21.5 -153v-748h-50v739q0 76 -18 136.5t-56.5 101.5t-98.5 63t-143 22q-57 0 -113 -18.5t-109 -49t-102.5 -71t-94.5 -84.5v-839h-52zM267 1433q41 38 86.5 57t93.5 19 q42 0 83.5 -14.5t81.5 -43.5q60 -45 125 -45q85 0 153 76l30 -50q-42 -38 -88 -57t-94 -19q-85 0 -164 58q-61 44 -125 44q-42 0 -81 -19t-72 -57z" />
<glyph unicode="&#xf2;" horiz-adv-x="1208" d="M118 547q0 123 32.5 227.5t94.5 180t152 118t206 42.5t206.5 -42.5t153 -118t95 -180t32.5 -227.5t-32.5 -227.5t-95 -180t-153 -118t-206.5 -42.5t-206 42.5t-152 118t-94.5 180t-32.5 227.5zM173 547q0 -114 28 -208.5t82 -163t134.5 -106.5t185.5 -38q106 0 186.5 38 t135 106.5t82.5 163t28 208.5q0 113 -28 208t-82.5 163.5t-135 107t-186.5 38.5q-105 0 -185.5 -38.5t-134.5 -107t-82 -163.5t-28 -208zM415 1568l68 9l280 -286l-61 -8z" />
<glyph unicode="&#xf3;" horiz-adv-x="1208" d="M118 547q0 123 32.5 227.5t94.5 180t152 118t206 42.5t206.5 -42.5t153 -118t95 -180t32.5 -227.5t-32.5 -227.5t-95 -180t-153 -118t-206.5 -42.5t-206 42.5t-152 118t-94.5 180t-32.5 227.5zM173 547q0 -114 28 -208.5t82 -163t134.5 -106.5t185.5 -38q106 0 186.5 38 t135 106.5t82.5 163t28 208.5q0 113 -28 208t-82.5 163.5t-135 107t-186.5 38.5q-105 0 -185.5 -38.5t-134.5 -107t-82 -163.5t-28 -208zM444 1291l280 286l68 -9l-287 -285z" />
<glyph unicode="&#xf4;" horiz-adv-x="1208" d="M118 547q0 123 32.5 227.5t94.5 180t152 118t206 42.5t206.5 -42.5t153 -118t95 -180t32.5 -227.5t-32.5 -227.5t-95 -180t-153 -118t-206.5 -42.5t-206 42.5t-152 118t-94.5 180t-32.5 227.5zM173 547q0 -114 28 -208.5t82 -163t134.5 -106.5t185.5 -38q106 0 186.5 38 t135 106.5t82.5 163t28 208.5q0 113 -28 208t-82.5 163.5t-135 107t-186.5 38.5q-105 0 -185.5 -38.5t-134.5 -107t-82 -163.5t-28 -208zM291 1292l276 281h72l276 -281l-57 -8l-255 251l-255 -251z" />
<glyph unicode="&#xf5;" horiz-adv-x="1208" d="M118 547q0 123 32.5 227.5t94.5 180t152 118t206 42.5t206.5 -42.5t153 -118t95 -180t32.5 -227.5t-32.5 -227.5t-95 -180t-153 -118t-206.5 -42.5t-206 42.5t-152 118t-94.5 180t-32.5 227.5zM173 547q0 -114 28 -208.5t82 -163t134.5 -106.5t185.5 -38q106 0 186.5 38 t135 106.5t82.5 163t28 208.5q0 113 -28 208t-82.5 163.5t-135 107t-186.5 38.5q-105 0 -185.5 -38.5t-134.5 -107t-82 -163.5t-28 -208zM279 1433q41 38 86.5 57t93.5 19q42 0 83.5 -14.5t81.5 -43.5q60 -45 125 -45q85 0 153 76l30 -50q-42 -38 -88 -57t-94 -19 q-85 0 -164 58q-61 44 -125 44q-42 0 -81 -19t-72 -57z" />
<glyph unicode="&#xf6;" horiz-adv-x="1208" d="M118 547q0 123 32.5 227.5t94.5 180t152 118t206 42.5t206.5 -42.5t153 -118t95 -180t32.5 -227.5t-32.5 -227.5t-95 -180t-153 -118t-206.5 -42.5t-206 42.5t-152 118t-94.5 180t-32.5 227.5zM173 547q0 -114 28 -208.5t82 -163t134.5 -106.5t185.5 -38q106 0 186.5 38 t135 106.5t82.5 163t28 208.5q0 113 -28 208t-82.5 163.5t-135 107t-186.5 38.5q-105 0 -185.5 -38.5t-134.5 -107t-82 -163.5t-28 -208zM341 1438q0 22 13 36t35 14t34.5 -14t12.5 -36t-12.5 -36t-34.5 -14t-35 14t-13 36zM773 1438q0 22 12.5 36t34.5 14t34.5 -14 t12.5 -36t-12.5 -36t-34.5 -14t-34.5 14t-12.5 36z" />
<glyph unicode="&#xf7;" horiz-adv-x="1331" d="M119 521v51h1093v-51h-1093zM614 41q0 23 13.5 38.5t38.5 15.5q24 0 38 -15.5t14 -38.5q0 -24 -14 -39.5t-38 -15.5q-25 0 -38.5 15.5t-13.5 39.5zM614 1052q0 24 13.5 39.5t38.5 15.5q24 0 38 -15.5t14 -39.5q0 -23 -14 -38.5t-38 -15.5q-25 0 -38.5 15.5t-13.5 38.5z " />
<glyph unicode="&#xf8;" horiz-adv-x="1232" d="M130 11l118 139q-58 75 -88 176t-30 221q0 123 32.5 227.5t94.5 180t152.5 118t206.5 42.5q107 0 191.5 -36t146.5 -101l117 137l31 -33l-119 -139q58 -75 88.5 -176t30.5 -220q0 -123 -32.5 -227.5t-94.5 -180t-152.5 -118t-206.5 -42.5q-108 0 -192.5 36t-146.5 101 l-117 -137zM185 547q0 -108 24.5 -198t73.5 -158l637 747q-54 60 -130 93t-174 33q-105 0 -185.5 -38.5t-135 -107t-82.5 -163.5t-28 -208zM311 156q54 -60 130 -92.5t175 -32.5q105 0 185.5 38t135 106.5t82.5 163t28 208.5q0 107 -25 197t-73 158z" />
<glyph unicode="&#xf9;" d="M162 347v739l54 11v-743q0 -77 18 -137t56 -101t97 -63t142 -22q58 0 114 18t109 48.5t102.5 71t95.5 84.5v833l50 11v-1097h-50v179q-39 -34 -87 -69.5t-102 -64.5t-113.5 -47.5t-120.5 -18.5q-94 0 -163 25.5t-114 73t-66.5 115.5t-21.5 154zM394 1568l68 9l280 -286 l-61 -8z" />
<glyph unicode="&#xfa;" d="M162 347v739l54 11v-743q0 -77 18 -137t56 -101t97 -63t142 -22q58 0 114 18t109 48.5t102.5 71t95.5 84.5v833l50 11v-1097h-50v179q-39 -34 -87 -69.5t-102 -64.5t-113.5 -47.5t-120.5 -18.5q-94 0 -163 25.5t-114 73t-66.5 115.5t-21.5 154zM423 1291l280 286l68 -9 l-287 -285z" />
<glyph unicode="&#xfb;" d="M162 347v739l54 11v-743q0 -77 18 -137t56 -101t97 -63t142 -22q58 0 114 18t109 48.5t102.5 71t95.5 84.5v833l50 11v-1097h-50v179q-39 -34 -87 -69.5t-102 -64.5t-113.5 -47.5t-120.5 -18.5q-94 0 -163 25.5t-114 73t-66.5 115.5t-21.5 154zM269 1292l276 281h72 l276 -281l-57 -8l-255 251l-255 -251z" />
<glyph unicode="&#xfc;" d="M162 347v739l54 11v-743q0 -77 18 -137t56 -101t97 -63t142 -22q58 0 114 18t109 48.5t102.5 71t95.5 84.5v833l50 11v-1097h-50v179q-39 -34 -87 -69.5t-102 -64.5t-113.5 -47.5t-120.5 -18.5q-94 0 -163 25.5t-114 73t-66.5 115.5t-21.5 154zM319 1438q0 22 13 36 t35 14t34.5 -14t12.5 -36t-12.5 -36t-34.5 -14t-35 14t-13 36zM751 1438q0 22 12.5 36t34.5 14t34.5 -14t12.5 -36t-12.5 -36t-34.5 -14t-34.5 14t-12.5 36z" />
<glyph unicode="&#xfd;" horiz-adv-x="1061" d="M43 1093h59l427 -1037l430 1037h58l-541 -1287q-22 -52 -46.5 -95.5t-55 -78.5t-69.5 -63.5t-89 -50.5l-23 45q45 20 80.5 47t63 60t49.5 72t40 83l73 175zM370 1291l280 286l68 -9l-287 -285z" />
<glyph unicode="&#xfe;" d="M185 -460v2023l52 12v-639q38 34 79.5 66t88 57t98.5 40.5t111 15.5q111 0 194 -41.5t138 -116.5t82 -179.5t27 -230.5t-27 -230.5t-82 -179.5t-138 -116.5t-194 -41.5q-59 0 -111 15t-98.5 40t-88 57t-79.5 66v-617h-52zM237 229q42 -41 85.5 -77t90 -63t96 -42.5 t105.5 -15.5q98 0 170.5 38t120.5 106.5t71.5 163t23.5 208.5q0 113 -24 207.5t-72 163t-120.5 106.5t-169.5 38q-56 0 -105.5 -16t-96 -43t-90 -63t-85.5 -76v-635z" />
<glyph unicode="&#xff;" horiz-adv-x="1061" d="M43 1093h59l427 -1037l430 1037h58l-541 -1287q-22 -52 -46.5 -95.5t-55 -78.5t-69.5 -63.5t-89 -50.5l-23 45q45 20 80.5 47t63 60t49.5 72t40 83l73 175zM267 1438q0 22 13 36t35 14t34.5 -14t12.5 -36t-12.5 -36t-34.5 -14t-35 14t-13 36zM699 1438q0 22 12.5 36 t34.5 14t34.5 -14t12.5 -36t-12.5 -36t-34.5 -14t-34.5 14t-12.5 36z" />
<glyph unicode="&#x152;" horiz-adv-x="1911" d="M135 731q0 173 49 312.5t140.5 237t222 150t293.5 52.5q98 0 185 -21h815v-52h-763v-642h587v-50h-587v-668h763v-50h-815q-44 -9 -89.5 -14.5t-95.5 -5.5q-163 0 -293.5 52t-222 149.5t-140.5 236.5t-49 313zM192 731q0 -162 44.5 -292t128 -220.5t204 -139t272.5 -48.5 q48 0 93.5 6t87.5 17v1352q-42 11 -87.5 17.5t-93.5 6.5q-152 0 -272.5 -48.5t-204 -139t-128 -220t-44.5 -291.5z" />
<glyph unicode="&#x153;" horiz-adv-x="2033" d="M119 545q0 124 31.5 228.5t92 180.5t149 118.5t201.5 42.5q90 0 163.5 -27t130.5 -76t96 -118t59 -153q21 90 62 159.5t98 117t127 72.5t149 25q109 0 190.5 -40t136 -110.5t82 -166.5t27.5 -207v-24h-846q1 -119 29.5 -217.5t82.5 -169t133 -110t181 -39.5 q58 0 107.5 8.5t95 26t88 43.5t86.5 61l26 -52q-86 -67 -186 -103t-220 -36q-88 0 -161.5 26t-130.5 74t-97 117t-60 155q-20 -84 -59 -152.5t-96 -117.5t-130.5 -75.5t-163.5 -26.5q-113 0 -201.5 42t-149 117.5t-92 179.5t-31.5 227zM174 545q0 -113 27 -207.5t80 -163 t131.5 -107t180.5 -38.5q103 0 181.5 38.5t131.5 107t80 163t27 207.5q0 114 -27 209t-80 163.5t-131.5 106.5t-181.5 38q-102 0 -180.5 -38t-131.5 -106.5t-80 -163.5t-27 -209zM1068 616h794q-2 84 -26.5 164.5t-72 143.5t-118 101.5t-165.5 38.5q-92 0 -164 -34.5 t-124.5 -94.5t-83.5 -142t-40 -177z" />
<glyph unicode="&#x178;" horiz-adv-x="1263" d="M-11 1462h70l570 -820l571 820h74l-617 -877v-585h-55v585zM368 1696q0 22 13 36t35 14t34.5 -14t12.5 -36t-12.5 -36t-34.5 -14t-35 14t-13 36zM800 1696q0 22 12.5 36t34.5 14t34.5 -14t12.5 -36t-12.5 -36t-34.5 -14t-34.5 14t-12.5 36z" />
<glyph unicode="&#x2c6;" horiz-adv-x="1285" d="M330 1292l276 281h72l276 -281l-57 -8l-255 251l-255 -251z" />
<glyph unicode="&#x2dc;" horiz-adv-x="1285" d="M316 1433q41 38 86.5 57t93.5 19q42 0 83.5 -14.5t81.5 -43.5q60 -45 125 -45q85 0 153 76l30 -50q-42 -38 -88 -57t-94 -19q-85 0 -164 58q-61 44 -125 44q-42 0 -81 -19t-72 -57z" />
<glyph unicode="&#x2000;" horiz-adv-x="941" />
<glyph unicode="&#x2001;" horiz-adv-x="1883" />
<glyph unicode="&#x2002;" horiz-adv-x="941" />
<glyph unicode="&#x2003;" horiz-adv-x="1883" />
<glyph unicode="&#x2004;" horiz-adv-x="627" />
<glyph unicode="&#x2005;" horiz-adv-x="470" />
<glyph unicode="&#x2006;" horiz-adv-x="313" />
<glyph unicode="&#x2007;" horiz-adv-x="313" />
<glyph unicode="&#x2008;" horiz-adv-x="235" />
<glyph unicode="&#x2009;" horiz-adv-x="376" />
<glyph unicode="&#x200a;" horiz-adv-x="104" />
<glyph unicode="&#x2010;" horiz-adv-x="746" d="M119 521v51h509v-51h-509z" />
<glyph unicode="&#x2011;" horiz-adv-x="746" d="M119 521v51h509v-51h-509z" />
<glyph unicode="&#x2012;" horiz-adv-x="746" d="M119 521v51h509v-51h-509z" />
<glyph unicode="&#x2013;" horiz-adv-x="1283" d="M119 521v51h1044v-51h-1044z" />
<glyph unicode="&#x2014;" horiz-adv-x="1750" d="M119 521v51h1512v-51h-1512z" />
<glyph unicode="&#x2018;" horiz-adv-x="338" d="M114 1140q0 16 2 32t5 30l54 263l48 -6l-53 -263q23 0 38.5 -16.5t15.5 -43.5t-15 -43.5t-41 -16.5q-24 0 -39 17t-15 47z" />
<glyph unicode="&#x2019;" horiz-adv-x="338" d="M114 1423q0 27 15 43.5t41 16.5q24 0 39 -17t15 -47q0 -16 -2 -32t-5 -30l-54 -263l-48 6l53 263q-23 0 -38.5 16.5t-15.5 43.5z" />
<glyph unicode="&#x201a;" horiz-adv-x="338" d="M114 40q0 27 15 43.5t41 16.5q24 0 39 -17t15 -47q0 -16 -2 -32t-5 -30l-54 -263l-48 6l53 263q-23 0 -38.5 16.5t-15.5 43.5z" />
<glyph unicode="&#x201c;" horiz-adv-x="578" d="M114 1141q0 16 2 32t5 30l53 262l46 -6l-50 -262q22 0 37 -16.5t15 -44.5q0 -26 -15 -42.5t-39 -16.5t-39 17t-15 47zM356 1141q0 16 2 32t5 30l53 262l46 -6l-50 -262q22 0 37 -16.5t15 -44.5q0 -26 -15 -42.5t-39 -16.5t-39 17t-15 47z" />
<glyph unicode="&#x201d;" horiz-adv-x="578" d="M114 1424q0 26 15 42.5t39 16.5t39 -17t15 -47q0 -16 -2 -32t-5 -30l-53 -262l-46 6l50 262q-22 0 -37 16.5t-15 44.5zM356 1424q0 26 15 42.5t39 16.5t39 -17t15 -47q0 -16 -2 -32t-5 -30l-53 -262l-46 6l50 262q-22 0 -37 16.5t-15 44.5z" />
<glyph unicode="&#x201e;" horiz-adv-x="578" d="M114 41q0 26 15 42.5t39 16.5t39 -17t15 -47q0 -16 -2 -32t-5 -30l-53 -262l-46 6l50 262q-22 0 -37 16.5t-15 44.5zM356 41q0 26 15 42.5t39 16.5t39 -17t15 -47q0 -16 -2 -32t-5 -30l-53 -262l-46 6l50 262q-22 0 -37 16.5t-15 44.5z" />
<glyph unicode="&#x2022;" horiz-adv-x="698" d="M162 545q0 45 13 83.5t37.5 66t59.5 43t78 15.5t77.5 -15.5t58.5 -43t37 -66t13 -83.5t-13 -83t-37 -65.5t-58.5 -43t-77.5 -15.5t-78 15.5t-59.5 43t-37.5 65.5t-13 83z" />
<glyph unicode="&#x2026;" horiz-adv-x="1311" d="M141 42q0 28 15 45t41 17q27 0 42 -17t15 -45q0 -29 -15 -46t-42 -17q-26 0 -41 17t-15 46zM599 42q0 28 15 45t41 17q27 0 42 -17t15 -45q0 -29 -15 -46t-42 -17q-26 0 -41 17t-15 46zM1057 42q0 28 15 45t41 17t42 -17t16 -45q0 -29 -16 -46t-42 -17t-41 17t-15 46z " />
<glyph unicode="&#x202f;" horiz-adv-x="376" />
<glyph unicode="&#x2039;" horiz-adv-x="467" d="M75 545l260 404h56l-252 -404l252 -403h-56z" />
<glyph unicode="&#x203a;" horiz-adv-x="467" d="M75 142l253 403l-253 404h57l259 -404l-259 -403h-57z" />
<glyph unicode="&#x205f;" horiz-adv-x="470" />
<glyph unicode="&#x20ac;" horiz-adv-x="1337" d="M10 599l6 40h180q-2 23 -3 45.5t-1 46.5q0 61 6 117h-152l4 40h152q21 136 74.5 246t134.5 187.5t187 119.5t231 42q113 0 219.5 -26.5t194.5 -80.5l-18 -55q-85 56 -187.5 85t-208.5 29q-115 0 -211.5 -38.5t-170.5 -109.5t-123 -172t-69 -227h822l-14 -40h-812 q-4 -28 -5.5 -57.5t-1.5 -59.5q0 -24 1 -46.5t3 -45.5h742l-13 -40h-724q16 -130 64 -235.5t122.5 -180t173 -115t216.5 -40.5q106 0 206 27t186 81l22 -50q-88 -54 -194.5 -80t-219.5 -26q-128 0 -235.5 43.5t-189.5 124.5t-134.5 195.5t-69.5 255.5h-190z" />
<glyph unicode="&#x2122;" horiz-adv-x="995" d="M52 1428v34h326v-34h-142v-399h-42v399h-142zM416 1029v433h44l168 -260l167 260h44v-433h-44l2 360l-169 -262l-170 262l2 -360h-44z" />
<glyph unicode="&#xe000;" horiz-adv-x="1095" d="M0 0v1095h1095v-1095h-1095z" />
<glyph unicode="&#xfb01;" horiz-adv-x="986" d="M10 1045v48h218v116q0 84 15.5 151.5t50 115.5t88.5 73.5t132 25.5q48 0 95 -10.5t88 -30.5l-26 -53q-34 21 -74 32.5t-81 11.5q-66 0 -111 -22t-72.5 -64t-39.5 -102.5t-12 -137.5v-106h530v-1093h-53v1045h-477v-1045h-53v1045h-218zM734 1438q0 20 13.5 35t36.5 15 t36.5 -15t13.5 -35q0 -23 -13.5 -38.5t-36.5 -15.5t-36.5 15.5t-13.5 38.5z" />
<glyph unicode="&#xfb02;" horiz-adv-x="994" d="M10 1045v48h220v116q0 84 15.5 151.5t49.5 115.5t88 73.5t131 25.5q48 0 95.5 -10.5t89.5 -30.5l-26 -53q-35 21 -75.5 32.5t-81.5 11.5q-66 0 -111 -22t-72.5 -64t-39.5 -102.5t-12 -137.5v-106h477v470l53 12v-1575h-53v1045h-477v-1045h-51v1045h-220z" />
<glyph unicode="&#xfb03;" horiz-adv-x="1514" d="M10 1045v48h218v116q0 84 15.5 151.5t50 115.5t88.5 73.5t132 25.5q53 0 104.5 -12t96.5 -38l-27 -55q-38 26 -82 40.5t-92 14.5q-66 0 -110.5 -22t-71.5 -64t-39 -102.5t-12 -137.5v-106h477v116q0 84 15.5 151.5t49.5 115.5t88 73.5t131 25.5q49 0 96.5 -10.5 t88.5 -30.5l-26 -53q-36 21 -74.5 32.5t-80.5 11.5q-66 0 -111 -22t-72.5 -64t-39.5 -102.5t-12 -137.5v-106h527v-1093h-50v1045h-477v-1045h-53v1045h-477v-1045h-53v1045h-218zM1265 1438q0 20 13.5 35t36.5 15q22 0 35 -15t13 -35q0 -23 -13 -38.5t-35 -15.5 q-23 0 -36.5 15.5t-13.5 38.5z" />
<glyph unicode="&#xfb04;" horiz-adv-x="1523" d="M10 1045v48h218v116q0 84 15.5 151.5t50 115.5t88.5 73.5t132 25.5q53 0 104.5 -12t96.5 -38l-27 -55q-38 26 -82 40.5t-92 14.5q-66 0 -110.5 -22t-71.5 -64t-39 -102.5t-12 -137.5v-106h477v116q0 84 15.5 151.5t49.5 115.5t88 73.5t131 25.5q49 0 96.5 -10.5 t88.5 -30.5l-26 -53q-36 21 -74.5 32.5t-80.5 11.5q-66 0 -111 -22t-72.5 -64t-39.5 -102.5t-12 -137.5v-106h477v470l50 12v-1575h-50v1045h-477v-1045h-53v1045h-477v-1045h-53v1045h-218z" />
</font>
</defs>
</svg>
