<?xml version="1.0" standalone="no"?>
<!DOCTYPE svg PUBLIC "-//W3C//DTD SVG 1.1//EN" "http://www.w3.org/Graphics/SVG/1.1/DTD/svg11.dtd" >
<svg xmlns="http://www.w3.org/2000/svg">
<metadata></metadata>
<defs>
<font id="ma_beta_bregular_condensed" horiz-adv-x="1013" >
<font-face units-per-em="2048" ascent="1536" descent="-512" />
<missing-glyph horiz-adv-x="364" />
<glyph horiz-adv-x="2048" />
<glyph horiz-adv-x="2048" />
<glyph unicode="&#xd;" horiz-adv-x="682" />
<glyph unicode=" "  horiz-adv-x="364" />
<glyph unicode="&#x09;" horiz-adv-x="364" />
<glyph unicode="&#xa0;" horiz-adv-x="364" />
<glyph unicode="!" horiz-adv-x="454" d="M135 78q0 44 25 71t67 27q41 0 66.5 -26.5t25.5 -71.5t-25 -72t-67 -27t-67 26.5t-25 72.5zM164 431v1031h125v-1012z" />
<glyph unicode="&#x22;" horiz-adv-x="508" d="M79 1450l120 21l-11 -443h-98zM310 1450l118 21l-11 -443h-96z" />
<glyph unicode="#" horiz-adv-x="923" d="M21 442l10 92h170l44 418h-169l12 92h167l45 418h95l-45 -418h284l45 418h96l-45 -418h170l-10 -92h-170l-44 -418h171l-12 -92h-169l-46 -442h-97l47 442h-284l-46 -442h-96l47 442h-170zM296 534h285l43 418h-284z" />
<glyph unicode="$" horiz-adv-x="898" d="M96 163l45 116q124 -112 262 -126v536q-76 37 -123 68t-87.5 74.5t-58 99.5t-17.5 131q0 150 78 249.5t208 115.5v221h91v-221q152 -11 289 -116l-47 -115q-117 101 -242 114v-510q81 -40 130 -71t93 -76t63.5 -103t19.5 -136q0 -162 -82.5 -265t-223.5 -116v-219h-91 v220q-166 15 -307 129zM249 1073q0 -84 37 -132t117 -94v453q-71 -16 -112.5 -78t-41.5 -149zM494 159q83 15 128.5 81t45.5 161q0 90 -41.5 141.5t-132.5 100.5v-484z" />
<glyph unicode="%" horiz-adv-x="1143" d="M96 1150q0 154 57.5 243.5t160.5 89.5t161.5 -89.5t58.5 -242.5q0 -151 -58.5 -240.5t-161.5 -89.5q-102 0 -160 89t-58 240zM132 0l772 1462h106l-772 -1462h-106zM181 1151q0 -112 34.5 -177t98.5 -65q65 0 99 64.5t34 177.5q0 114 -34 179t-99 65q-64 0 -98.5 -65 t-34.5 -179zM609 309q0 153 58 242.5t160 89.5q103 0 161.5 -89.5t58.5 -242.5q0 -151 -58.5 -240t-161.5 -89q-102 0 -160 89t-58 240zM694 309q0 -112 34.5 -177t98.5 -65q65 0 99.5 64.5t34.5 177.5q0 115 -34.5 180t-99.5 65q-64 0 -98.5 -65.5t-34.5 -179.5z" />
<glyph unicode="&#x26;" horiz-adv-x="1069" d="M90 368q0 285 267 455q-45 69 -68 109.5t-45 108t-22 132.5q0 139 75.5 224.5t203.5 85.5q135 0 257 -84l-45 -113q-92 82 -203 82q-77 0 -122 -57.5t-45 -144.5q0 -43 9.5 -82.5t34 -84.5t36.5 -64t45 -68l280 -417q53 126 126 361l97 -65q-5 -13 -25 -72.5t-29.5 -86.5 t-27.5 -75.5t-34.5 -88.5t-33.5 -77l209 -309l-103 -57l-174 258q-149 -258 -339 -258q-154 0 -239 103.5t-85 284.5zM207 371q0 -123 57 -199t159 -76q145 0 264 238l-270 402q-210 -141 -210 -365z" />
<glyph unicode="'" horiz-adv-x="294" d="M79 1450l136 21l-11 -443h-114z" />
<glyph unicode="(" horiz-adv-x="524" d="M124 672q0 638 257 1013l76 -73q-228 -340 -228 -940q0 -287 61.5 -536t166.5 -404l-76 -73q-257 377 -257 1013z" />
<glyph unicode=")" horiz-adv-x="524" d="M67 -267q105 155 166.5 403.5t61.5 535.5q0 597 -228 940l75 73q258 -375 258 -1013q0 -637 -258 -1013z" />
<glyph unicode="*" horiz-adv-x="654" d="M72 1182l26 98l186 -86l-4 268h95l-5 -268l185 86l27 -98l-188 -77l127 -216l-76 -61l-117 223l-117 -223l-77 61l126 216z" />
<glyph unicode="+" horiz-adv-x="1005" d="M87 486v120h361v487h109v-487h361v-120h-361v-486h-109v486h-361z" />
<glyph unicode="," horiz-adv-x="391" d="M99 84q0 48 26.5 76t70.5 28q43 0 69.5 -30.5t26.5 -81.5q0 -30 -15 -94l-67 -271l-88 10l59 262q-37 4 -59.5 30.5t-22.5 70.5z" />
<glyph unicode="-" horiz-adv-x="579" d="M87 480v132h405v-132h-405z" />
<glyph unicode="." horiz-adv-x="391" d="M99 84q0 47 26 75.5t70 28.5t70.5 -28t26.5 -76t-26.5 -76.5t-70.5 -28.5t-70 28.5t-26 76.5z" />
<glyph unicode="/" horiz-adv-x="721" d="M-96 -325l738 1996h108l-738 -1996h-108z" />
<glyph unicode="0" horiz-adv-x="1021" d="M115 730q0 226 46 395.5t136 264t213 94.5q124 0 213.5 -94.5t135 -264t45.5 -395.5q0 -343 -104 -547.5t-290 -204.5q-123 0 -213 94.5t-136 263.5t-46 394zM247 730q0 -189 29 -330t89 -221.5t145 -80.5t145 80.5t89.5 221.5t29.5 330t-29.5 330.5t-89.5 222.5t-145 81 t-144.5 -80.5t-89 -222t-29.5 -331.5z" />
<glyph unicode="1" horiz-adv-x="498" d="M23 1289v126l327 68v-1483h-130v1336z" />
<glyph unicode="2" horiz-adv-x="854" d="M64 1361q150 123 334 123q166 0 256.5 -96.5t90.5 -272.5q0 -162 -94 -313l-425 -681l534 3l-14 -124h-667v124l459 730q76 120 76 247q0 122 -59.5 190.5t-172.5 68.5q-147 0 -270 -118z" />
<glyph unicode="3" horiz-adv-x="878" d="M38 97l43 114q133 -116 289 -116q122 0 192 81t70 218q0 133 -79.5 210.5t-206.5 77.5h-139v125h139q125 0 200 74t75 207q0 128 -67.5 203.5t-183.5 75.5q-162 0 -282 -104l-45 111q144 110 343 110q168 0 265 -105t97 -282q0 -132 -59 -221.5t-166 -127.5 q111 -39 175.5 -133.5t64.5 -228.5q0 -188 -102 -297.5t-276 -109.5q-197 0 -347 118z" />
<glyph unicode="4" horiz-adv-x="980" d="M64 359v110l542 993h145v-988h169l-16 -115h-153v-359h-124l2 359h-565zM187 471l444 1l3 829z" />
<glyph unicode="5" horiz-adv-x="897" d="M70 100l43 113q128 -118 287 -118q125 0 196.5 91.5t71.5 244.5q0 143 -77 221t-227 78h-210l69 732h551v-125h-433l-48 -489h112q194 0 293 -108t99 -303q0 -208 -101.5 -333t-279.5 -125q-200 0 -346 121z" />
<glyph unicode="6" horiz-adv-x="965" d="M115 690q0 381 108 587.5t322 206.5q142 0 270 -73l-45 -114q-106 70 -216 70q-294 0 -307 -583q126 108 281 108q160 0 248.5 -119.5t88.5 -326.5q0 -209 -98 -338t-265 -129q-105 0 -180 48.5t-120 142.5t-66 222t-21 298zM246 660q1 -139 14.5 -239.5t42.5 -175 t78 -111t119 -36.5q115 0 176.5 96t61.5 250t-60 243t-172 89q-138 0 -260 -116z" />
<glyph unicode="7" horiz-adv-x="822" d="M47 1335v127h722v-125l-499 -1337h-146l510 1336z" />
<glyph unicode="8" d="M115 384q0 133 63.5 234.5t170.5 167.5q-98 61 -148 137t-50 191q0 171 95.5 270.5t259.5 99.5q163 0 259 -101t96 -273q0 -120 -53.5 -207.5t-149.5 -156.5q119 -68 179 -151t60 -215q0 -185 -105 -293t-286 -108t-286 109.5t-105 295.5zM241 393q0 -137 70.5 -216.5 t194.5 -79.5q123 0 193 76t70 208q0 51 -14.5 93t-34.5 70t-61 58t-72.5 47.5t-90.5 47.5l-52 26q-91 -49 -147 -135.5t-56 -194.5zM278 1110q0 -45 13 -82.5t31 -63.5t53 -52.5t64 -43.5t78 -42l45 -23q176 114 176 297q0 122 -61.5 194t-169.5 72t-168.5 -68t-60.5 -188z " />
<glyph unicode="9" horiz-adv-x="965" d="M99 1017q0 208 98.5 337.5t265.5 129.5q104 0 179 -48.5t120 -143t66 -222.5t21 -298q0 -381 -107.5 -587t-322.5 -206q-143 0 -269 73l44 113q106 -70 217 -70q293 0 307 583q-126 -108 -282 -108q-160 0 -248.5 120t-88.5 327zM227 1019q0 -155 59.5 -244t172.5 -89 q138 0 259 116q-2 283 -59 422.5t-195 139.5q-113 0 -175 -96t-62 -249z" />
<glyph unicode=":" horiz-adv-x="424" d="M116 84q0 47 26 75.5t70 28.5t70 -28t26 -76t-26 -76.5t-70 -28.5t-70 28t-26 77zM116 1009q0 48 26 77t70 29q43 0 69.5 -29t26.5 -77t-26 -76.5t-70 -28.5t-70 28.5t-26 76.5z" />
<glyph unicode=";" horiz-adv-x="425" d="M116 84q0 48 26.5 76t70.5 28q43 0 69.5 -30.5t26.5 -81.5q0 -30 -15 -94l-67 -271l-88 10l59 262q-37 4 -59.5 30.5t-22.5 70.5zM116 1009q0 48 26 77t70 29q43 0 69.5 -29t26.5 -77t-26 -76.5t-70 -28.5t-70 28.5t-26 76.5z" />
<glyph unicode="&#x3c;" horiz-adv-x="924" d="M89 476v141l719 424v-134l-628 -361l628 -358v-134z" />
<glyph unicode="=" horiz-adv-x="1062" d="M115 273v107h831v-107h-831zM115 711v109h831v-109h-831z" />
<glyph unicode="&#x3e;" horiz-adv-x="924" d="M115 52v133l629 360l-629 362v134l720 -424v-142z" />
<glyph unicode="?" horiz-adv-x="757" d="M13 1364q155 119 336 119q145 0 237 -101.5t92 -267.5q0 -83 -20 -152t-52 -115t-75.5 -80.5t-85 -53t-87.5 -29.5v-235l-124 -20v345q164 36 240.5 121t76.5 226q0 97 -56 168.5t-155 71.5q-151 0 -283 -114zM205 78q0 45 25 71.5t68 26.5q41 0 66.5 -26.5t25.5 -71.5 t-25.5 -72t-66.5 -27q-43 0 -68 26.5t-25 72.5z" />
<glyph unicode="@" horiz-adv-x="1624" d="M96 346q0 188 35.5 361t104 315t163 247.5t219 163.5t264.5 58q298 0 472 -202t174 -580q0 -135 -21.5 -253.5t-64.5 -215.5t-117 -153.5t-170 -56.5q-68 0 -120.5 41.5t-62.5 117.5q-127 -159 -251 -159q-120 0 -181.5 100t-61.5 275q1 166 36.5 303.5t111.5 226 t180 88.5q124 0 225 -126l8 90l110 23l-76 -703q-2 -26 -2 -37q0 -63 28.5 -97t79.5 -34q66 0 117 49.5t80 132.5t43 179t14 202q0 336 -149 514.5t-409 178.5q-153 0 -283 -82t-217.5 -222.5t-136 -329.5t-48.5 -402q0 -336 152 -517.5t407 -181.5q216 0 378 153l40 -89 q-186 -162 -426 -162q-292 0 -468.5 205t-176.5 579zM591 439q0 -134 41.5 -212t123.5 -78q22 0 46 11t41.5 23.5t43 39.5t38 42t39.5 49l49 458q-91 145 -190 145q-73 0 -127 -71t-79.5 -177.5t-25.5 -229.5z" />
<glyph unicode="A" horiz-adv-x="1046" d="M19 0l416 1462h174l417 -1462h-140l-118 417h-497l-117 -417h-135zM298 539h444l-222 795z" />
<glyph unicode="B" horiz-adv-x="955" d="M142 0v1462h358q153 0 245 -96.5t92 -274.5q0 -139 -58 -227.5t-159 -119.5q111 -31 175 -122.5t64 -239.5q0 -185 -97.5 -283.5t-261.5 -98.5h-358zM277 119h204q110 0 176.5 72.5t66.5 209.5q0 138 -66.5 210.5t-176.5 72.5h-204v-565zM277 802h202q101 0 162.5 69 t61.5 201q0 131 -61.5 200t-162.5 69h-202v-539z" />
<glyph unicode="C" horiz-adv-x="966" d="M96 731q0 339 134 545.5t358 206.5q179 0 315 -104l-45 -127q-114 97 -254 97q-170 0 -271.5 -169.5t-101.5 -448.5q0 -281 101.5 -450.5t271.5 -169.5q140 0 254 95l45 -125q-132 -101 -315 -101q-148 0 -260 92.5t-172 263t-60 395.5z" />
<glyph unicode="D" horiz-adv-x="1144" d="M142 0v1462h350q255 0 405.5 -189.5t150.5 -541.5q0 -353 -150.5 -542t-405.5 -189h-350zM276 125h223q191 0 302 154.5t111 451.5q0 296 -111 449.5t-302 153.5h-223v-1209z" />
<glyph unicode="E" horiz-adv-x="879" d="M142 0v1462h673v-128h-539v-529h401v-125h-401v-555h539v-125h-673z" />
<glyph unicode="F" horiz-adv-x="834" d="M142 0v1462h673v-128h-539v-529h401v-125h-401v-680h-134z" />
<glyph unicode="G" horiz-adv-x="1098" d="M96 730q0 339 142 545.5t373 206.5q183 0 341 -98l-44 -122q-136 94 -285 94q-176 0 -284 -173.5t-108 -452.5q0 -280 104 -453t275 -173q133 0 240 64v476h-249v116h377v-676q-155 -104 -369 -104q-231 0 -372 205t-141 545z" />
<glyph unicode="H" horiz-adv-x="1137" d="M142 0v1462h134v-653h584v653h134v-1462h-134v678h-584v-678h-134z" />
<glyph unicode="I" horiz-adv-x="418" d="M142 0v1462h134v-1462h-134z" />
<glyph unicode="J" horiz-adv-x="411" d="M-35 -337q91 46 131 136.5t40 226.5v1436h133v-1436q0 -186 -61.5 -307t-194.5 -182z" />
<glyph unicode="K" horiz-adv-x="975" d="M142 0v1462h134v-704l503 704h155l-527 -717l549 -745h-160l-520 728v-728h-134z" />
<glyph unicode="L" horiz-adv-x="764" d="M142 0v1462h134v-1332h475v-130h-609z" />
<glyph unicode="M" horiz-adv-x="1374" d="M142 0v1462h132l413 -780l412 780h133v-1462h-132l2 1211l-417 -789l-416 788l2 -1210h-129z" />
<glyph unicode="N" horiz-adv-x="1167" d="M142 0v1462h140l618 -1215l-4 1215h128v-1462h-140l-618 1217l4 -1217h-128z" />
<glyph unicode="O" horiz-adv-x="1187" d="M96 731q0 223 61.5 394t174.5 264.5t261 93.5t261.5 -93.5t175 -264.5t61.5 -394q0 -341 -136 -546t-362 -205q-148 0 -261 92.5t-174.5 263t-61.5 395.5zM231 731q0 -284 98 -454.5t264 -170.5q167 0 265.5 170.5t98.5 454.5q0 282 -98.5 452.5t-265.5 170.5 q-166 0 -264 -170t-98 -453z" />
<glyph unicode="P" horiz-adv-x="934" d="M142 0v1462h351q163 0 262.5 -112.5t99.5 -318.5t-100.5 -318.5t-262.5 -112.5h-215v-600h-135zM277 721h197q114 0 181 78.5t67 230.5q0 153 -67 231.5t-181 78.5h-197v-619z" />
<glyph unicode="Q" horiz-adv-x="1187" d="M96 731q0 339 136.5 545.5t360.5 206.5q225 0 361.5 -206.5t136.5 -545.5q0 -246 -72.5 -424.5t-202.5 -259.5l226 -356l-136 -42l-203 351q-51 -19 -110 -19q-148 0 -261 92.5t-174.5 262.5t-61.5 395zM231 731q0 -284 98 -454.5t264 -170.5q167 0 265.5 170.5 t98.5 454.5q0 282 -98.5 452.5t-265.5 170.5q-166 0 -264 -170t-98 -453z" />
<glyph unicode="R" horiz-adv-x="977" d="M142 0v1462h353q165 0 264 -110.5t99 -315.5q0 -184 -84.5 -290.5t-223.5 -125.5l371 -620h-143l-358 606h-144v-606h-134zM276 721h201q113 0 180.5 79t67.5 230q0 153 -67 231.5t-181 78.5h-201v-619z" />
<glyph unicode="S" horiz-adv-x="881" d="M82 115l43 122q154 -134 313 -134q104 0 166 75.5t62 196.5q0 32 -4 58.5t-15.5 50.5t-21 41.5t-31.5 37t-36 31t-45.5 30t-48.5 28t-56 30.5q-56 30 -91 51t-74 49.5t-62 57t-43 65.5t-28.5 82t-8.5 100q0 176 95 286t245 110q175 0 339 -126l-42 -124 q-144 125 -286 125q-99 0 -158.5 -73.5t-59.5 -188.5q0 -58 14.5 -100t54 -77t70 -53.5t99.5 -55.5q9 -5 13 -7q67 -36 109 -62t86 -63.5t67 -76t38 -93t15 -121.5q0 -187 -97 -297t-257 -110q-197 0 -364 135z" />
<glyph unicode="T" horiz-adv-x="865" d="M13 1330v132h839v-132h-352v-1330h-135v1330h-352z" />
<glyph unicode="U" horiz-adv-x="1100" d="M127 531v931h133v-931q0 -207 77 -315.5t213 -108.5t212.5 108.5t76.5 315.5v931h134v-931q0 -268 -112.5 -409.5t-310.5 -141.5t-310.5 141.5t-112.5 409.5z" />
<glyph unicode="V" horiz-adv-x="1033" d="M19 1462h141l358 -1308l359 1308h135l-411 -1462h-170z" />
<glyph unicode="W" horiz-adv-x="1584" d="M29 1462h138l256 -1268l303 1268h135l303 -1268l257 1268h134l-318 -1462h-146l-300 1249l-298 -1249h-147z" />
<glyph unicode="X" horiz-adv-x="1027" d="M20 0l410 744l-395 718h149l331 -607l332 607h144l-395 -718l411 -744h-150l-347 632l-348 -632h-142z" />
<glyph unicode="Y" horiz-adv-x="998" d="M-11 1462h156l353 -751l356 751h155l-445 -894v-568h-134v568z" />
<glyph unicode="Z" horiz-adv-x="897" d="M64 0v129l626 1209l-626 -3v127h768v-128l-626 -1209l626 3v-128h-768z" />
<glyph unicode="[" horiz-adv-x="562" d="M157 -325v1996h322v-98h-218v-1802h218v-96h-322z" />
<glyph unicode="\" horiz-adv-x="739" d="M-20 1671h108l738 -1996h-108z" />
<glyph unicode="]" horiz-adv-x="562" d="M82 -229h216v1802h-216v98h321v-1996h-321v96z" />
<glyph unicode="^" horiz-adv-x="750" d="M64 877l252 585h119l250 -585h-106l-204 489l-205 -489h-106z" />
<glyph unicode="_" horiz-adv-x="925" d="M17 -232h890v-96h-890v96z" />
<glyph unicode="`" d="M340 1555l135 20l197 -300l-105 -16z" />
<glyph unicode="a" horiz-adv-x="861" d="M78 275q0 159 82.5 241.5t237.5 107.5l214 34v74q0 137 -50.5 202.5t-152.5 65.5q-147 0 -258 -98l-43 108q142 104 320 104q311 0 311 -385v-539q0 -109 8 -190h-123l-7 132q-130 -153 -293 -153q-119 0 -182.5 80.5t-63.5 215.5zM203 292q0 -88 41.5 -140.5 t125.5 -52.5q65 0 129 46t113 119v291l-189 -31q-220 -36 -220 -232z" />
<glyph unicode="b" horiz-adv-x="917" d="M132 0v1553l127 22v-611q60 71 119.5 111t130.5 40q156 0 239 -154.5t83 -414.5q0 -170 -35.5 -296t-109 -198.5t-177.5 -72.5q-72 0 -132 40.5t-122 112.5v-132h-123zM259 273q57 -79 107.5 -121.5t110.5 -42.5q110 0 167.5 118.5t57.5 318.5t-58 319t-167 119 q-60 0 -110.5 -42.5t-107.5 -122.5v-546z" />
<glyph unicode="c" horiz-adv-x="763" d="M85 545q0 261 99 415.5t272 154.5q143 0 261 -110l-48 -116q-92 100 -202 100q-119 0 -185.5 -124.5t-66.5 -319.5q0 -193 66.5 -316.5t185.5 -123.5q109 0 202 101l48 -119q-118 -108 -261 -108q-173 0 -272 153.5t-99 412.5z" />
<glyph unicode="d" horiz-adv-x="918" d="M86 546q0 260 83 414.5t238 154.5q71 0 130.5 -40t120.5 -111v589l127 22v-1575h-124v132q-61 -72 -121 -112.5t-133 -40.5q-155 0 -238 154t-83 413zM214 546q0 -200 57.5 -318.5t167.5 -118.5q59 0 110.5 42.5t108.5 121.5v546q-58 80 -108.5 122.5t-110.5 42.5 q-110 0 -167.5 -119t-57.5 -319z" />
<glyph unicode="e" horiz-adv-x="887" d="M85 544q0 263 103 417t267 154q111 0 190.5 -72.5t118 -193t38.5 -275.5q0 -31 -1 -43h-587q3 -197 74 -315.5t195 -118.5q76 0 136.5 30t119.5 95l43 -109q-132 -134 -315 -134q-174 0 -278 153t-104 412zM214 641h460q-2 72 -16 136.5t-40.5 116.5t-68.5 82.5t-95 30.5 q-104 0 -167 -101t-73 -265z" />
<glyph unicode="f" horiz-adv-x="539" d="M17 974v119h141v114q0 368 247 368q106 0 189 -57l-39 -117q-58 49 -123 49q-80 0 -113.5 -69t-33.5 -197v-91h266l-15 -119h-251v-974h-127v974h-141z" />
<glyph unicode="g" horiz-adv-x="908" d="M87 554q0 260 82.5 410.5t238.5 150.5q73 0 132.5 -40.5t122.5 -113.5v120l121 20v-1092q0 -243 -92.5 -367t-269.5 -124q-184 0 -323 116l44 111q115 -110 263 -110q123 0 187.5 91.5t64.5 265.5v154q-60 -69 -119.5 -108.5t-130.5 -39.5q-156 0 -238.5 149t-82.5 407z M215 554q0 -198 57.5 -313t167.5 -115q60 0 110 42.5t108 123.5v527q-58 80 -109 122.5t-109 42.5q-110 0 -167.5 -115t-57.5 -315z" />
<glyph unicode="h" horiz-adv-x="923" d="M132 0v1553l127 22v-629q152 169 283 169q132 0 199 -98t67 -273v-744h-125v717q0 268 -178 268q-115 0 -246 -186v-799h-127z" />
<glyph unicode="i" horiz-adv-x="375" d="M99 1419q0 41 24 66.5t64 25.5t64.5 -25.5t24.5 -66.5t-24.5 -66.5t-64.5 -25.5t-64 25.5t-24 66.5zM124 0v1081l126 20v-1101h-126z" />
<glyph unicode="j" horiz-adv-x="375" d="M-31 -360q82 43 118.5 115t36.5 208v1117l127 21v-1140q0 -184 -56 -286.5t-177 -156.5zM99 1419q0 42 24 67t64 25q41 0 65 -25t24 -67q0 -41 -24.5 -66.5t-64.5 -25.5t-64 25.5t-24 66.5z" />
<glyph unicode="k" horiz-adv-x="848" d="M132 0v1553l127 22v-983l388 501h145l-404 -517l425 -576h-151l-403 560v-560h-127z" />
<glyph unicode="l" horiz-adv-x="392" d="M132 0v1553l127 22v-1575h-127z" />
<glyph unicode="m" horiz-adv-x="1414" d="M124 0v1081l121 20v-158q44 49 78 80.5t89.5 61.5t107.5 30q88 0 146.5 -47.5t84.5 -132.5q160 180 287 180q131 0 196 -99t65 -271v-745h-127v717q0 129 -39 198.5t-128 69.5q-101 0 -229 -184v-801h-131v717q0 129 -38.5 198.5t-127.5 69.5q-60 0 -115.5 -51.5 t-113.5 -134.5v-799h-126z" />
<glyph unicode="n" horiz-adv-x="915" d="M124 0v1081l121 20v-158q155 172 286 172q133 0 200.5 -98t67.5 -272v-745h-125v717q0 268 -177 268q-118 0 -247 -186v-799h-126z" />
<glyph unicode="o" horiz-adv-x="932" d="M84 546q0 257 102.5 413t279.5 156q178 0 280 -155.5t102 -412.5t-102 -412.5t-280 -155.5q-177 0 -279.5 155t-102.5 412zM212 546q0 -203 65.5 -324t188.5 -121t188.5 121t65.5 324t-65.5 324.5t-188.5 121.5t-188.5 -121.5t-65.5 -324.5z" />
<glyph unicode="p" horiz-adv-x="917" d="M132 -460v1541l122 20v-140q61 72 121.5 113t133.5 41q104 0 177.5 -73t109 -200t35.5 -297t-35.5 -296t-109 -198t-177.5 -72q-72 0 -132 39.5t-119 109.5v-588h-126zM259 273q57 -79 107.5 -121.5t110.5 -42.5q110 0 167.5 118.5t57.5 317.5q0 201 -57.5 320 t-167.5 119q-60 0 -110.5 -42.5t-107.5 -122.5v-546z" />
<glyph unicode="q" horiz-adv-x="916" d="M86 545q0 170 35.5 297t108.5 200t177 73q72 0 132.5 -41t121.5 -113v118l122 21v-1560h-125v588q-61 -70 -120 -109.5t-131 -39.5q-155 0 -238 154t-83 412zM214 545q0 -199 58 -317.5t167 -118.5q60 0 110.5 42t108.5 122v546q-58 80 -109 122.5t-110 42.5 q-109 0 -167 -119t-58 -320z" />
<glyph unicode="r" horiz-adv-x="621" d="M124 0v1081l122 20v-160q61 88 115 131t126 43q59 0 119 -35l-28 -153q-49 46 -116 46q-59 0 -107 -48.5t-105 -142.5v-782h-126z" />
<glyph unicode="s" horiz-adv-x="794" d="M80 85l42 116q114 -107 276 -107q82 0 133 53.5t51 134.5q0 86 -48.5 131t-161.5 84q-68 24 -113 48t-82.5 60t-55 85.5t-17.5 116.5q0 140 81 223.5t214 83.5q167 0 301 -94l-41 -116q-109 96 -249 96q-78 0 -127 -52t-49 -128q0 -83 48 -127.5t158 -84.5 q69 -25 113.5 -48.5t84 -59t57.5 -86.5t18 -120q0 -145 -83.5 -230t-220.5 -85q-189 0 -329 106z" />
<glyph unicode="t" horiz-adv-x="612" d="M17 974v119h141v289l127 21v-310h266l-15 -119h-251v-603q0 -130 31 -197t111 -67q68 0 123 46l38 -118q-82 -56 -188 -56q-67 0 -115 26.5t-75.5 76.5t-39.5 115t-12 151v626h-141z" />
<glyph unicode="u" horiz-adv-x="916" d="M116 349v731l128 21v-726q0 -268 174 -268q117 0 249 186v787l124 21v-1101h-120v150q-154 -171 -287 -171q-132 0 -200 97.5t-68 272.5z" />
<glyph unicode="v" horiz-adv-x="852" d="M28 1093h142l257 -925l261 925h135l-329 -1093h-136z" />
<glyph unicode="w" horiz-adv-x="1301" d="M38 1093h136l180 -897l242 897h115l242 -898l181 898h130l-241 -1093h-130l-242 905l-241 -905h-131z" />
<glyph unicode="x" horiz-adv-x="834" d="M29 0l304 567l-277 526h138l223 -426l224 426h135l-276 -518l304 -575h-136l-253 477l-251 -477h-135z" />
<glyph unicode="y" horiz-adv-x="852" d="M28 1093h143l256 -938l261 938h135l-385 -1275q-35 -116 -88.5 -188t-142.5 -112l-56 122q66 31 102.5 86t63.5 147l39 134z" />
<glyph unicode="z" horiz-adv-x="788" d="M73 0v114l487 861l-487 -3v121h634v-115l-486 -861l503 3l-17 -120h-634z" />
<glyph unicode="{" horiz-adv-x="560" d="M66 620v102q82 32 118.5 80t36.5 143v378q0 151 52.5 231.5t167.5 130.5l39 -100q-82 -41 -120 -97.5t-38 -167.5v-378q0 -115 -37 -173t-119 -97q82 -39 119 -98t37 -173v-379q0 -76 20 -127.5t52 -80t86 -55.5l-39 -100q-115 50 -167.5 130t-52.5 231v379 q0 94 -36.5 141.5t-118.5 79.5z" />
<glyph unicode="|" horiz-adv-x="396" d="M148 -325v1996h99v-1996h-99z" />
<glyph unicode="}" horiz-adv-x="560" d="M79 -241q54 27 86 55.5t52 80t20 127.5v379q0 78 19 131t51 83.5t86 56.5q-82 40 -119 98t-37 172v378q0 111 -38 167.5t-120 97.5l40 100q76 -33 122 -75.5t71.5 -113t25.5 -173.5v-378q0 -95 37 -143t119 -80v-102q-82 -32 -119 -79.5t-37 -141.5v-379q0 -151 -52 -231 t-167 -130z" />
<glyph unicode="~" horiz-adv-x="1012" d="M66 551q127 137 252 137q101 0 209 -84q53 -41 91 -61t79 -20q100 0 193 122l56 -103q-128 -138 -252 -138q-103 0 -209 85q-53 41 -91 60.5t-79 19.5q-101 0 -194 -122z" />
<glyph unicode="&#xa2;" horiz-adv-x="787" d="M85 599q0 239 86.5 391t242.5 174v230h96v-229q126 -13 229 -106l-47 -118q-87 89 -182 97v-878q94 7 182 98l47 -118q-105 -93 -229 -106v-228h-96v230q-156 22 -242.5 173t-86.5 390zM220 599q0 -165 50.5 -281t143.5 -145v853q-93 -31 -143.5 -147t-50.5 -280z" />
<glyph unicode="&#xa3;" horiz-adv-x="909" d="M55 577l9 96h127l11 140h-124l9 96h123l15 193q14 177 92 279t219 102q151 0 266 -78l-30 -120q-92 78 -209 78q-98 0 -150.5 -76t-62.5 -208l-13 -170h359l-20 -96h-348l-11 -140h330l-21 -96h-316l-37 -461h599l-13 -116h-723l46 577h-127z" />
<glyph unicode="&#xa5;" horiz-adv-x="982" d="M26 1462h149l318 -652l319 652h144l-379 -740h298v-95h-318v-142h318v-95h-318v-390h-131v390h-319v95h319v142h-319v95h300z" />
<glyph unicode="&#xa8;" d="M258 1423q0 37 21.5 59t56.5 22t56 -22t21 -59t-21 -59t-56 -22t-56.5 22t-21.5 59zM600 1423q0 37 21 59t56 22t56 -22t21 -59t-21 -59t-56 -22q-36 0 -56.5 22t-20.5 59z" />
<glyph unicode="&#xa9;" horiz-adv-x="1419" d="M96 731q0 227 80 412t221 290t314 105q172 0 312.5 -105t220 -290t79.5 -412t-79.5 -412.5t-219.5 -290.5t-313 -105t-314 105t-221 290.5t-80 412.5zM174 731q0 -207 68.5 -373.5t191.5 -260t277 -93.5q152 0 274.5 93.5t192 260t69.5 373.5q0 206 -69.5 372t-192 259.5 t-274.5 93.5q-154 0 -277 -93.5t-191.5 -259t-68.5 -372.5zM338 731q0 241 108 383.5t280 142.5q131 0 253 -120l-48 -105q-98 109 -196 109q-124 0 -203 -114.5t-79 -295.5q0 -182 79 -296t203 -114q99 0 196 109l48 -106q-119 -116 -253 -116q-172 0 -280 141.5 t-108 381.5z" />
<glyph unicode="&#xad;" horiz-adv-x="579" d="M87 480v132h405v-132h-405z" />
<glyph unicode="&#xae;" horiz-adv-x="751" d="M96 1118q0 159 78.5 262t199.5 103q123 0 202 -103t79 -262q0 -162 -79 -265.5t-202 -103.5q-122 0 -200 103.5t-78 265.5zM147 1118q0 -142 63 -229.5t164 -87.5q103 0 166 87.5t63 229.5q0 138 -63.5 225t-165.5 87q-101 0 -164 -87t-63 -225zM268 917v401h116 q49 0 78.5 -31.5t29.5 -88.5q0 -48 -22 -77.5t-60 -37.5l100 -166h-60l-92 159h-31v-159h-59zM327 1123h50q26 0 41.5 18.5t15.5 52.5q0 74 -57 74h-50v-145z" />
<glyph unicode="&#xb4;" d="M340 1275l197 300l135 -20l-227 -296z" />
<glyph unicode="&#xb8;" d="M346 -435l19 79q58 -53 123 -53q45 0 70.5 33t25.5 88q0 48 -28 76t-79 28h-90l32 196h81l-22 -123h24q81 0 122.5 -47.5t41.5 -129.5q0 -90 -45.5 -145t-123.5 -55q-83 0 -151 53z" />
<glyph unicode="&#x2c6;" d="M243 1275l194 291h137l195 -291l-103 -15l-160 231l-161 -231z" />
<glyph unicode="&#x2da;" d="M336 1396q0 90 45.5 143.5t124.5 53.5t124 -53.5t45 -143.5q0 -89 -45 -142.5t-124 -53.5t-124.5 53.5t-45.5 142.5zM417 1396q0 -56 23.5 -89.5t65.5 -33.5t64.5 33.5t22.5 89.5q0 57 -22.5 91.5t-64.5 34.5q-43 0 -66 -34t-23 -92z" />
<glyph unicode="&#x2dc;" d="M234 1431q76 90 163 90q76 0 141 -62q40 -40 81 -40q63 0 111 80l48 -93q-76 -89 -162 -89q-79 0 -141 61q-42 40 -81 40q-62 0 -111 -80q-8 16 -24.5 47t-24.5 46z" />
<glyph unicode="&#x2000;" horiz-adv-x="842" />
<glyph unicode="&#x2001;" horiz-adv-x="1685" />
<glyph unicode="&#x2002;" horiz-adv-x="842" />
<glyph unicode="&#x2003;" horiz-adv-x="1685" />
<glyph unicode="&#x2004;" horiz-adv-x="561" />
<glyph unicode="&#x2005;" horiz-adv-x="421" />
<glyph unicode="&#x2006;" horiz-adv-x="280" />
<glyph unicode="&#x2007;" horiz-adv-x="280" />
<glyph unicode="&#x2008;" horiz-adv-x="210" />
<glyph unicode="&#x2009;" horiz-adv-x="337" />
<glyph unicode="&#x200a;" horiz-adv-x="93" />
<glyph unicode="&#x2010;" horiz-adv-x="579" d="M87 480v132h405v-132h-405z" />
<glyph unicode="&#x2011;" horiz-adv-x="579" d="M87 480v132h405v-132h-405z" />
<glyph unicode="&#x2012;" horiz-adv-x="579" d="M87 480v132h405v-132h-405z" />
<glyph unicode="&#x2013;" horiz-adv-x="1011" d="M87 489v115h837v-115h-837z" />
<glyph unicode="&#x2014;" horiz-adv-x="1380" d="M87 489v115h1206v-115h-1206z" />
<glyph unicode="&#x2018;" horiz-adv-x="344" d="M79 1119q0 32 14 90l65 260l85 -12l-58 -249q36 -3 57.5 -29t21.5 -68q0 -46 -25.5 -73t-67.5 -27q-41 0 -66.5 30t-25.5 78z" />
<glyph unicode="&#x2019;" horiz-adv-x="344" d="M79 1383q0 45 25.5 72.5t68.5 27.5q41 0 66 -30t25 -78q0 -32 -14 -90l-64 -260l-85 11l57 249q-35 4 -57 30t-22 68z" />
<glyph unicode="&#x201a;" horiz-adv-x="344" d="M79 80q0 46 25.5 73t68.5 27q41 0 66 -29.5t25 -77.5q0 -27 -15 -91l-63 -260l-85 12l57 249q-35 4 -57 29.5t-22 67.5z" />
<glyph unicode="&#x201c;" horiz-adv-x="593" d="M79 1119q0 32 14 90l61 260l83 -12l-57 -249q34 -3 55.5 -29t21.5 -68q0 -46 -24.5 -73t-65.5 -27q-40 0 -64 30t-24 78zM336 1119q0 32 14 90l61 260l83 -12l-57 -249q34 -3 55.5 -29t21.5 -68q0 -46 -24.5 -73t-65.5 -27q-40 0 -64 30t-24 78z" />
<glyph unicode="&#x201d;" horiz-adv-x="593" d="M79 1383q0 45 24.5 72.5t65.5 27.5q40 0 64 -30t24 -78q0 -32 -14 -90l-61 -260l-83 11l57 249q-35 4 -56 30t-21 68zM336 1383q0 45 25 72.5t65 27.5t64 -30t24 -78q0 -32 -14 -90l-61 -260l-83 11l57 249q-35 4 -56 30t-21 68z" />
<glyph unicode="&#x201e;" horiz-adv-x="593" d="M79 80q0 46 24.5 73t65.5 27q40 0 64 -29.5t24 -77.5q0 -35 -13 -91l-62 -260l-83 12l57 249q-35 4 -56 29.5t-21 67.5zM336 80q0 46 24.5 73t65.5 27q40 0 64 -29.5t24 -77.5q0 -35 -13 -91l-62 -260l-83 12l57 249q-35 4 -56 29.5t-21 67.5z" />
<glyph unicode="&#x2026;" horiz-adv-x="1179" d="M99 84q0 47 26 75.5t70 28.5t70.5 -28t26.5 -76t-26.5 -76.5t-70.5 -28.5t-70 28.5t-26 76.5zM493 84q0 47 26 75.5t70 28.5t70.5 -28t26.5 -76t-26.5 -76.5t-70.5 -28.5t-70 28.5t-26 76.5zM887 84q0 47 26 75.5t70 28.5t70.5 -28t26.5 -76t-26.5 -76.5t-70.5 -28.5 t-70 28.5t-26 76.5z" />
<glyph unicode="&#x202f;" horiz-adv-x="337" />
<glyph unicode="&#x205f;" horiz-adv-x="421" />
<glyph unicode="&#x20ac;" horiz-adv-x="1023" d="M15 577l11 96h125q-2 42 -2 64q0 28 4 76h-112l10 96h109q35 266 163.5 420t320.5 154q184 0 315 -104l-33 -121q-55 49 -125.5 75.5t-141.5 26.5q-143 0 -239.5 -120.5t-126.5 -330.5h544l-25 -96h-529q-3 -36 -3 -76q0 -43 1 -64h494l-25 -96h-461q27 -220 124 -347.5 t245 -127.5q142 0 260 98l41 -119q-127 -101 -315 -101q-196 0 -326.5 161t-159.5 436h-143z" />
<glyph unicode="&#x2122;" horiz-adv-x="772" d="M42 1403v59h247v-59h-92v-374h-62v374h-93zM318 1029v433h62l108 -218l107 218h63v-433h-63l2 305l-110 -223l-110 223l2 -305h-61z" />
<glyph unicode="&#xe000;" horiz-adv-x="1095" d="M0 0v1095h1095v-1095h-1095z" />
</font>
</defs>
</svg>
