<?xml version="1.0" standalone="no"?>
<!DOCTYPE svg PUBLIC "-//W3C//DTD SVG 1.1//EN" "http://www.w3.org/Graphics/SVG/1.1/DTD/svg11.dtd" >
<svg xmlns="http://www.w3.org/2000/svg">
<metadata></metadata>
<defs>
<font id="ma_beta_blight_condensed" horiz-adv-x="971" >
<font-face units-per-em="2048" ascent="1536" descent="-512" />
<missing-glyph horiz-adv-x="370" />
<glyph horiz-adv-x="2048" />
<glyph horiz-adv-x="2048" />
<glyph unicode="&#xd;" horiz-adv-x="682" />
<glyph unicode=" "  horiz-adv-x="370" />
<glyph unicode="&#x09;" horiz-adv-x="370" />
<glyph unicode="&#xa0;" horiz-adv-x="370" />
<glyph unicode="!" horiz-adv-x="408" d="M148 42q0 28 15.5 45t40.5 17t40.5 -17t15.5 -45t-15.5 -45.5t-40.5 -17.5t-40.5 17t-15.5 46zM179 425v1037h49v-1028z" />
<glyph unicode="&#x22;" horiz-adv-x="424" d="M94 1084v372l51 12v-384h-51zM281 1084v372l49 12v-384h-49z" />
<glyph unicode="#" horiz-adv-x="847" d="M17 463l3 37h175l50 487h-173l5 37h172l46 438h41l-46 -438h322l46 438h42l-46 -438h175l-4 -37h-175l-50 -487h175l-5 -37h-174l-47 -463h-43l48 463h-322l-47 -463h-42l48 463h-174zM236 500h322l50 487h-322z" />
<glyph unicode="$" horiz-adv-x="866" d="M110 162l20 52q133 -126 284 -132v645q-61 30 -99 52.5t-77 54t-59.5 64.5t-34 80t-13.5 105q0 146 78 243t205 104v218h41v-219q148 -7 285 -118l-21 -50q-127 112 -264 121v-617q55 -28 87.5 -46.5t72 -45t61.5 -52t42.5 -59.5t29 -75.5t8.5 -92.5q0 -158 -82 -258 t-219 -104v-218h-41v218q-162 11 -304 130zM183 1085q0 -61 15 -106.5t49 -80.5t69.5 -58t97.5 -55v596q-105 -8 -168 -90.5t-63 -205.5zM455 82q118 8 184 94.5t66 215.5q0 52 -12.5 94t-31.5 71t-54.5 57t-67 46.5t-84.5 45.5v-624z" />
<glyph unicode="%" horiz-adv-x="1106" d="M110 1155q0 152 54 240t150 88q97 0 151 -88.5t54 -239.5q0 -149 -54.5 -236.5t-150.5 -87.5t-150 87.5t-54 236.5zM155 1155q0 -130 41.5 -205t117.5 -75q77 0 118 75t41 205q0 133 -41 208.5t-118 75.5q-76 0 -117.5 -76t-41.5 -208zM159 0l740 1462h48l-740 -1462h-48 zM587 304q0 152 54 240t150 88q97 0 151 -88.5t54 -239.5q0 -149 -54.5 -236.5t-150.5 -87.5t-150 87.5t-54 236.5zM632 304q0 -130 41.5 -205t117.5 -75q77 0 118 75t41 205q0 133 -41 208.5t-118 75.5q-76 0 -117.5 -76t-41.5 -208z" />
<glyph unicode="&#x26;" horiz-adv-x="1035" d="M103 354q0 84 22 156.5t62.5 129t87.5 99.5t109 83q-2 3 -21.5 32.5t-22.5 35t-20 33t-21.5 36.5t-17.5 34t-17 38t-13 36.5t-11.5 41t-5.5 39.5t-3 43q0 132 66 212t179 80q131 0 248 -86l-22 -52q-101 90 -224 90q-91 0 -142.5 -67t-51.5 -171q0 -26 4.5 -53t9 -47 t17 -49t18.5 -42.5t24.5 -44t23.5 -38.5t27 -41l24 -36l305 -464q55 131 137 403l48 -29q-3 -10 -30 -93.5t-39 -118.5t-36.5 -99.5t-46.5 -113.5l217 -329l-44 -22l-198 298q-148 -298 -340 -298q-143 0 -222.5 100.5t-79.5 273.5zM154 348q0 -142 65 -230t182 -88 q174 0 312 297l-302 454q-257 -168 -257 -433z" />
<glyph unicode="'" horiz-adv-x="243" d="M94 1084v373l55 11v-384h-55z" />
<glyph unicode="(" horiz-adv-x="500" d="M139 672q0 636 246 1008l29 -27q-112 -173 -172 -423t-60 -558q0 -294 64 -557.5t168 -422.5l-29 -27q-246 374 -246 1007z" />
<glyph unicode=")" horiz-adv-x="500" d="M86 -308q104 159 168 422.5t64 557.5q0 308 -60 558t-172 423l29 27q246 -372 246 -1008q0 -633 -246 -1007z" />
<glyph unicode="*" horiz-adv-x="639" d="M84 1213l15 51l197 -93l-1 291h50l-2 -291l196 93l16 -51l-199 -86l131 -235l-41 -31l-125 237l-126 -237l-41 31l129 235z" />
<glyph unicode="+" horiz-adv-x="1005" d="M98 521v51h379v521h50v-521h380v-51h-380v-521h-50v521h-379z" />
<glyph unicode="," horiz-adv-x="340" d="M114 43q0 28 15.5 44.5t41.5 16.5q25 0 40 -17.5t15 -48.5q0 -32 -6 -62l-49 -277l-45 4l43 277q-24 0 -39.5 17t-15.5 46z" />
<glyph unicode="-" horiz-adv-x="572" d="M98 521v51h377v-51h-377z" />
<glyph unicode="." horiz-adv-x="340" d="M114 42q0 28 15.5 45t40.5 17t40.5 -17t15.5 -45t-15.5 -45.5t-40.5 -17.5t-40.5 17t-15.5 46z" />
<glyph unicode="/" horiz-adv-x="692" d="M-80 -325l740 1996h47l-740 -1996h-47z" />
<glyph unicode="0" horiz-adv-x="997" d="M130 731q0 222 44 392t128 266t196 96q113 0 197 -96t127.5 -266t43.5 -392q0 -221 -43.5 -391t-127.5 -266t-197 -96q-112 0 -196 96t-128 266t-44 391zM185 731q0 -208 36.5 -365.5t107.5 -246.5t169 -89t169.5 89t108 246.5t36.5 365.5t-36.5 366.5t-108 248 t-169.5 89.5t-169 -89.5t-107.5 -248t-36.5 -366.5z" />
<glyph unicode="1" horiz-adv-x="443" d="M25 1369v49l256 65v-1483h-51v1422z" />
<glyph unicode="2" horiz-adv-x="834" d="M82 1360q142 125 318 125q150 0 231 -93t81 -255q0 -154 -91 -307l-468 -782h574l-7 -48h-628v48l485 809q82 137 82 276q0 142 -68 222t-196 80q-155 0 -289 -126z" />
<glyph unicode="3" horiz-adv-x="864" d="M50 101l21 55q76 -66 150.5 -96.5t162.5 -30.5q138 0 218 95.5t80 253.5t-93.5 251t-241.5 93h-136v47h136q147 0 234.5 88t87.5 246q0 150 -77 241t-208 91q-174 0 -307 -115l-23 52q141 113 334 113q151 0 241.5 -106.5t90.5 -273.5q0 -142 -64 -233.5t-181 -127.5 q119 -36 189 -130t70 -236q0 -179 -93.5 -289t-254.5 -110q-187 0 -336 122z" />
<glyph unicode="4" horiz-adv-x="961" d="M74 388v48l570 1026h64v-1026h179l-9 -48h-170v-388h-49v388h-585zM132 436h527v955z" />
<glyph unicode="5" horiz-adv-x="878" d="M82 102l21 55q138 -128 308 -128q141 0 221.5 108t80.5 286q0 169 -88 261.5t-262 92.5h-183l67 685h502v-49h-454l-58 -586h129q200 0 299 -105.5t99 -298.5q0 -198 -94 -321t-255 -123q-189 0 -333 123z" />
<glyph unicode="6" horiz-adv-x="942" d="M130 692q0 793 402 793q126 0 242 -67l-22 -54q-107 71 -219 71q-338 0 -348 -695q143 131 319 131q154 0 239 -120t85 -319q0 -201 -90 -327t-248 -126q-191 0 -275.5 179.5t-84.5 533.5zM185 672q2 -321 71.5 -481t233.5 -160q135 0 210 112t75 289q0 179 -71.5 284 t-203.5 105q-81 0 -162.5 -39t-152.5 -110z" />
<glyph unicode="7" horiz-adv-x="787" d="M57 1413v49h672v-49l-514 -1413h-57l517 1413h-618z" />
<glyph unicode="8" horiz-adv-x="990" d="M130 374q0 142 68.5 247.5t185.5 172.5q-109 60 -164 137t-55 199q0 163 88.5 259t241.5 96q152 0 241 -98t89 -262q0 -131 -59 -221t-168 -163q64 -33 109 -66t81 -77.5t54 -101.5t18 -128q0 -178 -98 -283.5t-267 -105.5t-267 107.5t-98 287.5zM185 375 q0 -159 82 -251.5t228 -92.5q147 0 229.5 90.5t82.5 247.5q0 43 -8.5 80.5t-21 66.5t-36.5 56t-46.5 46.5t-60 42.5t-66.5 38t-77 39l-59 29q-111 -55 -179 -158t-68 -234zM220 1126q0 -66 19 -116.5t61 -90.5t84.5 -66t113.5 -62l52 -26q101 60 161 150t60 207 q0 144 -73.5 228.5t-202.5 84.5q-130 0 -202.5 -82t-72.5 -227z" />
<glyph unicode="9" horiz-adv-x="942" d="M114 1032q0 201 90 327t248 126q191 0 275.5 -179.5t84.5 -533.5q0 -793 -402 -793q-126 0 -242 67l22 54q106 -71 219 -71q338 0 348 695q-143 -131 -319 -131q-154 0 -239 120t-85 319zM167 1032q0 -179 71.5 -284t203.5 -105q81 0 162.5 39t152.5 110 q-2 321 -71.5 481t-233.5 160q-135 0 -210 -112.5t-75 -288.5z" />
<glyph unicode=":" horiz-adv-x="373" d="M131 42q0 28 15 45t41 17q25 0 40 -17t15 -45t-15 -45.5t-40 -17.5q-26 0 -41 17t-15 46zM131 1051q0 28 15 46t41 18q25 0 40 -18t15 -46t-15 -45.5t-40 -17.5q-26 0 -41 17.5t-15 45.5z" />
<glyph unicode=";" horiz-adv-x="374" d="M131 43q0 28 15.5 44.5t41.5 16.5q25 0 40 -17.5t15 -48.5q0 -32 -6 -62l-49 -277l-45 4l43 277q-24 0 -39.5 17t-15.5 46zM131 1051q0 28 15 46t41 18q25 0 40 -18t15 -46t-15 -45.5t-40 -17.5q-26 0 -41 17.5t-15 45.5z" />
<glyph unicode="&#x3c;" horiz-adv-x="923" d="M98 516v61l695 436v-57l-662 -410l662 -409v-57z" />
<glyph unicode="=" horiz-adv-x="1069" d="M130 300v51h809v-51h-809zM130 741v52h809v-52h-809z" />
<glyph unicode="&#x3e;" horiz-adv-x="923" d="M130 80v57l662 409l-662 410v57l695 -436v-61z" />
<glyph unicode="?" horiz-adv-x="719" d="M17 1363q150 120 311 120q132 0 214.5 -97t82.5 -251q0 -88 -22.5 -160t-56 -117t-79.5 -79t-85 -50t-81 -26v-270l-48 -10v318q163 38 241.5 136t78.5 266q0 74 -27 138t-85.5 107.5t-137.5 43.5q-153 0 -283 -121zM223 42q0 28 14.5 45t41.5 17q25 0 40.5 -17t15.5 -45 t-15.5 -45.5t-40.5 -17.5q-27 0 -41.5 17t-14.5 46z" />
<glyph unicode="@" horiz-adv-x="1615" d="M110 348q0 234 54.5 442.5t152 363.5t243 246t316.5 91q289 0 459 -202t170 -579q0 -129 -20 -246.5t-60 -216t-109 -157t-159 -58.5q-67 0 -115.5 45.5t-49.5 130.5q-34 -41 -57 -66t-56.5 -53.5t-69 -42.5t-73.5 -14q-118 0 -178 99t-60 275q1 167 35 304t108.5 225.5 t177.5 88.5q69 0 131.5 -41t109.5 -106l11 120l48 10l-79 -749q-1 -12 -1 -34q0 -68 32.5 -105t89.5 -37q77 0 135.5 56.5t91.5 149.5t49.5 199t16.5 219q0 357 -156.5 546t-424.5 189q-128 0 -241.5 -55.5t-199 -156t-147.5 -235.5t-94 -299t-32 -342q0 -354 160 -546 t424 -192q218 0 382 149l22 -44q-178 -156 -409 -156q-139 0 -254 51.5t-198.5 149t-129.5 246.5t-46 337zM543 419q0 -159 51 -251t152 -92q22 0 44 7t46.5 25.5t40 30.5t44 45t37.5 43.5t40 48.5l56 530q-113 174 -233 174q-89 0 -154 -83t-94.5 -207.5t-29.5 -270.5z" />
<glyph unicode="A" horiz-adv-x="1017" d="M31 0l443 1462h68l443 -1462h-56l-143 478h-558l-143 -478h-54zM244 530h526l-263 877z" />
<glyph unicode="B" horiz-adv-x="909" d="M155 0v1462h296q147 0 237 -95.5t90 -275.5q0 -142 -59 -229t-160 -117q111 -30 176.5 -121.5t65.5 -240.5q0 -186 -96 -284.5t-254 -98.5h-296zM210 49h241q133 0 212.5 85.5t79.5 248.5q0 165 -79.5 250.5t-212.5 85.5h-241v-670zM210 768h241q123 0 197 81.5t74 240.5 t-74 240t-197 81h-241v-643z" />
<glyph unicode="C" horiz-adv-x="968" d="M110 731q0 222 59 393t166 265t246 94q177 0 307 -108l-19 -54q-125 109 -281 109q-190 0 -306 -192t-116 -507q0 -316 115.5 -507.5t306.5 -191.5q160 0 281 106l19 -53q-129 -105 -307 -105q-211 0 -341 206.5t-130 544.5z" />
<glyph unicode="D" horiz-adv-x="1121" d="M155 0v1462h321q243 0 389 -187t146 -544q0 -358 -145.5 -544.5t-389.5 -186.5h-321zM209 50h271q218 0 346 172t128 509q0 335 -128.5 507t-345.5 172h-271v-1360z" />
<glyph unicode="E" horiz-adv-x="839" d="M155 0v1462h622v-52h-568v-642h437v-50h-437v-668h568v-50h-622z" />
<glyph unicode="F" horiz-adv-x="794" d="M155 0v1462h622v-52h-568v-642h437v-50h-437v-718h-54z" />
<glyph unicode="G" horiz-adv-x="1073" d="M110 730q0 222 63 393.5t175 265t256 93.5q174 0 329 -102l-21 -57q-146 108 -305 108q-196 0 -318.5 -193.5t-122.5 -507.5t120.5 -507t314.5 -193q159 0 285 81v560h-286v51h340v-647q-66 -47 -155.5 -71t-180.5 -24q-219 0 -356.5 207t-137.5 543z" />
<glyph unicode="H" horiz-adv-x="1102" d="M155 0v1462h54v-693h684v693h54v-1462h-54v718h-684v-718h-54z" />
<glyph unicode="I" horiz-adv-x="364" d="M155 0v1462h54v-1462h-54z" />
<glyph unicode="J" horiz-adv-x="351" d="M-35 -412q178 109 178 413v1461h53v-1461q0 -168 -50.5 -283.5t-161.5 -180.5z" />
<glyph unicode="K" horiz-adv-x="909" d="M155 0v1462h54v-713l582 713h65l-588 -717l611 -745h-69l-601 738v-738h-54z" />
<glyph unicode="L" horiz-adv-x="737" d="M155 0v1462h54v-1412h511v-50h-565z" />
<glyph unicode="M" horiz-adv-x="1337" d="M155 0v1462h54l459 -854l458 854h56v-1462h-54v1359l-460 -859l-459 859v-1359h-54z" />
<glyph unicode="N" horiz-adv-x="1134" d="M155 0v1462h61l711 -1366l-3 1366h55v-1462h-61l-710 1368l1 -1368h-54z" />
<glyph unicode="O" horiz-adv-x="1172" d="M110 731q0 336 132.5 544t343.5 208q140 0 248 -94t168 -265t60 -393q0 -338 -132 -544.5t-344 -206.5t-344 207t-132 544zM166 731q0 -316 116 -508t304 -192q189 0 305.5 192.5t116.5 507.5q0 207 -53 366t-149 246t-220 87q-188 0 -304 -192.5t-116 -506.5z" />
<glyph unicode="P" horiz-adv-x="892" d="M155 0v1462h296q157 0 253 -106t96 -306q0 -201 -97 -307t-252 -106h-241v-637h-55zM210 686h240q133 0 212.5 92t79.5 270q0 179 -79.5 271t-212.5 92h-240v-725z" />
<glyph unicode="Q" horiz-adv-x="1172" d="M110 731q0 223 60 394t168.5 264.5t247.5 93.5q212 0 344 -207.5t132 -544.5q0 -256 -78.5 -440.5t-214.5 -261.5l224 -352l-58 -12l-214 341q-66 -25 -135 -25q-139 0 -247.5 93t-168.5 263.5t-60 393.5zM166 731q0 -315 116 -507.5t304 -192.5q189 0 305.5 193 t116.5 507t-116.5 507t-305.5 193q-188 0 -304 -192.5t-116 -507.5z" />
<glyph unicode="R" horiz-adv-x="935" d="M155 0v1462h295q158 0 254 -106t96 -306q0 -197 -95 -302.5t-249 -110.5l409 -637h-62l-410 637h-184v-637h-54zM209 686h241q133 0 212.5 92t79.5 270q0 179 -79.5 271t-212.5 92h-241v-725z" />
<glyph unicode="S" horiz-adv-x="847" d="M93 120l24 52q152 -142 310 -142q124 0 197.5 93t73.5 243q0 30 -3 56t-11.5 49.5t-15.5 42t-24 38.5t-26.5 32.5t-34 30.5t-36 27t-42 26.5t-43.5 25t-48 26.5q-55 30 -88.5 50t-72.5 48t-61 54.5t-42.5 62t-29 78.5t-8.5 96q0 162 86 268t223 106q160 0 317 -128 l-23 -56q-142 132 -288 132q-117 0 -188.5 -91t-71.5 -232q0 -68 16.5 -117.5t61.5 -90t76.5 -61t108.5 -61.5q4 -2 6 -3.5t5.5 -3t6.5 -3.5q66 -36 106 -61t83 -61t65.5 -73t37 -89t14.5 -117q0 -173 -88 -280t-237 -107q-181 0 -336 140z" />
<glyph unicode="T" horiz-adv-x="839" d="M17 1410v52h805v-52h-375v-1410h-55v1410h-375z" />
<glyph unicode="U" horiz-adv-x="1069" d="M140 527v935h54v-935q0 -239 92 -367.5t249 -128.5t248.5 128t91.5 368v935h54v-935q0 -263 -106.5 -405t-287.5 -142t-288 141.5t-107 405.5z" />
<glyph unicode="V" horiz-adv-x="1003" d="M31 1462h56l414 -1407l416 1407h54l-435 -1462h-69z" />
<glyph unicode="W" horiz-adv-x="1567" d="M41 1462h52l314 -1401l345 1401h64l345 -1401l314 1401h51l-332 -1462h-66l-345 1396l-344 -1396h-67z" />
<glyph unicode="X" horiz-adv-x="991" d="M32 0l432 745l-416 717h63l384 -663l385 663h63l-416 -717l432 -745h-63l-401 690l-400 -690h-63z" />
<glyph unicode="Y" horiz-adv-x="955" d="M2 1462h65l407 -812l410 812h69l-451 -877v-585h-54v585z" />
<glyph unicode="Z" horiz-adv-x="858" d="M63 0v51l675 1360h-675v51h731v-51l-675 -1360h675v-51h-731z" />
<glyph unicode="[" horiz-adv-x="539" d="M171 -325v1996h270v-39h-228v-1920h228v-37h-270z" />
<glyph unicode="\" horiz-adv-x="692" d="M-15 1671h47l740 -1996h-47z" />
<glyph unicode="]" horiz-adv-x="539" d="M98 -288h224v1920h-224v39h269v-1996h-269v37z" />
<glyph unicode="^" horiz-adv-x="726" d="M80 885l256 577h55l255 -577h-48l-235 541l-237 -541h-46z" />
<glyph unicode="_" horiz-adv-x="892" d="M17 -272h857v-40h-857v40z" />
<glyph unicode="`" d="M352 1568l59 9l208 -286l-55 -8z" />
<glyph unicode="a" horiz-adv-x="830" d="M90 260q0 153 76 232t220 103l255 42v96q0 169 -58.5 250t-177.5 81q-154 0 -264 -104l-22 54q132 101 290 101q283 0 283 -380v-541q0 -113 8 -194h-54l-5 148q-137 -169 -306 -169q-121 0 -183 77t-62 204zM141 268q0 -109 50 -174t155 -65q78 0 156 55t139 143v360 l-237 -40q-127 -21 -195 -87.5t-68 -191.5z" />
<glyph unicode="b" horiz-adv-x="888" d="M147 0v1563l51 12v-631q67 80 131.5 125.5t141.5 45.5q105 0 178 -72.5t107.5 -198.5t34.5 -297q0 -170 -34.5 -296t-107.5 -199t-178 -73q-77 0 -141.5 45t-131.5 125v-149h-51zM198 229q70 -95 132 -146.5t134 -51.5q134 0 203.5 140t69.5 376q0 154 -29.5 268 t-91.5 180.5t-152 66.5q-49 0 -98 -29t-85.5 -68t-82.5 -101v-635z" />
<glyph unicode="c" horiz-adv-x="750" d="M98 545q0 168 38.5 296t116 201t184.5 73q143 0 255 -114l-24 -52q-104 115 -228 115q-92 0 -159 -70t-99.5 -186t-32.5 -263q0 -146 32.5 -261t99.5 -184t159 -69q124 0 228 115l24 -54q-111 -113 -255 -113q-107 0 -184.5 72.5t-116 199t-38.5 294.5z" />
<glyph unicode="d" horiz-adv-x="889" d="M97 547q0 171 34.5 297t107.5 198.5t178 72.5q77 0 141.5 -45.5t131.5 -125.5v619l52 12v-1575h-52v149q-67 -80 -131.5 -125t-141.5 -45q-105 0 -178 73t-107.5 199t-34.5 296zM151 547q0 -236 69 -376t204 -140q70 0 132.5 51.5t133.5 146.5v635q-72 96 -133.5 147 t-132.5 51q-91 0 -153 -66.5t-91 -180.5t-29 -268z" />
<glyph unicode="e" horiz-adv-x="863" d="M98 545q0 262 97 416t247 154q104 0 178 -69.5t109.5 -186.5t35.5 -268v-24h-615q2 -242 83 -389t223 -147q81 0 145 33.5t127 105.5l22 -52q-125 -139 -298 -139q-163 0 -258.5 155.5t-95.5 410.5zM150 616h561q-2 116 -30.5 215.5t-91 166t-146.5 66.5 q-126 0 -203.5 -125t-89.5 -323z" />
<glyph unicode="f" horiz-adv-x="488" d="M17 1045v48h148v116q0 366 224 366q90 0 158 -50l-23 -55q-63 55 -131 55q-97 0 -136.5 -84t-39.5 -242v-106h289l-8 -48h-281v-1045h-52v1045h-148z" />
<glyph unicode="g" horiz-adv-x="879" d="M97 554q0 261 81.5 411t238.5 150q78 0 142 -45t131 -126v142l50 11v-1102q0 -235 -84.5 -356t-242.5 -121q-166 0 -299 114l23 52q119 -116 272 -116q137 0 209 108.5t72 318.5v172q-66 -80 -130.5 -124.5t-142.5 -44.5q-157 0 -238.5 148.5t-81.5 407.5zM151 554 q0 -234 69 -370t204 -136q72 0 133.5 51.5t132.5 148.5v616q-71 95 -133.5 146.5t-132.5 51.5q-135 0 -204 -136.5t-69 -371.5z" />
<glyph unicode="h" horiz-adv-x="896" d="M147 0v1563l51 12v-653q163 193 305 193q133 0 198 -96t65 -271v-748h-49v739q0 159 -52 241t-167 82q-139 0 -300 -223v-839h-51z" />
<glyph unicode="i" horiz-adv-x="328" d="M113 1435q0 24 14 39.5t37 15.5t37 -15.5t14 -39.5t-14 -39t-37 -15t-37 15t-14 39zM139 0v1086l50 11v-1097h-50z" />
<glyph unicode="j" horiz-adv-x="328" d="M-23 -437q85 54 123.5 136t38.5 234v1153l50 11v-1164q0 -172 -45.5 -264.5t-146.5 -150.5zM113 1435q0 24 14 39.5t37 15.5t37 -15.5t14 -39.5t-14 -39t-37 -15t-37 15t-14 39z" />
<glyph unicode="k" horiz-adv-x="797" d="M147 0v1563l51 12v-992l460 510h70l-467 -517l486 -576h-69l-480 572v-572h-51z" />
<glyph unicode="l" horiz-adv-x="345" d="M147 0v1563l51 12v-1575h-51z" />
<glyph unicode="m" horiz-adv-x="1390" d="M139 0v1086l50 11v-175q32 39 57.5 66t63.5 59.5t79 50t82 17.5q95 0 155.5 -53.5t82.5 -151.5q168 205 298 205t192 -97.5t62 -269.5v-748h-52v739q0 156 -47.5 239.5t-158.5 83.5q-118 0 -279 -220v-842h-51v739q0 155 -47.5 239t-157.5 84q-38 0 -77 -19t-76 -54.5 t-65 -69.5t-61 -80v-839h-50z" />
<glyph unicode="n" horiz-adv-x="888" d="M139 0v1086l50 11v-175q163 193 306 193q133 0 198 -96t65 -271v-748h-49v739q0 159 -52 241t-167 82q-142 0 -301 -223v-839h-50z" />
<glyph unicode="o" horiz-adv-x="914" d="M97 547q0 166 42 293.5t124 201t194 73.5q113 0 195 -73.5t123.5 -201t41.5 -293.5t-41.5 -293.5t-124 -201t-194.5 -73.5t-194 73.5t-124 201.5t-42 293zM151 547q0 -233 80 -374.5t226 -141.5q147 0 227 141.5t80 374.5q0 234 -80.5 376t-226.5 142q-97 0 -167 -66.5 t-104.5 -182.5t-34.5 -269z" />
<glyph unicode="p" horiz-adv-x="888" d="M147 -460v1546l51 11v-153q66 80 131 125.5t142 45.5q105 0 178 -73t107.5 -199.5t34.5 -297.5q0 -170 -34.5 -295.5t-107.5 -198t-178 -72.5q-78 0 -143 45.5t-130 124.5v-609h-51zM198 229q70 -95 132 -146.5t134 -51.5q134 0 203.5 139.5t69.5 374.5q0 237 -69.5 377 t-203.5 140q-49 0 -98 -29t-85.5 -68t-82.5 -101v-635z" />
<glyph unicode="q" horiz-adv-x="887" d="M97 545q0 171 34.5 297.5t107.5 199.5t178 73q78 0 142 -45t131 -126v140l50 11v-1555h-50v609q-67 -80 -131 -125t-142 -45q-105 0 -178 72.5t-107.5 198t-34.5 295.5zM151 545q0 -235 69.5 -374.5t203.5 -139.5q71 0 133 51t133 147v635q-71 95 -133.5 146.5 t-132.5 51.5q-134 0 -203.5 -140t-69.5 -377z" />
<glyph unicode="r" horiz-adv-x="585" d="M139 0v1086l50 11v-177q34 51 56.5 80t53.5 59t63.5 43t71.5 13q66 0 134 -44l-21 -53q-50 44 -116 44q-36 0 -68.5 -16.5t-64.5 -53.5t-53 -68t-56 -89v-835h-50z" />
<glyph unicode="s" horiz-adv-x="771" d="M93 87l25 55q114 -113 281 -113q99 0 161.5 68.5t62.5 170.5q0 108 -58 163.5t-187 100.5q-131 46 -193.5 111t-62.5 186q0 128 74.5 207t193.5 79q151 0 276 -97l-23 -54q-59 54 -118 77t-133 23q-96 0 -156.5 -65.5t-60.5 -163.5q0 -102 56.5 -156.5t182.5 -100.5 q66 -24 109 -47t80.5 -57.5t55.5 -83.5t18 -115q0 -134 -76.5 -215t-199.5 -81q-174 0 -308 108z" />
<glyph unicode="t" horiz-adv-x="568" d="M17 1045v48h149v295l52 10v-305h288l-8 -48h-280v-691q0 -78 6.5 -132.5t24.5 -100t52 -68t86 -22.5q73 0 130 50l22 -52q-67 -50 -156 -50q-63 0 -106.5 26.5t-67 77.5t-33.5 114.5t-10 149.5v698h-149z" />
<glyph unicode="u" horiz-adv-x="889" d="M130 347v739l53 11v-743q0 -158 51.5 -240.5t164.5 -82.5q140 0 302 222v833l49 11v-1097h-49v171q-164 -192 -307 -192q-133 0 -198.5 96t-65.5 272z" />
<glyph unicode="v" horiz-adv-x="803" d="M42 1093h57l303 -1025l305 1025h54l-331 -1093h-57z" />
<glyph unicode="w" horiz-adv-x="1260" d="M50 1093h55l220 -1011l276 1011h61l276 -1011l220 1011h52l-242 -1093h-59l-279 1026l-278 -1026h-59z" />
<glyph unicode="x" horiz-adv-x="795" d="M42 0l325 574l-294 519h60l264 -466l264 466h59l-294 -518l327 -575h-59l-297 522l-296 -522h-59z" />
<glyph unicode="y" horiz-adv-x="803" d="M42 1093h58l302 -1029l305 1029h54l-389 -1287q-33 -110 -76 -178t-114 -110l-29 45q113 69 169 262l51 175z" />
<glyph unicode="z" horiz-adv-x="754" d="M74 0v48l540 997h-540v48h598v-48l-539 -997h549l-10 -48h-598z" />
<glyph unicode="{" horiz-adv-x="551" d="M82 652v39q58 28 90.5 54t53.5 74t21 119v401q0 97 24.5 163t63 103t106.5 75l16 -38q-43 -27 -70.5 -50t-51.5 -57.5t-35 -82.5t-11 -113v-401q0 -108 -38 -165.5t-120 -100.5q82 -42 120 -100.5t38 -165.5v-402q0 -65 11 -113t35 -82.5t51.5 -57t70.5 -48.5l-16 -38 q-68 38 -106.5 74.5t-63 102t-24.5 162.5v402q0 70 -21 118t-53.5 74t-90.5 54z" />
<glyph unicode="|" horiz-adv-x="367" d="M162 -325v1996h43v-1996h-43z" />
<glyph unicode="}" horiz-adv-x="551" d="M94 -297q43 26 70.5 48.5t51.5 57t35 82.5t11 113v402q0 107 38 165.5t120 100.5q-82 43 -120 100.5t-38 165.5v401q0 65 -11 113t-35 82.5t-51.5 57.5t-70.5 50l16 38q68 -38 106.5 -75t63 -103t24.5 -163v-401q0 -71 21 -119t53.5 -74t90.5 -54v-39q-58 -28 -90.5 -54 t-53.5 -74t-21 -118v-402q0 -97 -24.5 -162.5t-63 -102t-106.5 -74.5z" />
<glyph unicode="~" horiz-adv-x="990" d="M82 530q116 125 226 125q100 0 215 -99q79 -68 157 -68q103 0 199 121l29 -46q-115 -125 -225 -125q-104 0 -215 99q-76 68 -157 68q-104 0 -200 -121z" />
<glyph unicode="&#xa2;" horiz-adv-x="773" d="M98 600q0 159 36.5 282.5t108.5 198.5t173 85v228h45v-225q138 -6 254 -114l-23 -54q-107 115 -231 116v-1032q121 0 231 113l23 -52q-115 -109 -254 -113v-227h-45v229q-151 15 -234.5 168.5t-83.5 396.5zM150 600q0 -210 70 -352.5t196 -161.5v1029 q-126 -21 -196 -163.5t-70 -351.5z" />
<glyph unicode="&#xa3;" horiz-adv-x="888" d="M63 599l6 40h127l17 209h-125l5 40h123l17 231q12 172 84.5 268t205.5 96q146 0 259 -82l-16 -56q-105 90 -237 90q-112 0 -172 -84.5t-72 -231.5l-19 -231h409l-9 -40h-403l-16 -209h376l-7 -40h-372l-43 -551h639l-6 -48h-688l46 599h-129z" />
<glyph unicode="&#xa5;" horiz-adv-x="940" d="M41 1462h62l367 -706l368 706h61l-402 -761h343v-39h-344v-210h344v-40h-344v-412h-52v412h-344v40h344v210h-344v39h344z" />
<glyph unicode="&#xa8;" d="M280 1438q0 22 13 36t34 14t33.5 -14t12.5 -36t-12.5 -36t-33.5 -14t-34 14t-13 36zM599 1438q0 22 12.5 36t33.5 14t33.5 -14t12.5 -36t-12.5 -36t-33.5 -14t-33.5 14t-12.5 36z" />
<glyph unicode="&#xa9;" horiz-adv-x="1416" d="M111 731q0 227 77.5 412t214.5 290.5t306 105.5q168 0 304.5 -105.5t214 -290.5t77.5 -412t-77.5 -412t-214 -290t-304.5 -105q-169 0 -306 105t-214.5 290t-77.5 412zM162 731q0 -216 70 -389.5t195 -271.5t282 -98q155 0 279.5 97.5t195.5 271.5t71 390t-71 389.5 t-195.5 271t-279.5 97.5q-157 0 -282 -97.5t-195 -271t-70 -389.5zM350 731q0 241 104 383.5t270 142.5q126 0 244 -120l-20 -52q-113 122 -221 122q-143 0 -235.5 -133t-92.5 -343q0 -211 92.5 -343t235.5 -132q110 0 221 121l20 -53q-118 -116 -244 -116 q-166 0 -270 141.5t-104 381.5z" />
<glyph unicode="&#xad;" horiz-adv-x="572" d="M98 521v51h377v-51h-377z" />
<glyph unicode="&#xae;" horiz-adv-x="765" d="M111 1118q0 159 76 262t194 103q120 0 197 -103t77 -262q0 -162 -77 -265t-197 -103q-119 0 -194.5 103t-75.5 265zM152 1118q0 -147 63.5 -237.5t165.5 -90.5q104 0 167.5 90.5t63.5 237.5q0 144 -64 234t-167 90q-102 0 -165.5 -90t-63.5 -234zM284 916v402h103 q47 0 76 -30.5t29 -86.5q0 -50 -24 -79.5t-64 -35.5l106 -170h-40l-106 166h-39v-166h-41zM325 1116h59q31 0 49 20.5t18 60.5q0 86 -67 86h-59v-167z" />
<glyph unicode="&#xb4;" d="M352 1291l208 286l59 -9l-212 -285z" />
<glyph unicode="&#xb8;" d="M342 -429l15 49q59 -54 122 -54q49 0 77.5 39.5t28.5 102.5q0 59 -31.5 90.5t-92.5 31.5h-77l29 183h49l-23 -135h23q84 0 125.5 -44t41.5 -126q0 -84 -39.5 -137t-107.5 -53q-77 0 -140 53z" />
<glyph unicode="&#x2c6;" d="M254 1291l195 282h71l196 -282l-49 -7l-182 246l-182 -246z" />
<glyph unicode="&#x2da;" d="M335 1400q0 84 40 136t111 52q70 0 109.5 -52t39.5 -136q0 -83 -39.5 -135t-109.5 -52t-110.5 52t-40.5 135zM383 1400q0 -61 27 -98.5t76 -37.5q48 0 74 37.5t26 98.5q0 63 -26 101.5t-74 38.5q-49 0 -76 -38.5t-27 -101.5z" />
<glyph unicode="&#x2dc;" d="M244 1433q61 76 136 76q69 0 124 -58q40 -45 86 -45q59 0 105 76l32 -50q-61 -76 -136 -76q-69 0 -123 58q-42 44 -86 44q-60 0 -106 -76z" />
<glyph unicode="&#x2000;" horiz-adv-x="840" />
<glyph unicode="&#x2001;" horiz-adv-x="1680" />
<glyph unicode="&#x2002;" horiz-adv-x="840" />
<glyph unicode="&#x2003;" horiz-adv-x="1680" />
<glyph unicode="&#x2004;" horiz-adv-x="560" />
<glyph unicode="&#x2005;" horiz-adv-x="420" />
<glyph unicode="&#x2006;" horiz-adv-x="280" />
<glyph unicode="&#x2007;" horiz-adv-x="280" />
<glyph unicode="&#x2008;" horiz-adv-x="210" />
<glyph unicode="&#x2009;" horiz-adv-x="336" />
<glyph unicode="&#x200a;" horiz-adv-x="93" />
<glyph unicode="&#x2010;" horiz-adv-x="572" d="M98 521v51h377v-51h-377z" />
<glyph unicode="&#x2011;" horiz-adv-x="572" d="M98 521v51h377v-51h-377z" />
<glyph unicode="&#x2012;" horiz-adv-x="572" d="M98 521v51h377v-51h-377z" />
<glyph unicode="&#x2013;" horiz-adv-x="969" d="M98 521v51h773v-51h-773z" />
<glyph unicode="&#x2014;" horiz-adv-x="1315" d="M98 521v51h1119v-51h-1119z" />
<glyph unicode="&#x2018;" horiz-adv-x="296" d="M94 1140q0 21 6 59l47 266l44 -6l-42 -263q23 0 38 -17t15 -44q0 -26 -15 -42.5t-40 -16.5q-24 0 -38.5 17t-14.5 47z" />
<glyph unicode="&#x2019;" horiz-adv-x="296" d="M94 1424q0 26 15 42.5t40 16.5q24 0 38.5 -17t14.5 -47q0 -21 -6 -59l-47 -266l-44 6l42 263q-23 0 -38 17t-15 44z" />
<glyph unicode="&#x201a;" horiz-adv-x="296" d="M94 41q0 26 15 42.5t40 16.5q24 0 38.5 -17t14.5 -47q0 -21 -6 -59l-47 -266l-44 6l42 263q-23 0 -38 17t-15 44z" />
<glyph unicode="&#x201c;" horiz-adv-x="484" d="M94 1140q0 27 5 59l46 266l44 -6l-42 -263q22 0 37 -17t15 -44q0 -26 -14.5 -42.5t-39.5 -16.5q-23 0 -37 17t-14 47zM285 1140q0 27 5 59l46 266l44 -6l-42 -263q22 0 37 -17t15 -44q0 -26 -14.5 -42.5t-39.5 -16.5q-23 0 -37 17t-14 47z" />
<glyph unicode="&#x201d;" horiz-adv-x="484" d="M94 1424q0 26 14.5 42.5t39.5 16.5q23 0 37 -17t14 -47q0 -27 -5 -59l-46 -266l-44 6l42 263q-22 0 -37 17t-15 44zM285 1424q0 26 14.5 42.5t39.5 16.5q23 0 37 -17t14 -47q0 -27 -5 -59l-46 -266l-44 6l42 263q-22 0 -37 17t-15 44z" />
<glyph unicode="&#x201e;" horiz-adv-x="484" d="M94 41q0 26 14.5 42.5t39.5 16.5q23 0 37 -17t14 -47q0 -27 -5 -59l-46 -266l-44 6l42 263q-22 0 -37 17t-15 44zM285 41q0 26 14.5 42.5t39.5 16.5q23 0 37 -17t14 -47q0 -27 -5 -59l-46 -266l-44 6l42 263q-22 0 -37 17t-15 44z" />
<glyph unicode="&#x2026;" horiz-adv-x="1018" d="M114 42q0 28 15.5 45t40.5 17t40.5 -17t15.5 -45t-15.5 -45.5t-40.5 -17.5t-40.5 17t-15.5 46zM453 42q0 28 15.5 45t40.5 17t40.5 -17t15.5 -45t-15.5 -45.5t-40.5 -17.5t-40.5 17t-15.5 46zM792 42q0 28 15.5 45t40.5 17t40.5 -17t15.5 -45t-15.5 -45.5t-40.5 -17.5 t-40.5 17t-15.5 46z" />
<glyph unicode="&#x202f;" horiz-adv-x="336" />
<glyph unicode="&#x205f;" horiz-adv-x="420" />
<glyph unicode="&#x20ac;" horiz-adv-x="1009" d="M17 599l5 40h133q0 10 -1 28.5t-1.5 34t-0.5 29.5q0 55 5 117h-113l3 40h112q31 273 155.5 434t308.5 161q177 0 307 -107l-17 -55q-59 55 -134.5 84.5t-152.5 29.5q-165 0 -275.5 -147t-139.5 -400h596l-10 -40h-589q-5 -46 -5 -117q0 -45 3 -92h537l-10 -40h-524 q24 -262 136 -416.5t281 -154.5q160 0 285 108l19 -50q-127 -106 -307 -106q-188 0 -313.5 167.5t-151.5 451.5h-141z" />
<glyph unicode="&#x2122;" horiz-adv-x="756" d="M48 1428v34h234v-34h-96v-399h-41v399h-97zM310 1029v433h43l118 -244l116 244h44v-433h-43l2 344l-119 -246l-120 246l1 -344h-42z" />
<glyph unicode="&#xe000;" horiz-adv-x="1095" d="M0 0v1095h1095v-1095h-1095z" />
</font>
</defs>
</svg>
