<?xml version="1.0" standalone="no"?>
<!DOCTYPE svg PUBLIC "-//W3C//DTD SVG 1.1//EN" "http://www.w3.org/Graphics/SVG/1.1/DTD/svg11.dtd" >
<svg xmlns="http://www.w3.org/2000/svg">
<metadata></metadata>
<defs>
<font id="ma_beta_bbold_condensed" horiz-adv-x="1097" >
<font-face units-per-em="2048" ascent="1536" descent="-512" />
<missing-glyph horiz-adv-x="353" />
<glyph horiz-adv-x="2048" />
<glyph horiz-adv-x="2048" />
<glyph unicode="&#xd;" horiz-adv-x="682" />
<glyph unicode=" "  horiz-adv-x="353" />
<glyph unicode="&#x09;" horiz-adv-x="353" />
<glyph unicode="&#xa0;" horiz-adv-x="353" />
<glyph unicode="!" horiz-adv-x="547" d="M109 150q0 78 45 124t120 46t119.5 -45.5t44.5 -124.5q0 -78 -45 -124.5t-119 -46.5q-75 0 -120 46t-45 125zM135 443v1019h277v-980z" />
<glyph unicode="&#x22;" horiz-adv-x="676" d="M50 1438l257 41l-32 -563h-192zM370 1438l256 41l-33 -563h-190z" />
<glyph unicode="#" horiz-adv-x="1076" d="M31 401l22 203h162l30 278h-160l25 202h159l42 378h202l-42 -378h209l43 378h203l-43 -378h161l-22 -202h-162l-30 -278h161l-25 -203h-160l-44 -401h-204l45 401h-209l-44 -401h-203l45 401h-161zM417 604h210l30 278h-209z" />
<glyph unicode="$" horiz-adv-x="964" d="M68 164l94 244q151 -119 307 -119q66 0 103.5 37t37.5 95q0 24 -4.5 42.5t-18.5 35.5t-25.5 28t-41.5 26.5t-48.5 24.5t-62.5 29q-87 40 -141.5 74t-97.5 81.5t-62 109.5t-19 147q0 155 78 261t212 137v231h205v-226q159 -21 288 -111l-93 -248q-130 110 -277 110 q-58 0 -92.5 -33.5t-34.5 -88.5q0 -65 40 -98t146 -80q88 -39 144.5 -74t102 -83.5t66 -112t20.5 -149.5q0 -169 -82 -277.5t-228 -134.5v-228h-205v225q-167 22 -311 125z" />
<glyph unicode="%" horiz-adv-x="1217" d="M68 1141q0 157 66.5 249.5t180.5 92.5t181.5 -92t67.5 -248t-67.5 -248.5t-181.5 -92.5t-180.5 92t-66.5 247zM80 0l834 1462h222l-835 -1462h-221zM234 1143q0 -78 20.5 -122t60.5 -44t61 44t21 122q0 77 -21 121t-61 44t-60.5 -44t-20.5 -121zM653 319q0 156 67 248.5 t181 92.5q115 0 181.5 -92t66.5 -248q0 -155 -67 -247.5t-181 -92.5t-181 91.5t-67 247.5zM820 320q0 -78 20.5 -122t60.5 -44t61 44t21 122t-21 122t-61 44t-60.5 -44t-20.5 -122z" />
<glyph unicode="&#x26;" horiz-adv-x="1137" d="M66 397q0 279 237 430q-49 76 -75.5 145.5t-26.5 151.5q0 162 92.5 260.5t257.5 98.5q142 0 277 -79l-93 -235q-72 65 -159 65q-52 0 -83 -37t-31 -92q0 -52 20.5 -97t57.5 -98l230 -324q38 91 104 277l196 -136q-91 -240 -147 -350l193 -270l-221 -127l-124 179 q-149 -179 -339 -179q-175 0 -270.5 110.5t-95.5 306.5zM315 418q0 -84 40 -136.5t112 -52.5q91 0 170 119l-207 298q-115 -85 -115 -228z" />
<glyph unicode="'" horiz-adv-x="397" d="M50 1438l297 41l-32 -563h-232z" />
<glyph unicode="(" horiz-adv-x="572" d="M94 672q0 641 280 1024l169 -166q-220 -308 -220 -858q0 -272 57 -491.5t163 -366.5l-169 -167q-280 383 -280 1025z" />
<glyph unicode=")" horiz-adv-x="572" d="M29 -186q106 148 163 367t57 491q0 550 -220 858l169 166q280 -383 280 -1024t-280 -1024z" />
<glyph unicode="*" horiz-adv-x="685" d="M48 1122l49 191l163 -73l-10 222h185l-11 -222l163 73l50 -191l-166 -59l120 -180l-148 -119l-101 193l-99 -193l-149 119l120 180z" />
<glyph unicode="+" horiz-adv-x="1007" d="M66 418v256h324v419h227v-419h323v-256h-323v-418h-227v418h-324z" />
<glyph unicode="," horiz-adv-x="493" d="M69 168q0 87 48.5 138t128.5 51t129 -57t49 -147q0 -67 -36 -159l-100 -259l-174 24l93 231q-64 11 -101 56.5t-37 121.5z" />
<glyph unicode="-" horiz-adv-x="593" d="M65 398v296h463v-296h-463z" />
<glyph unicode="." horiz-adv-x="493" d="M69 168q0 87 48.5 138t129.5 51q80 0 128.5 -50.5t48.5 -138.5q0 -87 -48.5 -138t-128.5 -51q-82 0 -130 50.5t-48 138.5z" />
<glyph unicode="/" horiz-adv-x="780" d="M-126 -325l733 1996h230l-734 -1996h-229z" />
<glyph unicode="0" horiz-adv-x="1069" d="M86 728q0 355 114.5 554.5t333.5 199.5q220 0 334 -198.5t114 -553.5q0 -354 -114.5 -553t-333.5 -199t-333.5 198t-114.5 552zM371 730q0 -494 163 -494q164 0 164 492q0 494 -164 494q-163 0 -163 -492z" />
<glyph unicode="1" horiz-adv-x="608" d="M20 1130v279l470 74v-1483h-289v1164z" />
<glyph unicode="2" horiz-adv-x="896" d="M28 1363q164 119 367 119q200 0 309.5 -104t109.5 -306q0 -181 -103 -326l-337 -477l454 9l-28 -278h-747v277l407 571q66 92 66 188q0 84 -43.5 130t-125.5 46q-130 0 -233 -104z" />
<glyph unicode="3" horiz-adv-x="907" d="M14 90l88 231q108 -92 240 -92q90 0 141 51.5t51 144.5q0 84 -52 131.5t-137 47.5h-146v279h145q82 0 131 45.5t49 128.5q0 85 -47 130t-135 45q-135 0 -231 -84l-89 230q151 104 361 104q200 0 310.5 -102.5t110.5 -297.5q0 -114 -48 -199t-136 -128q94 -46 147 -138.5 t53 -213.5q0 -206 -118.5 -315t-318.5 -109q-214 0 -369 111z" />
<glyph unicode="4" horiz-adv-x="1020" d="M45 302v233l487 927h307v-912l148 2l-29 -250h-119v-302h-276l6 302h-524zM297 541l278 3l11 577z" />
<glyph unicode="5" horiz-adv-x="935" d="M46 96l89 231q110 -98 246 -98q91 0 144.5 59t53.5 160q0 91 -54 140.5t-157 49.5h-266l76 824h648v-277h-391l-30 -294h81q180 0 279 -113.5t99 -312.5q0 -227 -116.5 -356.5t-328.5 -129.5q-221 0 -373 117z" />
<glyph unicode="6" horiz-adv-x="1011" d="M86 688q0 236 52.5 412t164 279t270.5 103q177 0 324 -85l-90 -232q-104 68 -211 68q-108 0 -161.5 -91t-63.5 -269q93 63 206 63q173 0 268.5 -120.5t95.5 -341.5q0 -226 -114 -361t-301 -135q-440 0 -440 710zM370 637q2 -208 35 -306.5t117 -98.5q72 0 107 64t35 172 q0 106 -37 163t-109 57q-80 0 -148 -51z" />
<glyph unicode="7" horiz-adv-x="892" d="M28 1179v283h822v-277l-469 -1185h-325l497 1183z" />
<glyph unicode="8" horiz-adv-x="1060" d="M86 405q0 116 53 209t140 156q-74 64 -114 137.5t-40 174.5q0 187 109 293.5t295 106.5q187 0 296.5 -107t109.5 -293q0 -188 -157 -325q94 -69 144.5 -151t50.5 -202q0 -199 -119.5 -312.5t-324.5 -113.5t-324 113.5t-119 313.5zM354 429q0 -92 46.5 -146t127.5 -54 q75 0 120 46.5t45 129.5q0 34 -10.5 62t-24 46.5t-41.5 39t-48.5 31.5t-60.5 31l-40 20q-114 -85 -114 -206zM396 1078q0 -34 12 -61.5t38 -50t48 -36t61 -34.5l32 -17q87 80 87 177q0 79 -38.5 126t-104.5 47q-63 0 -99 -40.5t-36 -110.5z" />
<glyph unicode="9" horiz-adv-x="1011" d="M70 987q0 225 114 360t301 135q440 0 440 -710q0 -235 -52.5 -411t-164 -279.5t-270.5 -103.5q-175 0 -324 86l90 231q103 -68 211 -68t161.5 91t63.5 269q-92 -63 -206 -63q-173 0 -268.5 121t-95.5 342zM348 993q0 -106 36.5 -163.5t108.5 -57.5q79 0 149 51 q-3 209 -36 307t-117 98q-71 0 -106 -63.5t-35 -171.5z" />
<glyph unicode=":" horiz-adv-x="526" d="M86 168q0 87 48.5 138t129.5 51q80 0 128 -50.5t48 -138.5q0 -87 -48 -138t-128 -51q-82 0 -130 50.5t-48 138.5zM86 925q0 87 48.5 138.5t129.5 51.5q80 0 128 -51t48 -139q0 -87 -48 -138t-128 -51q-82 0 -130 50.5t-48 138.5z" />
<glyph unicode=";" horiz-adv-x="527" d="M86 168q0 87 48.5 138t128.5 51t129 -57t49 -147q0 -67 -36 -159l-100 -259l-174 24l93 231q-64 11 -101 56.5t-37 121.5zM86 925q0 87 48.5 138.5t129.5 51.5q80 0 128 -51t48 -139q0 -87 -48 -138t-128 -51q-82 0 -130 50.5t-48 138.5z" />
<glyph unicode="&#x3c;" horiz-adv-x="927" d="M71 396v301l769 400v-288l-562 -263l562 -256v-286z" />
<glyph unicode="=" horiz-adv-x="1048" d="M86 218v221h875v-221h-875zM86 653v222h875v-222h-875z" />
<glyph unicode="&#x3e;" horiz-adv-x="927" d="M86 -4v286l562 263l-562 264v288l769 -400v-302z" />
<glyph unicode="?" horiz-adv-x="835" d="M5 1366q169 117 386 117q171 0 282 -109.5t111 -301.5q0 -180 -84.5 -285t-227.5 -139v-167l-275 -38v397q310 60 310 238q0 60 -35 101.5t-98 41.5q-147 0 -282 -102zM170 150q0 78 45 124t121 46q75 0 119.5 -45.5t44.5 -124.5q0 -78 -45 -124t-119 -46 q-76 0 -121 45.5t-45 124.5z" />
<glyph unicode="@" horiz-adv-x="1643" d="M68 341q0 241 60 452.5t167 365.5t262.5 243t337.5 89q315 0 497.5 -202t182.5 -580q0 -148 -24.5 -269t-74.5 -214.5t-132.5 -145.5t-191.5 -52q-81 0 -143 41t-83 116q-93 -157 -234 -157q-122 0 -187 101t-65 276q0 120 23 230.5t65 196.5t107.5 137t144.5 51 q110 0 193 -81l3 30l232 47l-68 -611q-3 -24 -3 -42q0 -110 77 -110q61 0 102.5 62t59 157.5t17.5 216.5q0 297 -134.5 455.5t-378.5 158.5q-186 0 -330.5 -126t-220.5 -337.5t-77 -470.5q0 -298 137 -459t374 -161q212 0 369 162l76 -179q-197 -172 -462 -172 q-150 0 -274 50.5t-214 147.5t-140 246t-50 337zM687 479q0 -182 90 -182q33 0 59 23t61 71l36 313q-25 43 -48 65.5t-56 22.5q-43 0 -76 -47.5t-49 -117.5t-17 -148z" />
<glyph unicode="A" horiz-adv-x="1105" d="M-3 0l362 1462h386l363 -1462h-308l-67 297h-374l-67 -297h-295zM407 558h279l-139 631z" />
<glyph unicode="B" horiz-adv-x="1049" d="M116 0v1462h483q164 0 261 -98.5t97 -271.5q0 -132 -57.5 -223.5t-157.5 -125.5q112 -34 172.5 -126t60.5 -236q0 -183 -99.5 -282t-276.5 -99h-483zM411 259h132q65 0 104.5 47.5t39.5 130.5t-39.5 130.5t-104.5 47.5h-132v-356zM411 872h126q58 0 94 43.5t36 120.5 t-36 121t-94 44h-126v-329z" />
<glyph unicode="C" horiz-adv-x="962" d="M68 731q0 344 142 548t392 204q186 0 332 -96l-96 -272q-100 74 -202 74q-130 0 -202.5 -124.5t-72.5 -333.5q0 -211 72.5 -336t202.5 -125q102 0 202 74l96 -271q-140 -93 -332 -93q-166 0 -287 92.5t-184 261.5t-63 397z" />
<glyph unicode="D" horiz-adv-x="1191" d="M116 0v1462h410q277 0 437 -195t160 -536q0 -343 -159.5 -537t-437.5 -194h-410zM410 276h129q139 0 214 118.5t75 336.5q0 217 -75 335t-214 118h-129v-908z" />
<glyph unicode="E" horiz-adv-x="959" d="M116 0v1462h775v-278h-481v-303h330v-277h-330v-328h481v-276h-775z" />
<glyph unicode="F" horiz-adv-x="916" d="M116 0v1462h775v-278h-481v-303h330v-277h-330v-604h-294z" />
<glyph unicode="G" horiz-adv-x="1148" d="M68 730q0 345 150.5 548.5t407.5 203.5q204 0 365 -88l-91 -252q-117 66 -245 66q-135 0 -214 -133.5t-79 -344.5q0 -213 70.5 -345.5t195.5 -132.5q81 0 150 31v307h-175v246h452v-734q-194 -122 -436 -122q-255 0 -403 202t-148 548z" />
<glyph unicode="H" horiz-adv-x="1207" d="M116 0v1462h294v-573h386v573h294v-1462h-294v598h-386v-598h-294z" />
<glyph unicode="I" horiz-adv-x="527" d="M116 0v1462h294v-1462h-294z" />
<glyph unicode="J" horiz-adv-x="533" d="M-35 -186q85 22 121 87t36 175v1386h294v-1386q0 -220 -84 -353t-261 -186z" />
<glyph unicode="K" horiz-adv-x="1107" d="M116 0v1462h294v-685l346 685h335l-404 -717l423 -745h-342l-358 708v-708h-294z" />
<glyph unicode="L" horiz-adv-x="820" d="M116 0v1462h294v-1171h404v-291h-698z" />
<glyph unicode="M" horiz-adv-x="1450" d="M116 0v1462h289l320 -630l320 630h288v-1462h-289l6 916l-331 -649l-330 646l7 -913h-280z" />
<glyph unicode="N" horiz-adv-x="1233" d="M116 0v1462h300l430 -903l-6 903h276v-1462h-298l-434 905l8 -905h-276z" />
<glyph unicode="O" horiz-adv-x="1218" d="M68 731q0 344 145 548t395 204q251 0 396.5 -204.5t145.5 -547.5q0 -346 -145 -548.5t-397 -202.5q-251 0 -395.5 202.5t-144.5 548.5zM361 731q0 -222 63 -347.5t184 -125.5q122 0 184.5 125t62.5 348q0 221 -62.5 346t-184.5 125q-121 0 -184 -125.5t-63 -345.5z" />
<glyph unicode="P" horiz-adv-x="1018" d="M116 0v1462h461q178 0 284 -125.5t106 -342.5q0 -216 -106.5 -341.5t-284.5 -125.5h-165v-527h-295zM411 791h112q75 0 118 53t43 151q0 99 -43 151t-118 52h-112v-407z" />
<glyph unicode="Q" horiz-adv-x="1217" d="M68 731q0 344 145 548t395 204t395.5 -204t145.5 -548q0 -226 -61 -392.5t-177 -255.5l229 -364l-290 -103l-183 371q-29 -7 -59 -7q-251 0 -395.5 202.5t-144.5 548.5zM361 731q0 -222 63 -347.5t184 -125.5q122 0 184.5 125.5t62.5 347.5q0 221 -62.5 346t-184.5 125 q-121 0 -184 -125.5t-63 -345.5z" />
<glyph unicode="R" horiz-adv-x="1061" d="M116 0v1462h469q178 0 284 -120t106 -332q0 -158 -63.5 -267t-173.5 -155l297 -588h-307l-254 544h-64v-544h-294zM410 791h121q75 0 118 53t43 151q0 99 -43 151t-118 52h-121v-407z" />
<glyph unicode="S" horiz-adv-x="950" d="M59 107l82 261q161 -120 320 -120q65 0 104 41t39 106q0 73 -40.5 111t-154.5 96l-12 6q-69 35 -113 63t-87 65.5t-66.5 79t-37.5 98.5t-14 129q0 204 113 322t288 118q208 0 386 -120l-80 -263q-147 113 -285 113q-61 0 -97 -39t-36 -100q0 -71 40.5 -108.5t150.5 -92.5 q89 -45 143.5 -81.5t101.5 -88t67.5 -118.5t20.5 -158q0 -213 -115 -330t-298 -117q-233 0 -420 127z" />
<glyph unicode="T" horiz-adv-x="918" d="M5 1172v290h907v-290h-306v-1172h-295v1172h-306z" />
<glyph unicode="U" horiz-adv-x="1162" d="M101 538v924h293v-924q0 -278 186 -278q187 0 187 278v924h294v-924q0 -275 -124.5 -416.5t-356.5 -141.5t-355.5 141.5t-123.5 416.5z" />
<glyph unicode="V" horiz-adv-x="1093" d="M-4 1462h310l246 -1109l246 1109h298l-365 -1462h-372z" />
<glyph unicode="W" horiz-adv-x="1618" d="M5 1462h310l141 -1000l219 1000h277l219 -1000l142 1000h300l-289 -1462h-306l-210 955l-207 -955h-306z" />
<glyph unicode="X" horiz-adv-x="1099" d="M-4 0l367 743l-354 719h327l220 -481l219 481h312l-353 -719l369 -743h-329l-234 506l-236 -506h-308z" />
<glyph unicode="Y" horiz-adv-x="1085" d="M-37 1462h338l246 -629l248 629h327l-433 -928v-534h-295v534z" />
<glyph unicode="Z" horiz-adv-x="977" d="M68 0v287l515 905l-515 -8v278h840v-282l-514 -905l514 7v-282h-840z" />
<glyph unicode="[" horiz-adv-x="608" d="M131 -325v1996h425v-216h-199v-1566h199v-214h-425z" />
<glyph unicode="\" horiz-adv-x="834" d="M-30 1671h230l734 -1996h-230z" />
<glyph unicode="]" horiz-adv-x="608" d="M52 -111h198v1566h-198v216h425v-1996h-425v214z" />
<glyph unicode="^" horiz-adv-x="798" d="M34 862l242 600h247l241 -600h-223l-141 384l-141 -384h-225z" />
<glyph unicode="_" horiz-adv-x="992" d="M18 -152h955v-208h-955v208z" />
<glyph unicode="`" d="M316 1529l287 44l176 -330l-206 -32z" />
<glyph unicode="a" horiz-adv-x="924" d="M56 299q0 168 94.5 256t272.5 113l132 19v42q0 143 -138 143q-134 0 -245 -87l-84 216q162 113 380 113q365 0 365 -398v-535q0 -100 8 -181h-261l-11 102q-113 -123 -266 -123q-115 0 -181 86.5t-66 233.5zM328 331q0 -49 24 -78t67 -29q37 0 74 29t62 75v165l-94 -16 q-67 -12 -100 -46.5t-33 -99.5z" />
<glyph unicode="b" horiz-adv-x="976" d="M104 0v1534l278 41v-570q101 110 204 110q154 0 239.5 -155.5t85.5 -414.5q0 -257 -85.5 -411.5t-239.5 -154.5q-62 0 -113 31.5t-104 87.5v-98h-265zM382 363q30 -49 58 -73.5t65 -24.5q60 0 94 76.5t34 203.5q0 128 -34.5 205.5t-93.5 77.5q-37 0 -65 -25t-58 -74v-366 z" />
<glyph unicode="c" horiz-adv-x="790" d="M59 546q0 268 118.5 418.5t316.5 150.5q142 0 274 -100l-96 -246q-71 71 -149 71q-84 0 -129.5 -80t-45.5 -214q0 -132 45.5 -212t129.5 -80q77 0 149 72l96 -249q-133 -98 -274 -98q-198 0 -316.5 150t-118.5 417z" />
<glyph unicode="d" horiz-adv-x="976" d="M65 545q0 259 85.5 414.5t238.5 155.5q104 0 205 -110v529l277 41v-1575h-266v98q-52 -56 -103 -87.5t-113 -31.5q-153 0 -238.5 155t-85.5 411zM342 545q0 -128 34 -204t94 -76q37 0 65 24.5t59 73.5v366q-31 49 -59 74t-65 25q-61 0 -94.5 -77t-33.5 -206z" />
<glyph unicode="e" horiz-adv-x="935" d="M59 542q0 264 116 418.5t306 154.5q126 0 217 -77t134.5 -202.5t43.5 -284.5q0 -49 -3 -80h-529q5 -117 55 -182.5t138 -65.5q124 0 225 104l86 -223q-147 -125 -351 -125q-198 0 -318 148t-120 415zM342 681h258q-4 98 -35 156t-89 58q-60 0 -94.5 -56.5t-39.5 -157.5z " />
<glyph unicode="f" horiz-adv-x="642" d="M18 832v261h126v110q0 176 72.5 274t221.5 98q140 0 252 -69l-71 -243q-51 39 -108 39q-89 0 -89 -148v-61h221l-29 -261h-192v-832h-278v832h-126z" />
<glyph unicode="g" horiz-adv-x="968" d="M67 555q0 257 85 408.5t240 151.5q62 0 112.5 -31.5t104.5 -88.5v76l263 39v-1071q0 -521 -432 -521q-215 0 -371 120l88 225q105 -100 244 -100q92 0 142.5 58t50.5 165v119q-98 -107 -203 -107q-154 0 -239 150.5t-85 406.5zM344 555q0 -127 34 -199.5t94 -72.5 q36 0 64 25t58 72v349q-29 48 -57.5 73.5t-64.5 25.5q-61 0 -94.5 -72.5t-33.5 -200.5z" />
<glyph unicode="h" horiz-adv-x="979" d="M104 0v1534l278 41v-580q124 120 238 120q131 0 201.5 -101.5t70.5 -275.5v-738h-277v673q0 74 -24.5 116t-70.5 42q-70 0 -138 -111v-720h-278z" />
<glyph unicode="i" horiz-adv-x="469" d="M71 1387q0 76 44.5 121t118.5 45q75 0 119.5 -44.5t44.5 -121.5q0 -76 -44.5 -121t-119.5 -45q-74 0 -118.5 44.5t-44.5 121.5zM96 0v1071l278 39v-1110h-278z" />
<glyph unicode="j" horiz-adv-x="469" d="M-48 -206q76 21 110 74t34 156v1046l279 40v-1092q0 -212 -76 -333t-240 -167zM72 1387q0 77 44 121.5t118 44.5q75 0 119.5 -44.5t44.5 -121.5q0 -76 -44.5 -121t-119.5 -45q-74 0 -118 45t-44 121z" />
<glyph unicode="k" horiz-adv-x="952" d="M104 0v1534l278 41v-963l245 481h295l-280 -517l303 -576h-315l-248 537v-537h-278z" />
<glyph unicode="l" horiz-adv-x="486" d="M104 0v1534l278 41v-1575h-278z" />
<glyph unicode="m" horiz-adv-x="1462" d="M96 0v1071l263 39v-124q143 129 258 129q148 0 217 -130q142 130 265 130q134 0 205 -101.5t71 -275.5v-738h-277v674q0 157 -89 157q-62 0 -129 -110v-721h-290v674q0 157 -88 157q-36 0 -66.5 -30t-62.5 -81v-720h-277z" />
<glyph unicode="n" horiz-adv-x="970" d="M96 0v1071l262 39v-124q137 129 246 129q132 0 205.5 -102t73.5 -275v-738h-277v674q0 73 -24.5 115t-69.5 42q-73 0 -139 -111v-720h-277z" />
<glyph unicode="o" horiz-adv-x="969" d="M58 545q0 265 115.5 417.5t310.5 152.5q196 0 311 -151.5t115 -416.5t-115 -416.5t-311 -151.5q-197 0 -311.5 150.5t-114.5 415.5zM335 545q0 -143 36.5 -223.5t112.5 -80.5q75 0 111.5 81t36.5 223t-36.5 222.5t-111.5 80.5q-149 0 -149 -303z" />
<glyph unicode="p" horiz-adv-x="976" d="M104 -460v1531l262 39v-115q55 57 106.5 88.5t112.5 31.5q154 0 240 -156t86 -413t-86 -412t-240 -155q-108 0 -205 108v-547h-276zM382 363q30 -49 58 -73.5t65 -24.5q60 0 93.5 76.5t33.5 204.5t-33.5 205t-93.5 77q-37 0 -65 -25t-58 -74v-366z" />
<glyph unicode="q" horiz-adv-x="976" d="M65 546q0 257 85.5 413t238.5 156q61 0 112 -32t104 -88v75l266 40v-1570h-277v547q-99 -108 -205 -108q-153 0 -238.5 155t-85.5 412zM342 546q0 -128 34 -204.5t94 -76.5q37 0 65 24.5t59 73.5v366q-31 49 -59 74t-65 25q-60 0 -94 -77t-34 -205z" />
<glyph unicode="r" horiz-adv-x="694" d="M96 0v1071l264 39v-125q101 130 234 130q40 0 88 -17l-42 -352q-43 49 -114 49q-81 0 -152 -117v-678h-278z" />
<glyph unicode="s" horiz-adv-x="842" d="M56 82l75 231q57 -48 128 -74t139 -26q47 0 76 26t29 66q0 46 -30.5 70.5t-110.5 53.5q-61 22 -102 41t-80 46.5t-61 60.5t-35 79.5t-13 107.5q0 161 94 255t253 94q201 0 351 -90l-77 -232q-114 88 -244 88q-43 0 -69 -25t-26 -61q0 -45 30.5 -70.5t108.5 -53.5t125 -52 t89.5 -62t61.5 -92.5t19 -130.5q0 -167 -97.5 -260t-263.5 -93q-218 0 -370 103z" />
<glyph unicode="t" horiz-adv-x="700" d="M18 832v261h126v279l277 41v-320h221l-29 -261h-192v-426q0 -147 87 -147q61 0 108 38l72 -250q-114 -68 -252 -68q-150 0 -221 97.5t-71 273.5v482h-126z" />
<glyph unicode="u" horiz-adv-x="972" d="M87 355v715l278 40v-691q0 -158 93 -158q73 0 140 113v696l277 40v-1110h-264v107q-132 -128 -245 -128q-133 0 -206 101t-73 275z" />
<glyph unicode="v" horiz-adv-x="950" d="M2 1093h310l167 -725l173 725h295l-325 -1093h-294z" />
<glyph unicode="w" horiz-adv-x="1385" d="M14 1093h298l100 -669l176 669h223l174 -672l101 672h286l-237 -1093h-274l-168 663l-167 -663h-275z" />
<glyph unicode="x" horiz-adv-x="912" d="M4 0l262 553l-243 540h293l143 -345l143 345h287l-241 -518l260 -575h-292l-163 387l-162 -387h-287z" />
<glyph unicode="y" horiz-adv-x="950" d="M2 1093h311l166 -756l173 756h295l-375 -1251q-40 -131 -115.5 -210t-199.5 -114l-110 276q74 17 106 53t56 122l15 53z" />
<glyph unicode="z" horiz-adv-x="858" d="M71 0v247l381 589l-381 -8v265h706v-248l-380 -589l411 8l-30 -264h-707z" />
<glyph unicode="{" horiz-adv-x="578" d="M34 558v226q73 16 104.5 55.5t31.5 119.5v332q0 172 64.5 269t206.5 136l86 -224q-71 -19 -104.5 -61.5t-33.5 -126.5v-333q0 -127 -34.5 -186t-116.5 -93q82 -34 116.5 -94t34.5 -187v-333q0 -83 33.5 -125.5t104.5 -60.5l-86 -225q-142 39 -206.5 136.5t-64.5 270.5 v333q0 79 -31.5 117.5t-104.5 53.5z" />
<glyph unicode="|" horiz-adv-x="454" d="M121 -325v1996h211v-1996h-211z" />
<glyph unicode="}" horiz-adv-x="578" d="M51 -128q71 18 104.5 60.5t33.5 125.5v333q0 127 34.5 187t116.5 94q-82 34 -116.5 93t-34.5 186v333q0 84 -33.5 126.5t-104.5 61.5l86 224q142 -39 206.5 -136t64.5 -269v-332q0 -80 31.5 -119.5t104.5 -55.5v-226q-73 -15 -104.5 -53.5t-31.5 -117.5v-333 q0 -173 -64.5 -270.5t-206.5 -136.5z" />
<glyph unicode="~" horiz-adv-x="1057" d="M34 593q149 162 305 162q126 0 265 -109q67 -52 127 -52q99 0 181 125l110 -218q-151 -164 -306 -164q-126 0 -264 110q-66 52 -129 52q-96 0 -181 -124z" />
<glyph unicode="&#xa2;" horiz-adv-x="815" d="M59 599q0 209 76.5 350.5t214.5 189.5v255h217v-231q121 -16 225 -95l-95 -248q-74 72 -158 72q-88 0 -137.5 -81t-49.5 -212q0 -130 49.5 -210.5t137.5 -80.5q85 0 158 71l95 -248q-100 -76 -225 -93v-232h-217v256q-138 49 -214.5 189t-76.5 348z" />
<glyph unicode="&#xa3;" horiz-adv-x="951" d="M45 616l23 257h125l16 198q15 184 109.5 298t254.5 114q147 0 273 -70l-62 -248q-67 56 -157 56q-136 0 -153 -222l-10 -126h259l-56 -257h-225l-32 -364h526l-27 -252h-792l52 616h-124z" />
<glyph unicode="&#xa5;" horiz-adv-x="1069" d="M-6 1462h313l234 -533l233 533h301l-382 -779h256v-258h-273v-425h-282v425h-272v258h255z" />
<glyph unicode="&#xa8;" d="M214 1393q0 66 38.5 105t101.5 39q64 0 101.5 -38.5t37.5 -105.5q0 -66 -37.5 -104.5t-101.5 -38.5t-102 38.5t-38 104.5zM602 1393q0 66 38 105t101 39q64 0 102.5 -39t38.5 -105t-38.5 -104.5t-102.5 -38.5q-63 0 -101 38.5t-38 104.5z" />
<glyph unicode="&#xa9;" horiz-adv-x="1427" d="M68 731q0 170 49.5 320t134.5 256.5t205 168.5t257 62q136 0 256 -62t205.5 -168.5t134.5 -256.5t49 -320t-49 -320.5t-134.5 -257.5t-205.5 -169t-256 -62q-137 0 -257 62t-205 169t-134.5 257.5t-49.5 320.5zM198 731q0 -189 66 -340t184.5 -236.5t265.5 -85.5 t265 85.5t184.5 236.5t66.5 340q0 188 -66.5 339t-184.5 236t-265 85t-265.5 -85.5t-184.5 -236t-66 -338.5zM315 731q0 240 116.5 383t299.5 143q144 0 271 -120l-103 -211q-69 83 -148 83q-84 0 -136.5 -77.5t-52.5 -200.5t52.5 -200.5t136.5 -77.5q78 0 148 82l103 -211 q-125 -116 -271 -116q-183 0 -299.5 142t-116.5 381z" />
<glyph unicode="&#xad;" horiz-adv-x="593" d="M65 398v296h463v-296h-463z" />
<glyph unicode="&#xae;" horiz-adv-x="724" d="M68 1118q0 159 82.5 262t209.5 103q130 0 213 -103t83 -262q0 -163 -83 -267t-213 -104q-128 0 -210 104t-82 267zM137 1118q0 -132 61.5 -213t161.5 -81q101 0 164 81t63 213q0 128 -63 208t-164 80q-100 0 -161.5 -80t-61.5 -208zM237 919v399h142q51 0 82.5 -33 t31.5 -92q0 -43 -19 -73.5t-52 -42.5l88 -158h-99l-65 145h-14v-145h-95zM332 1139h32q17 0 27.5 13.5t10.5 36.5q0 50 -38 50h-32v-100z" />
<glyph unicode="&#xb4;" d="M316 1243l177 330l286 -44l-256 -318z" />
<glyph unicode="&#xb8;" d="M354 -449l26 142q59 -53 126 -53q32 0 54 21.5t22 56.5q0 32 -19.5 50t-54.5 18h-114l39 226h143l-18 -100q87 0 135.5 -52.5t48.5 -141.5q0 -99 -58.5 -158.5t-157.5 -59.5q-92 0 -172 51z" />
<glyph unicode="&#x2c6;" d="M222 1243l192 309h269l192 -309l-209 -31l-118 201l-117 -201z" />
<glyph unicode="&#x2da;" d="M339 1388q0 102 56 158.5t153 56.5t152.5 -56.5t55.5 -157.5t-55.5 -157.5t-152.5 -56.5t-153 56.5t-56 156.5zM487 1389q0 -45 16 -71t45 -26t44.5 25.5t15.5 70.5q0 98 -60 98q-61 0 -61 -97z" />
<glyph unicode="&#x2dc;" d="M215 1428q106 118 215 118q90 0 175 -70q36 -30 72 -30q70 0 122 87l82 -177q-105 -117 -215 -117q-91 0 -176 69q-38 30 -72 30q-69 0 -122 -88z" />
<glyph unicode="&#x2000;" horiz-adv-x="848" />
<glyph unicode="&#x2001;" horiz-adv-x="1696" />
<glyph unicode="&#x2002;" horiz-adv-x="848" />
<glyph unicode="&#x2003;" horiz-adv-x="1696" />
<glyph unicode="&#x2004;" horiz-adv-x="565" />
<glyph unicode="&#x2005;" horiz-adv-x="424" />
<glyph unicode="&#x2006;" horiz-adv-x="282" />
<glyph unicode="&#x2007;" horiz-adv-x="282" />
<glyph unicode="&#x2008;" horiz-adv-x="212" />
<glyph unicode="&#x2009;" horiz-adv-x="339" />
<glyph unicode="&#x200a;" horiz-adv-x="94" />
<glyph unicode="&#x2010;" horiz-adv-x="593" d="M65 398v296h463v-296h-463z" />
<glyph unicode="&#x2011;" horiz-adv-x="593" d="M65 398v296h463v-296h-463z" />
<glyph unicode="&#x2012;" horiz-adv-x="593" d="M65 398v296h463v-296h-463z" />
<glyph unicode="&#x2013;" horiz-adv-x="1096" d="M65 425v243h965v-243h-965z" />
<glyph unicode="&#x2014;" horiz-adv-x="1512" d="M65 425v243h1381v-243h-1381z" />
<glyph unicode="&#x2018;" horiz-adv-x="440" d="M50 1077q0 62 24 124l106 277l167 -23l-88 -221q61 -11 96 -54.5t35 -115.5q0 -82 -47.5 -132t-123.5 -50q-75 0 -122 55t-47 140z" />
<glyph unicode="&#x2019;" horiz-adv-x="440" d="M50 1301q0 84 46.5 133t124.5 49q75 0 122 -55.5t47 -140.5q0 -66 -34 -152l-96 -248l-167 23l88 221q-61 10 -96 54t-35 116z" />
<glyph unicode="&#x201a;" horiz-adv-x="440" d="M50 160q0 84 46.5 133t124.5 49q75 0 122 -55t47 -140q0 -65 -34 -153l-96 -248l-167 23l88 221q-61 11 -96 54.5t-35 115.5z" />
<glyph unicode="&#x201c;" horiz-adv-x="812" d="M50 1077q0 76 40 179l84 222l159 -23l-85 -221q58 -11 91.5 -54.5t33.5 -115.5q0 -83 -44.5 -132.5t-117.5 -49.5q-72 0 -116.5 55t-44.5 140zM439 1077q0 76 40 179l84 222l159 -23l-85 -221q58 -11 91.5 -54.5t33.5 -115.5q0 -83 -44.5 -132.5t-117.5 -49.5 q-72 0 -116.5 55t-44.5 140z" />
<glyph unicode="&#x201d;" horiz-adv-x="812" d="M50 1301q0 83 44.5 132.5t117.5 49.5q72 0 116.5 -55t44.5 -141q0 -69 -31 -152l-92 -248l-160 23l86 221q-59 10 -92.5 54t-33.5 116zM438 1301q0 83 44.5 132.5t117.5 49.5t117.5 -55t44.5 -141q0 -67 -32 -152l-92 -248l-160 23l86 221q-58 10 -92 54t-34 116z" />
<glyph unicode="&#x201e;" horiz-adv-x="812" d="M50 160q0 83 44.5 132.5t117.5 49.5q72 0 116.5 -55t44.5 -140q0 -69 -31 -153l-92 -248l-160 23l86 221q-59 11 -92.5 54.5t-33.5 115.5zM438 160q0 83 44.5 132.5t117.5 49.5t117 -55t44 -140q0 -69 -31 -153l-92 -248l-160 23l86 221q-59 11 -92.5 54.5t-33.5 115.5z " />
<glyph unicode="&#x2026;" horiz-adv-x="1501" d="M69 168q0 87 48 138t129 51t129.5 -50.5t48.5 -138.5q0 -87 -48.5 -138t-129.5 -51t-129 50.5t-48 138.5zM573 168q0 87 48 138t129 51t129.5 -50.5t48.5 -138.5q0 -87 -48.5 -138t-129.5 -51t-129 50.5t-48 138.5zM1077 168q0 87 48 138t128 51q82 0 130.5 -50.5 t48.5 -138.5q0 -87 -48.5 -138t-130.5 -51q-80 0 -128 50.5t-48 138.5z" />
<glyph unicode="&#x202f;" horiz-adv-x="339" />
<glyph unicode="&#x205f;" horiz-adv-x="424" />
<glyph unicode="&#x20ac;" horiz-adv-x="1051" d="M15 616l30 257h104q29 282 172 446t366 164q188 0 331 -95l-75 -255q-105 79 -226 79q-114 0 -187.5 -90t-95.5 -249h440l-72 -257h-371q18 -170 92.5 -267t193.5 -97q112 0 213 77l88 -255q-142 -94 -331 -94q-229 0 -372.5 171t-167.5 465h-132z" />
<glyph unicode="&#x2122;" horiz-adv-x="804" d="M32 1353v109h271v-109h-83v-324h-103v324h-85zM334 1029v433h102l87 -164l88 164h101v-433h-103l2 227l-91 -177l-89 177l2 -227h-99z" />
<glyph unicode="&#xe000;" horiz-adv-x="1095" d="M0 0v1095h1095v-1095h-1095z" />
</font>
</defs>
</svg>
